SplineFontDB: 3.2
FontName: DrukaatieBurti-Demi
FullName: Drukaatie burti pustrekni
FamilyName: Drukaatie burti
Weight: Demi
Copyright: License: SIL OFL.\nAuthor: Karlis Kalviskis\nLast update: 2023.02.15.\nContact: karlo@lu.lv
UComments: "Creted from DrukaatieBurti Bold. Embolden by 24 em units."
Version: 0.14.4
ItalicAngle: 0
UnderlinePosition: -173
UnderlineWidth: 100
Ascent: 1638
Descent: 410
InvalidEm: 0
LayerCount: 2
Layer: 0 1 "Back" 1
Layer: 1 1 "Fore" 0
XUID: [1021 827 580535596 12029684]
FSType: 0
OS2Version: 3
OS2_WeightWidthSlopeOnly: 1
OS2_UseTypoMetrics: 1
CreationTime: 1277802766
ModificationTime: 1677180307
PfmFamily: 65
TTFWeight: 600
TTFWidth: 5
LineGap: 87
VLineGap: 0
Panose: 3 8 7 2 4 4 2 3 2 4
OS2TypoAscent: 1420
OS2TypoAOffset: 0
OS2TypoDescent: -442
OS2TypoDOffset: 0
OS2TypoLinegap: 307
OS2WinAscent: 1825
OS2WinAOffset: 0
OS2WinDescent: 443
OS2WinDOffset: 0
HheadAscent: 1825
HheadAOffset: 0
HheadDescent: -443
HheadDOffset: 0
OS2SubXSize: 1434
OS2SubYSize: 1332
OS2SubXOff: 0
OS2SubYOff: 292
OS2SupXSize: 1434
OS2SupYSize: 1332
OS2SupXOff: 0
OS2SupYOff: 928
OS2StrikeYSize: 100
OS2StrikeYPos: 420
OS2CapHeight: 1344
OS2XHeight: 855
OS2FamilyClass: 2568
OS2Vendor: '    '
Lookup: 4 0 0 "'dlig' Discretionary Ligatures in Latin lookup 0" { "My Spelling"  } ['dlig' ('DFLT' <'dflt' > 'latn' <'LVI ' > ) ]
Lookup: 258 0 0 "'kern' Horizontal Kerning in Latin lookup 0" { "'TVWYFf' Horizontal Kerning in Latin lookup 0-1" [307,60,2] "'beforeTVWY' Horizontal Kerning in Latin lookup 0-2" [307,30,0] } ['kern' ('DFLT' <'dflt' > 'latn' <'dflt' > ) ]
MarkAttachClasses: 1
DEI: 91125
KernClass2: 3 3 "'beforeTVWY' Horizontal Kerning in Latin lookup 0-2"

StartChar: .notdef
Encoding: 65536 -1 0
Width: 1652
VWidth: 1894
Flags: W
HStem: 5 124<174 1468> 1445 122<174 1468>
VStem: 52 122<129 1445> 244 101<933 1404> 764 102<332 774> 1468 124<129 1445>
LayerCount: 2
Fore
SplineSet
888 1404 m 1,0,-1
 602 1079 l 1,1,-1
 866 807 l 1,2,-1
 866 332 l 1,3,-1
 1273 807 l 1,4,-1
 1403 807 l 1,5,-1
 1128 474 l 1,6,-1
 1402 173 l 1,7,-1
 1273 173 l 1,8,-1
 1065 390 l 1,9,-1
 863 173 l 1,10,-1
 764 173 l 1,11,-1
 764 774 l 1,12,-1
 536 1013 l 1,13,-1
 338 807 l 1,14,-1
 244 807 l 1,15,-1
 244 1404 l 1,16,-1
 345 1404 l 1,17,-1
 345 933 l 1,18,-1
 762 1404 l 1,19,-1
 888 1404 l 1,0,-1
52 5 m 1,20,-1
 52 1567 l 1,21,-1
 1592 1567 l 1,22,-1
 1592 5 l 1,23,-1
 52 5 l 1,20,-1
174 129 m 1,24,-1
 1468 129 l 1,25,-1
 1468 1445 l 1,26,-1
 174 1445 l 1,27,-1
 174 129 l 1,24,-1
EndSplineSet
EndChar

StartChar: exclam
Encoding: 33 33 2
Width: 614
Flags: W
HStem: -48 260<174.284 342.377> 397 19<228.187 248.25>
VStem: 98 222<804 1263.14> 128 266<-8.69434 165.863> 421 77<1066 1343.2>
LayerCount: 2
Fore
SplineSet
219 416 m 1,0,1
 189 416 189 416 185 434 c 1,2,3
 98 675 98 675 98 933 c 0,4,5
 98 1191 98 1191 196 1410 c 0,6,7
 206 1432 206 1432 339 1449 c 1,8,-1
 347 1449 l 2,9,10
 382 1449 382 1449 396 1440 c 0,11,12
 454 1406 454 1406 476 1284 c 0,13,14
 498 1162 498 1162 498 1098 c 0,15,16
 498 1034 498 1034 486 953 c 0,17,18
 430 581 430 581 418 520 c 0,19,20
 410 484 410 484 316 420 c 0,21,22
 284 398 284 398 269 397 c 0,23,-1
 268 397 l 0,24,25
 253 397 253 397 219 416 c 1,0,1
343 1400 m 1,26,27
 333 1374 333 1374 324 1310 c 0,28,29
 320 1276 320 1276 320 1254 c 0,30,31
 320 1235 320 1235 323 1226 c 0,32,33
 335 1190 335 1190 403 1116 c 1,34,-1
 411 1175 l 1,35,36
 421 1210 421 1210 421 1234 c 0,37,38
 421 1247 421 1247 418 1257 c 1,39,-1
 404 1339 l 1,40,-1
 392 1357 l 2,41,42
 391 1359 391 1359 343 1400 c 1,26,27
EndSplineSet
Refer: 13 46 N 1 0 0 1 -24 -12 2
Validated: 1
EndChar

StartChar: numbersign
Encoding: 35 35 3
Width: 1216
VWidth: 1894
Flags: W
HStem: 267 155<102.141 226.304> 270 170<919.536 1039.31> 270 132<455.916 728.648> 672 142<471 707.524> 680 172<61.291 254.901> 710 172<935 1154.7>
VStem: 226 222<19.9049 243.875> 258 197<426 664 838 1159.86> 714 230<882.578 1248.32> 732 182<116.467 265.874 442.51 667.834> 737.5 206.5<882.578 1271.56>
LayerCount: 2
Fore
SplineSet
455 404 m 1,0,1
 496 402 496 402 595 402 c 0,2,3
 722 402 722 402 736 424 c 1,4,5
 738 435 738 435 738 504 c 0,6,7
 738 577 738 577 726.5 620 c 128,-1,8
 715 663 715 663 710 668 c 1,9,10
 702 672 702 672 663 672 c 128,-1,11
 624 672 624 672 589 670 c 128,-1,12
 554 668 554 668 519 666.5 c 128,-1,13
 484 665 484 665 467 664 c 1,14,-1
 455 404 l 1,0,1
735 39 m 8,15,16
 704 68 704 68 704 115 c 128,-1,17
 704 162 704 162 718 203 c 128,-1,18
 732 244 732 244 732 253 c 128,-1,19
 732 262 732 262 729 266 c 1,20,21
 718 270 718 270 674 270 c 128,-1,22
 630 270 630 270 556 256.5 c 128,-1,23
 482 243 482 243 448 233 c 1,24,25
 440 48 440 48 438 24 c 0,26,27
 436 1 436 1 409 1 c 0,28,29
 408 1 408 1 407 1 c 0,30,31
 251 6 251 6 238.5 45.5 c 128,-1,32
 226 85 226 85 226 118 c 2,33,-1
 226 178 l 1,34,-1
 234 251 l 1,35,-1
 160 267 l 1,36,37
 84 297 84 297 84 334 c 0,38,39
 84 402 84 402 213 422 c 1,40,-1
 258 426 l 1,41,-1
 258 665 l 1,42,-1
 188 680 l 2,43,44
 82 702 82 702 60 725 c 128,-1,45
 38 748 38 748 38 774 c 0,46,47
 38 852 38 852 144 852 c 2,48,-1
 145 852 l 1,49,-1
 256 838 l 1,50,-1
 260 936 l 1,51,52
 262 1060 262 1060 288 1125 c 128,-1,53
 314 1190 314 1190 324 1196 c 0,54,55
 358 1216 358 1216 384 1218 c 0,56,57
 386 1218 386 1218 389 1218 c 0,58,59
 416 1218 416 1218 482 1189 c 0,60,61
 483 1188 483 1188 483 1177 c 0,62,63
 483 1121 483 1121 471 816 c 1,64,65
 505 814 505 814 583.5 814 c 128,-1,66
 662 814 662 814 709 845 c 1,67,68
 714 861 714 861 714 922 c 2,69,-1
 714 948 l 2,70,71
 714 1111 714 1111 737.5 1198.5 c 128,-1,72
 761 1286 761 1286 822 1286 c 24,73,74
 944 1286 944 1286 944 1199 c 0,75,76
 944 1168 944 1168 935 882 c 1,77,-1
 1002 882 l 2,78,79
 1063 882 1063 882 1103.5 872 c 128,-1,80
 1144 862 1144 862 1159 831 c 128,-1,81
 1174 800 1174 800 1174 782 c 0,82,83
 1174 722 1174 722 1080 722 c 1,84,-1
 930 710 l 1,85,86
 925 580 925 580 919 449 c 1,87,88
 936 445 936 445 974 440 c 0,89,90
 1062 428 1062 428 1062 346 c 0,91,92
 1062 298 1062 298 1040 284 c 128,-1,93
 1018 270 1018 270 970 270 c 1,94,-1
 914 268 l 1,95,96
 914 266 914 266 914 260.5 c 128,-1,97
 914 255 914 255 909 194 c 1,98,-1
 899 30 l 1,99,100
 894 -34 894 -34 855 -34 c 0,101,102
 814 -34 814 -34 735 39 c 8,15,16
EndSplineSet
Validated: 1
EndChar

StartChar: dollar
Encoding: 36 36 4
Width: 1232
VWidth: 1894
Flags: W
HStem: -92 322<124.303 241.112>
VStem: 188 331<805.336 1121.35> 459 187<-175.506 -21.0045> 589.5 186.5<1307.41 1429.64> 606 168<330.814 628.69 820 1033.54> 955 217<215.641 601.158>
LayerCount: 2
Fore
SplineSet
646 -64 m 1,0,1
 630 -203 630 -203 552 -208 c 1,2,3
 506 -208 506 -208 485 -176.5 c 128,-1,4
 464 -145 464 -145 459 -76 c 128,-1,5
 454 -7 454 -7 442 11.5 c 128,-1,6
 430 30 430 30 371 48 c 2,7,-1
 299 69 l 1,8,9
 294 57 294 57 286 19.5 c 128,-1,10
 278 -18 278 -18 233 -55 c 128,-1,11
 188 -92 188 -92 156 -92 c 0,12,13
 66 -92 66 -92 66 -22 c 0,14,15
 66 6 66 6 83 30 c 128,-1,16
 100 54 100 54 100 86 c 1,17,-1
 98 108 l 1,18,-1
 98 113 l 2,19,20
 98 166 98 166 123.5 198 c 128,-1,21
 149 230 149 230 198 230 c 2,22,-1
 199 230 l 1,23,-1
 407 202 l 1,24,25
 408 210 408 210 408 220 c 1,26,-1
 382 659 l 1,27,-1
 344 680 l 2,28,29
 300 704 300 704 261 748 c 128,-1,30
 222 792 222 792 205 830 c 128,-1,31
 188 868 188 868 188 947 c 128,-1,32
 188 1026 188 1026 211 1079 c 128,-1,33
 234 1132 234 1132 275 1179 c 128,-1,34
 316 1226 316 1226 332 1261 c 1,35,36
 331 1272 331 1272 331 1282 c 0,37,38
 331 1390 331 1390 386 1457 c 1,39,40
 401 1474 401 1474 425.5 1474 c 128,-1,41
 450 1474 450 1474 469 1441 c 1,42,-1
 517 1317 l 1,43,44
 524 1308 524 1308 543 1304 c 1,45,-1
 575 1307 l 1,46,47
 581 1320 581 1320 589.5 1361.5 c 128,-1,48
 598 1403 598 1403 617 1430.5 c 128,-1,49
 636 1458 636 1458 676.5 1458 c 128,-1,50
 717 1458 717 1458 746.5 1431 c 128,-1,51
 776 1404 776 1404 776 1363 c 2,52,-1
 776 1234 l 1,53,54
 825 1212 825 1212 870 1190 c 1,55,-1
 906 1207 l 1,56,57
 956 1232 956 1232 989 1232 c 0,58,59
 990 1232 990 1232 992 1232 c 2,60,-1
 993 1232 l 1,61,-1
 994 1232 l 2,62,63
 1036 1230 1036 1230 1052 1197 c 1,64,-1
 1060 1164 l 1,65,-1
 1060 1149 l 1,66,-1
 1025 1079 l 1,67,68
 997 1031 997 1031 957.5 992.5 c 128,-1,69
 918 954 918 954 883.5 954 c 128,-1,70
 849 954 849 954 822 987.5 c 128,-1,71
 795 1021 795 1021 783 1034 c 1,72,73
 772 1020 772 1020 772 914 c 2,74,-1
 772 820 l 1,75,-1
 804 816 l 1,76,77
 904 802 904 802 953 780 c 128,-1,78
 1002 758 1002 758 1055 702 c 0,79,80
 1172 578 1172 578 1172 422 c 0,81,82
 1172 338 1172 338 1138 244 c 128,-1,83
 1104 150 1104 150 1057 97 c 128,-1,84
 1010 44 1010 44 984 32 c 128,-1,85
 958 20 958 20 903 12 c 128,-1,86
 848 4 848 4 837.5 -1 c 128,-1,87
 827 -6 827 -6 816.5 -28 c 128,-1,88
 806 -50 806 -50 789 -61 c 128,-1,89
 772 -72 772 -72 728.5 -72 c 128,-1,90
 685 -72 685 -72 661 -40 c 0,91,92
 652 -28 652 -28 645 -21 c 1,93,-1
 646 -61 l 1,94,-1
 646 -64 l 1,0,1
534 1180 m 1,95,96
 531 1177 531 1177 525 1165.5 c 128,-1,97
 519 1154 519 1154 519 1013 c 128,-1,98
 519 872 519 872 530 843 c 128,-1,99
 541 814 541 814 546 806 c 1,100,101
 552 804 552 804 570.5 804 c 128,-1,102
 589 804 589 804 596 810 c 1,103,104
 606 835 606 835 608 984 c 2,105,-1
 610 1145 l 1,106,-1
 534 1180 l 1,95,96
932 610 m 1,107,108
 884 654 884 654 856 654 c 0,109,110
 788 654 788 654 780 648 c 1,111,112
 774 629 774 629 774 501 c 128,-1,113
 774 373 774 373 784 259.5 c 128,-1,114
 794 146 794 146 802 128 c 1,115,116
 808 124 808 124 816.5 124 c 128,-1,117
 825 124 825 124 858.5 139 c 128,-1,118
 892 154 892 154 915 173 c 1,119,120
 955 312 955 312 955 419 c 128,-1,121
 955 526 955 526 932 610 c 1,107,108
606 630 m 1,122,-1
 588 630 l 2,123,124
 564 630 564 630 557.5 625 c 128,-1,125
 551 620 551 620 550 609 c 1,126,-1
 591 166 l 1,127,128
 599 129 599 129 628 101 c 1,129,130
 629 113 629 113 629 131 c 0,131,132
 629 140 629 140 629 150 c 1,133,-1
 606 630 l 1,122,-1
EndSplineSet
Validated: 1
EndChar

StartChar: percent
Encoding: 37 37 5
Width: 1302
VWidth: 1894
Flags: W
HStem: -16 168<932.022 1055.2> 460 162<988.038 1083.1> 712 152<235.026 369.806> 1242 150<269.091 387.141>
VStem: 64 156<882.055 1189.02> 416 182<922.446 1237.17> 739 183<156.562 389.545> 1094 150<188.589 459.776>
LayerCount: 2
Fore
SplineSet
1032 170 m 4,0,1
 1094 224 1094 224 1094 358 c 4,2,3
 1094 392 1094 392 1079 426 c 132,-1,4
 1064 460 1064 460 1047 460 c 132,-1,5
 1030 460 1030 460 989.5 417 c 132,-1,6
 949 374 949 374 943.5 342 c 132,-1,7
 938 310 938 310 931.5 284 c 132,-1,8
 925 258 925 258 922 239 c 5,9,-1
 922 226 l 6,10,11
 922 212 922 212 940 182 c 132,-1,12
 958 152 958 152 985 152 c 132,-1,13
 1012 152 1012 152 1032 170 c 4,0,1
1028 622 m 4,14,15
 1144 622 1144 622 1210 512 c 4,16,17
 1230 480 1230 480 1237 449 c 132,-1,18
 1244 418 1244 418 1244 342 c 132,-1,19
 1244 266 1244 266 1238 234 c 4,20,21
 1223 149 1223 149 1130 57 c 4,22,23
 1078 5 1078 5 1045 -5.5 c 132,-1,24
 1012 -16 1012 -16 978 -16 c 132,-1,25
 944 -16 944 -16 891 3 c 4,26,27
 787 40 787 40 755 205 c 4,28,29
 739 290 739 290 739 358 c 132,-1,30
 739 426 739 426 783.5 488 c 132,-1,31
 828 550 828 550 874 559 c 132,-1,32
 920 568 920 568 954.5 595 c 132,-1,33
 989 622 989 622 1028 622 c 4,14,15
372.5 1238 m 128,-1,35
 365 1242 365 1242 333.5 1242 c 128,-1,36
 302 1242 302 1242 296 1239 c 0,37,38
 264 1222 264 1222 242 1098 c 128,-1,39
 220 974 220 974 220 952 c 0,40,41
 220 908 220 908 267 880 c 0,42,43
 294 864 294 864 311 864 c 128,-1,44
 328 864 328 864 360 897.5 c 128,-1,45
 392 931 392 931 404 974.5 c 128,-1,46
 416 1018 416 1018 416 1101.5 c 128,-1,47
 416 1185 416 1185 398 1209.5 c 128,-1,34
 380 1234 380 1234 372.5 1238 c 128,-1,35
64 916 m 0,48,49
 64 1158 64 1158 114 1270 c 1,50,51
 164 1392 164 1392 310 1392 c 128,-1,52
 456 1392 456 1392 502 1337.5 c 128,-1,53
 548 1283 548 1283 573 1202.5 c 128,-1,54
 598 1122 598 1122 598 1077 c 128,-1,55
 598 1032 598 1032 553 922 c 0,56,57
 467 712 467 712 322 712 c 0,58,59
 260 712 260 712 182 751 c 128,-1,60
 104 790 104 790 84 830 c 128,-1,61
 64 870 64 870 64 916 c 0,48,49
1175 1308 m 16,62,63
 1197 1294 1197 1294 1197 1279 c 0,64,65
 1197 1272 1197 1272 1192 1265 c 0,66,67
 322 -100 322 -100 274 -111 c 0,68,69
 219 -124 219 -124 182 -124 c 0,70,71
 131 -124 131 -124 111 -100 c 8,72,73
 96 -81 96 -81 96 -50 c 2,74,-1
 96 -40 l 2,75,76
 96 22 96 22 221 232 c 128,-1,77
 346 442 346 442 452 580 c 128,-1,78
 558 718 558 718 599.5 783 c 128,-1,79
 641 848 641 848 679.5 904 c 128,-1,80
 718 960 718 960 812 1126 c 128,-1,81
 906 1292 906 1292 936 1334 c 0,82,83
 968 1376 968 1376 998 1395 c 0,84,85
 1017 1407 1017 1407 1029 1407 c 0,86,87
 1037 1407 1037 1407 1042 1402 c 0,88,89
 1077 1372 1077 1372 1175 1308 c 16,62,63
EndSplineSet
Validated: 1
EndChar

StartChar: ampersand
Encoding: 38 38 6
Width: 1208
VWidth: 1894
Flags: W
HStem: -74 162<313.22 471.604> 90 146<834.846 1162.7> 442 119<973.069 1101.82> 1210 174<494.447 595.684>
VStem: 38 230<130.616 461.215> 264 216<860.628 1181.75> 612 144<950.746 1119>
LayerCount: 2
Fore
SplineSet
1106 244 m 1,0,1
 1166 244 1166 244 1166 157 c 0,2,3
 1166 104 1166 104 1127 97 c 128,-1,4
 1088 90 1088 90 963 90 c 128,-1,5
 838 90 838 90 762 130 c 1,6,-1
 732 144 l 1,7,-1
 696 106 l 1,8,9
 606 22 606 22 513 -26 c 128,-1,10
 420 -74 420 -74 367 -74 c 128,-1,11
 314 -74 314 -74 233 -47 c 128,-1,12
 152 -20 152 -20 112 9 c 128,-1,13
 72 38 72 38 55 123 c 128,-1,14
 38 208 38 208 38 258 c 0,15,16
 38 468 38 468 218 654 c 1,17,-1
 292 728 l 1,18,-1
 278 782 l 1,19,-1
 264 978 l 1,20,21
 264 1125 264 1125 353 1266 c 0,22,23
 396 1335 396 1335 435 1359.5 c 128,-1,24
 474 1384 474 1384 516 1384 c 128,-1,25
 558 1384 558 1384 646 1331 c 128,-1,26
 734 1278 734 1278 752 1190 c 1,27,-1
 756 1036 l 1,28,29
 756 962 756 962 720 884 c 0,30,31
 657 747 657 747 584 704 c 0,32,33
 565 693 565 693 555 687 c 1,34,35
 610 525 610 525 704 384 c 1,36,37
 731 409 731 409 797.5 473.5 c 128,-1,38
 864 538 864 538 901 552 c 128,-1,39
 938 566 938 566 972 566 c 128,-1,40
 1006 566 1006 566 1065 561 c 128,-1,41
 1124 556 1124 556 1124 514 c 128,-1,42
 1124 472 1124 472 1102.5 463 c 128,-1,43
 1081 454 1081 454 1025.5 442 c 128,-1,44
 970 430 970 430 903.5 360 c 128,-1,45
 837 290 837 290 834.5 279 c 128,-1,46
 832 268 832 268 833 265 c 1,47,48
 850 256 850 256 916 249 c 128,-1,49
 982 242 982 242 993.5 239 c 128,-1,50
 1005 236 1005 236 1018 236 c 1,51,-1
 1106 244 l 1,0,1
511 856 m 1,52,53
 606 988 606 988 612 1119 c 1,54,-1
 598 1161 l 1,55,56
 576 1210 576 1210 526 1210 c 0,57,58
 517 1210 517 1210 507.5 1204 c 128,-1,59
 498 1198 498 1198 480 1166 c 1,60,61
 482 1004 482 1004 511 856 c 1,52,53
586 217 m 1,62,63
 571 240 571 240 518.5 309 c 128,-1,64
 466 378 466 378 417.5 461 c 128,-1,65
 369 544 369 544 351 565 c 1,66,67
 340 557 340 557 322 538 c 1,68,69
 268 425 268 425 268 313 c 128,-1,70
 268 201 268 201 336 88 c 1,71,72
 392 90 392 90 431 109 c 128,-1,73
 470 128 470 128 520 165 c 128,-1,74
 570 202 570 202 586 217 c 1,62,63
EndSplineSet
Validated: 1
EndChar

StartChar: parenleft
Encoding: 40 40 7
Width: 454
VWidth: 1894
Flags: W
VStem: 42 250<181.199 839.811>
LayerCount: 2
Fore
SplineSet
456 1542 m 2,0,1
 542 1542 542 1542 542 1465 c 0,2,3
 542 1428 542 1428 486.5 1361.5 c 128,-1,4
 431 1295 431 1295 400 1245 c 1,5,6
 292 898 292 898 292 587.5 c 128,-1,7
 292 277 292 277 377 -2 c 1,8,9
 446 -82 446 -82 495 -127 c 128,-1,10
 544 -172 544 -172 567 -195 c 128,-1,11
 590 -218 590 -218 590 -253 c 128,-1,12
 590 -288 590 -288 565 -295 c 0,13,14
 510 -310 510 -310 472 -310 c 0,15,16
 410 -310 410 -310 406 -277 c 1,17,18
 400 -266 400 -266 364 -231 c 128,-1,19
 328 -196 328 -196 279 -134 c 128,-1,20
 230 -72 230 -72 193 -30 c 128,-1,21
 156 12 156 12 112 110 c 0,22,23
 42 266 42 266 42 532 c 0,24,25
 42 644 42 644 66 756 c 0,26,27
 135 1074 135 1074 265 1318 c 0,28,29
 344 1466 344 1466 376 1503 c 128,-1,30
 408 1540 408 1540 454 1542 c 2,31,-1
 455 1542 l 1,32,-1
 456 1542 l 2,0,1
EndSplineSet
Validated: 1
EndChar

StartChar: parenright
Encoding: 41 41 8
Width: 426
VWidth: 1894
Flags: W
VStem: 143 245<415.573 931>
LayerCount: 2
Fore
SplineSet
-82 1532 m 1,0,1
 -82 1532 -82 1532 -23 1543 c 1,2,-1
 31 1539 l 1,3,-1
 69 1500 l 1,4,5
 75 1490 75 1490 109 1452 c 0,6,7
 143 1413 143 1413 188 1349 c 0,8,9
 235 1282 235 1282 269 1240 c 0,10,11
 302 1199 302 1199 342 1096 c 0,12,13
 380 998 380 998 384 931 c 2,14,-1
 392 812 l 1,15,-1
 388 659 l 1,16,17
 384 556 384 556 353 447 c 128,-1,18
 322 338 322 338 266 190 c 128,-1,19
 210 42 210 42 123 -101 c 128,-1,20
 36 -244 36 -244 6 -278 c 0,21,22
 -23 -311 -23 -311 -52 -312 c 1,23,-1
 -78 -314 l 1,24,-1
 -79 -314 l 1,25,26
 -162 -308 -162 -308 -164 -249 c 1,27,-1
 -164 -246 l 2,28,29
 -164 -198 -164 -198 -88 -119 c 0,30,31
 -12 -39 -12 -39 53 68 c 1,32,33
 143 379 143 379 143 674 c 0,34,35
 143 970 143 970 57 1252 c 1,36,37
 1 1322 1 1322 -57 1383 c 0,38,39
 -114 1443 -114 1443 -114 1476 c 2,40,-1
 -114 1480 l 1,41,42
 -110 1527 -110 1527 -82 1532 c 1,0,1
EndSplineSet
Validated: 1
EndChar

StartChar: asterisk
Encoding: 42 42 9
Width: 986
VWidth: 1894
Flags: W
HStem: 488 207<135.241 257.844> 490 226<147.625 258> 548 182<728.474 841.183> 868 20G<256.5 324.5>
VStem: 421 135<828.909 962.115>
LayerCount: 2
Fore
SplineSet
524 269 m 1,0,1
 520 270 520 270 518 270 c 2,2,-1
 517 270 l 1,3,4
 466 280 466 280 447 395 c 1,5,6
 380 308 380 308 324 308 c 0,7,8
 310 308 310 308 298 314 c 0,9,10
 240 340 240 340 240 395 c 128,-1,11
 240 450 240 450 269 478 c 0,12,13
 277 485 277 485 282 490 c 1,14,-1
 198 488 l 1,15,16
 172 492 172 492 146 519 c 128,-1,17
 120 546 120 546 120 586 c 128,-1,18
 120 626 120 626 131 650 c 128,-1,19
 142 674 142 674 184 695 c 128,-1,20
 226 716 226 716 248 716 c 2,21,-1
 258 716 l 1,22,23
 250 728 250 728 231 754 c 128,-1,24
 212 780 212 780 212 814 c 0,25,26
 212 888 212 888 301 888 c 0,27,28
 348 888 348 888 396 824 c 0,29,30
 411 803 411 803 423 787 c 1,31,32
 421 806 421 806 421 833 c 0,33,34
 421 969 421 969 495 970 c 0,35,36
 543 970 543 970 556 897 c 0,37,38
 563 857 563 857 568 828 c 1,39,40
 657 948 657 948 720 948 c 0,41,42
 732 948 732 948 739.5 942.5 c 128,-1,43
 747 937 747 937 752 933.5 c 128,-1,44
 757 930 757 930 774.5 917 c 128,-1,45
 792 904 792 904 792 864 c 2,46,-1
 792 860 l 2,47,48
 792 824 792 824 765 788.5 c 128,-1,49
 738 753 738 753 728 737 c 1,50,51
 743 734 743 734 780.5 730 c 128,-1,52
 818 726 818 726 843 707 c 128,-1,53
 868 688 868 688 868 638 c 128,-1,54
 868 588 868 588 842 570 c 128,-1,55
 816 552 816 552 773 548 c 0,56,57
 722 543 722 543 721 538.5 c 128,-1,58
 720 534 720 534 720 532 c 128,-1,59
 720 530 720 530 722 527 c 0,60,61
 729 517 729 517 752 505 c 0,62,63
 796 482 796 482 796 434 c 0,64,65
 796 353 796 353 725 348 c 1,66,-1
 724 348 l 2,67,68
 678 348 678 348 624 401 c 0,69,70
 604 421 604 421 589 435 c 1,71,72
 590 425 590 425 590 403 c 128,-1,73
 590 381 590 381 579 325 c 128,-1,74
 568 269 568 269 526 269 c 2,75,-1
 524 269 l 1,0,1
EndSplineSet
Validated: 1
EndChar

StartChar: plus
Encoding: 43 43 10
Width: 1020
VWidth: 1894
Flags: W
HStem: 528 174<186.188 394> 550 156<592.531 876.154>
VStem: 400 172<711.609 962.548> 420 176<285.319 524.645>
LayerCount: 2
Fore
SplineSet
812 542 m 1,0,-1
 696 550 l 1,1,2
 656 550 656 550 626 542 c 1,3,-1
 592 531 l 1,4,-1
 596 380 l 1,5,6
 594 242 594 242 512 242 c 0,7,8
 458 242 458 242 439 284 c 128,-1,9
 420 326 420 326 420 395 c 0,10,11
 420 483 420 483 397 526 c 1,12,-1
 356 528 l 1,13,14
 310 524 310 524 261 513 c 1,15,-1
 185 502 l 1,16,-1
 134 528 l 1,17,-1
 116 572 l 1,18,-1
 116 578 l 2,19,20
 116 624 116 624 172 659 c 128,-1,21
 228 694 228 694 326 702 c 1,22,-1
 394 705 l 1,23,-1
 400 801 l 1,24,-1
 400 812 l 2,25,26
 400 918 400 918 430 964 c 0,27,28
 447 990 447 990 484.5 990 c 128,-1,29
 522 990 522 990 543 977 c 128,-1,30
 564 964 564 964 568 930.5 c 128,-1,31
 572 897 572 897 572 813.5 c 128,-1,32
 572 730 572 730 579 711 c 1,33,34
 586 706 586 706 603 706 c 1,35,-1
 763 720 l 1,36,-1
 764 720 l 1,37,38
 904 720 904 720 904 628 c 2,39,-1
 904 626 l 2,40,41
 904 570 904 570 877 556 c 128,-1,42
 850 542 850 542 812 542 c 1,0,-1
EndSplineSet
Validated: 1
EndChar

StartChar: comma
Encoding: 44 44 11
Width: 571
VWidth: 1894
Flags: W
HStem: -170 366<222.25 245>
VStem: 161 248<-10.2035 164.034>
LayerCount: 2
Fore
SplineSet
224 -170 m 2,0,1
 197 -170 197 -170 179 -156.5 c 128,-1,2
 161 -143 161 -143 161 -123.5 c 128,-1,3
 161 -104 161 -104 170 -91.5 c 128,-1,4
 179 -79 179 -79 196.5 -58 c 128,-1,5
 214 -37 214 -37 221 -27 c 1,6,7
 214 -18 214 -18 195 -0 c 0,8,9
 161 35 161 35 161 78 c 0,10,11
 161 155 161 155 241 187 c 0,12,13
 261 196 261 196 282 196 c 0,14,15
 324 196 324 196 369 161 c 0,16,17
 409 129 409 129 409 87 c 128,-1,18
 409 45 409 45 403 16 c 128,-1,19
 397 -13 397 -13 345.5 -83.5 c 128,-1,20
 294 -154 294 -154 245 -166 c 1,21,-1
 245 -170 l 1,22,-1
 224 -170 l 2,0,1
EndSplineSet
Validated: 1
EndChar

StartChar: hyphen
Encoding: 45 45 12
Width: 1020
VWidth: 1894
Flags: W
HStem: 550 170<414.954 876.154>
LayerCount: 2
Fore
SplineSet
626 542 m 1,0,-1
 356 528 l 1,1,2
 310 524 310 524 261 513 c 1,3,-1
 185 502 l 1,4,-1
 134 528 l 1,5,-1
 116 572 l 1,6,-1
 116 578 l 2,7,8
 116 624 116 624 172 659 c 128,-1,9
 228 694 228 694 326 702 c 1,10,-1
 763 720 l 1,11,-1
 764 720 l 1,12,13
 904 720 904 720 904 628 c 2,14,-1
 904 626 l 2,15,16
 904 570 904 570 877 556 c 128,-1,17
 850 542 850 542 812 542 c 1,18,-1
 696 550 l 1,19,20
 656 550 656 550 626 542 c 1,0,-1
EndSplineSet
Validated: 1
EndChar

StartChar: period
Encoding: 46 46 13
Width: 571
VWidth: 1894
Flags: W
HStem: -36 260<198.284 366.377>
VStem: 152 266<3.30566 177.863>
LayerCount: 2
Fore
SplineSet
367 216 m 0,0,1
 418 194 418 194 418 130 c 0,2,3
 418 129 418 129 418 128 c 0,4,5
 417 62 417 62 392 26 c 128,-1,6
 367 -10 367 -10 335 -23 c 128,-1,7
 303 -36 303 -36 289 -36 c 0,8,9
 239 -36 239 -36 195.5 1 c 128,-1,10
 152 38 152 38 152 68 c 128,-1,11
 152 98 152 98 173 140 c 128,-1,12
 194 182 194 182 218 197 c 128,-1,13
 242 212 242 212 267 215.5 c 128,-1,14
 292 219 292 219 308 221.5 c 128,-1,15
 324 224 324 224 335.5 224 c 128,-1,16
 347 224 347 224 367 216 c 0,0,1
EndSplineSet
Validated: 1
EndChar

StartChar: slash
Encoding: 47 47 14
Width: 742
VWidth: 1894
Flags: W
LayerCount: 2
Fore
SplineSet
884 1400 m 1,0,1
 895 1387 895 1387 887 1369 c 0,2,3
 552 575 552 575 104 -179 c 0,4,5
 91 -201 91 -201 64 -188 c 1,6,-1
 -28 -168 l 2,7,8
 -64 -160 -64 -160 -77 -144.5 c 128,-1,9
 -90 -129 -90 -129 -90 -98 c 2,10,-1
 -90 -90 l 2,11,12
 -90 -64 -90 -64 -63 -11.5 c 128,-1,13
 -36 41 -36 41 87 291.5 c 128,-1,14
 210 542 210 542 391 881 c 128,-1,15
 572 1220 572 1220 604 1307 c 0,16,17
 673 1495 673 1495 752 1504 c 1,18,-1
 758 1504 l 2,19,20
 780 1504 780 1504 884 1400 c 1,0,1
EndSplineSet
Validated: 1
EndChar

StartChar: zero
Encoding: 48 48 15
Width: 1114
VWidth: 1894
Flags: W
HStem: -60 160<397.417 774.224> 1280 136<566.974 708.93>
VStem: 64 220<282.357 723.408> 543 203<767.438 926.648> 867 185<326.675 959.734>
LayerCount: 2
Fore
SplineSet
64 448 m 2,0,1
 64 488 64 488 99 673.5 c 128,-1,2
 134 859 134 859 141 930 c 128,-1,3
 148 1001 148 1001 180 1057.5 c 128,-1,4
 212 1114 212 1114 255.5 1216.5 c 128,-1,5
 299 1319 299 1319 359 1353 c 1,6,7
 420 1386 420 1386 468 1386 c 128,-1,8
 516 1386 516 1386 564 1401 c 128,-1,9
 612 1416 612 1416 662.5 1416 c 128,-1,10
 713 1416 713 1416 751.5 1391 c 128,-1,11
 790 1366 790 1366 840 1295 c 128,-1,12
 890 1224 890 1224 901 1191.5 c 128,-1,13
 912 1159 912 1159 934 1127 c 1,14,15
 1006 1029 1006 1029 1029 847.5 c 128,-1,16
 1052 666 1052 666 1052 560 c 0,17,18
 1052 361 1052 361 982 174 c 0,19,20
 950 88 950 88 897 38 c 128,-1,21
 844 -12 844 -12 738 -36 c 128,-1,22
 632 -60 632 -60 564 -60 c 0,23,24
 328 -60 328 -60 223 31.5 c 128,-1,25
 118 123 118 123 91 226.5 c 128,-1,26
 64 330 64 330 64 370 c 2,27,-1
 64 448 l 2,0,1
731 1209 m 1,28,29
 702 1246 702 1246 684 1263 c 128,-1,30
 666 1280 666 1280 639 1280 c 128,-1,31
 612 1280 612 1280 597 1265.5 c 128,-1,32
 582 1251 582 1251 576 1246 c 1,33,34
 284 897 284 897 284 552 c 0,35,36
 284 329 284 329 405 108 c 1,37,38
 457 100 457 100 586.5 100 c 128,-1,39
 716 100 716 100 737.5 109.5 c 128,-1,40
 759 119 759 119 773 128 c 1,41,42
 867 451 867 451 867 728.5 c 128,-1,43
 867 1006 867 1006 731 1209 c 1,28,29
543 850 m 0,44,45
 602 980 602 980 672 980 c 0,46,47
 709 980 709 980 727.5 958.5 c 128,-1,48
 746 937 746 937 746 909.5 c 128,-1,49
 746 882 746 882 736 851 c 128,-1,50
 726 820 726 820 647.5 638.5 c 128,-1,51
 569 457 569 457 538.5 386.5 c 128,-1,52
 508 316 508 316 485 287 c 128,-1,53
 462 258 462 258 426 258 c 128,-1,54
 390 258 390 258 377 270 c 128,-1,55
 364 282 364 282 364 316 c 128,-1,56
 364 350 364 350 438.5 567 c 128,-1,57
 513 784 513 784 543 850 c 0,44,45
347 1038 m 2,58,59
 347 1038 347 1038 343 1032 c 2,60,61
 346 1035 346 1035 347 1038 c 2,58,59
EndSplineSet
Validated: 1
EndChar

StartChar: one
Encoding: 49 49 16
Width: 704
VWidth: 1894
Flags: W
HStem: 1366 20G<569 591>
VStem: 380 233<174 938>
LayerCount: 2
Fore
SplineSet
66 580 m 1,0,1
 70 612 70 612 99 698 c 128,-1,2
 128 784 128 784 371 1299 c 0,3,4
 400 1360 400 1360 422 1389 c 128,-1,5
 444 1418 444 1418 495.5 1418 c 128,-1,6
 547 1418 547 1418 557 1383 c 1,7,8
 564 1386 564 1386 574 1386 c 0,9,10
 608 1386 608 1386 608 1362 c 0,11,12
 613 1044 613 1044 613 747 c 128,-1,13
 613 450 613 450 609 174 c 1,14,-1
 660 168 l 1,15,-1
 656 98 l 1,16,17
 652 34 652 34 632 20 c 128,-1,18
 612 6 612 6 594 6 c 128,-1,19
 576 6 576 6 544 19 c 128,-1,20
 512 32 512 32 501.5 32 c 128,-1,21
 491 32 491 32 446 15 c 128,-1,22
 401 -2 401 -2 332 -2 c 2,23,-1
 318 -2 l 2,24,25
 253 -2 253 -2 230.5 18.5 c 128,-1,26
 208 39 208 39 208 74 c 2,27,-1
 208 76 l 2,28,29
 208 112 208 112 228 127 c 128,-1,30
 248 142 248 142 304.5 153.5 c 128,-1,31
 361 165 361 165 379 170 c 1,32,33
 388 202 388 202 388 317 c 128,-1,34
 388 432 388 432 382 451 c 1,35,-1
 376 578 l 1,36,-1
 380 911 l 2,37,38
 380 926 380 926 380 938 c 1,39,40
 337 826 337 826 314 767 c 128,-1,41
 291 708 291 708 262 630.5 c 128,-1,42
 233 553 233 553 207 525 c 0,43,44
 176 492 176 492 138 492 c 0,45,46
 62 492 62 492 62 578 c 1,47,-1
 66 580 l 1,0,1
EndSplineSet
Validated: 1
EndChar

StartChar: two
Encoding: 50 50 17
Width: 1112
VWidth: 1894
Flags: W
HStem: -68 188<633.97 790.151> 104 152<401 513.473>
VStem: 666 246<793.978 1214.08>
LayerCount: 2
Fore
SplineSet
372 104 m 2,0,1
 345 104 345 104 328.5 93 c 128,-1,2
 312 82 312 82 242 7 c 128,-1,3
 172 -68 172 -68 127 -68 c 128,-1,4
 82 -68 82 -68 60 2 c 1,5,-1
 60 30 l 2,6,7
 60 50 60 50 81 125.5 c 128,-1,8
 102 201 102 201 123 230.5 c 128,-1,9
 144 260 144 260 160 305.5 c 128,-1,10
 176 351 176 351 249.5 419 c 128,-1,11
 323 487 323 487 416 534 c 0,12,13
 514 584 514 584 552 614 c 1,14,15
 666 809 666 809 666 993 c 0,16,17
 666 1106 666 1106 624 1217 c 1,18,-1
 537 1227 l 1,19,20
 453 1227 453 1227 401 1185.5 c 128,-1,21
 349 1144 349 1144 337.5 1096 c 128,-1,22
 326 1048 326 1048 321 991 c 128,-1,23
 316 934 316 934 311 897 c 1,24,-1
 298 843 l 1,25,-1
 254 803 l 1,26,-1
 172 843 l 1,27,28
 110 875 110 875 100 898 c 128,-1,29
 90 921 90 921 90 939.5 c 128,-1,30
 90 958 90 958 105 981 c 128,-1,31
 120 1004 120 1004 139 1062 c 128,-1,32
 158 1120 158 1120 203 1195 c 128,-1,33
 248 1270 248 1270 282 1301 c 1,34,35
 317 1331 317 1331 377.5 1360.5 c 128,-1,36
 438 1390 438 1390 470 1390 c 0,37,38
 550 1390 550 1390 635 1373 c 128,-1,39
 720 1356 720 1356 761 1338 c 1,40,41
 870 1286 870 1286 900 1106 c 1,42,43
 912 1044 912 1044 912 1012 c 128,-1,44
 912 980 912 980 891 884 c 128,-1,45
 870 788 870 788 848 747.5 c 128,-1,46
 826 707 826 707 824.5 700 c 128,-1,47
 823 693 823 693 820 687 c 0,48,49
 721 389 721 389 401 256 c 1,50,51
 412 256 412 256 425 256 c 0,52,53
 492 256 492 256 595 188 c 128,-1,54
 698 120 698 120 731 120 c 0,55,56
 774 120 774 120 814 210 c 1,57,58
 858 314 858 314 940 314 c 0,59,60
 964 314 964 314 996 295 c 128,-1,61
 1028 276 1028 276 1039 228 c 128,-1,62
 1050 180 1050 180 1050 159 c 0,63,64
 1050 95 1050 95 1029 82.5 c 128,-1,65
 1008 70 1008 70 979.5 70 c 128,-1,66
 951 70 951 70 938.5 59 c 128,-1,67
 926 48 926 48 856 -36 c 0,68,69
 828 -68 828 -68 785 -68 c 0,70,71
 672 -68 672 -68 534 45 c 0,72,73
 462 104 462 104 376 104 c 2,74,-1
 372 104 l 2,0,1
EndSplineSet
Validated: 1
EndChar

StartChar: three
Encoding: 51 51 18
Width: 1032
VWidth: 1894
Flags: W
HStem: 876 21G<253.897 319.5>
VStem: 56 188<153.496 304.118> 611 223<932.725 1258.38> 719 247<212.16 586.885>
LayerCount: 2
Fore
SplineSet
504 -62 m 2,0,-1
 501 -62 l 1,1,-1
 484 -60 l 1,2,3
 345 -60 345 -60 295.5 -27.5 c 128,-1,4
 246 5 246 5 152 52 c 128,-1,5
 58 99 58 99 56 152 c 1,6,-1
 68 222 l 1,7,8
 81 277 81 277 98.5 305 c 128,-1,9
 116 333 116 333 160.5 333 c 128,-1,10
 205 333 205 333 224.5 310.5 c 128,-1,11
 244 288 244 288 244 240 c 128,-1,12
 244 192 244 192 293.5 149.5 c 128,-1,13
 343 107 343 107 416 97 c 2,14,-1
 524 82 l 1,15,-1
 583 88 l 1,16,17
 601 93 601 93 629 112 c 1,18,19
 719 282 719 282 719 446 c 0,20,21
 719 558 719 558 678 666 c 1,22,-1
 647 672 l 1,23,24
 632 667 632 667 591.5 646 c 128,-1,25
 551 625 551 625 514.5 625 c 128,-1,26
 478 625 478 625 454.5 644.5 c 128,-1,27
 431 664 431 664 431 694.5 c 128,-1,28
 431 725 431 725 457.5 759 c 128,-1,29
 484 793 484 793 488 796 c 0,30,31
 611 943 611 943 611 1086 c 0,32,33
 611 1174 611 1174 565 1262 c 1,34,35
 536 1257 536 1257 489.5 1236.5 c 128,-1,36
 443 1216 443 1216 420 1190 c 128,-1,37
 397 1164 397 1164 370 1099 c 1,38,-1
 341 1010 l 1,39,40
 342 995 342 995 352 972 c 1,41,-1
 364 924 l 1,42,-1
 351 891 l 1,43,-1
 347 891 l 1,44,45
 331 876 331 876 308 876 c 2,46,-1
 298 876 l 1,47,-1
 212 915 l 1,48,49
 146 951 146 951 121 973 c 128,-1,50
 96 995 96 995 96 1032 c 128,-1,51
 96 1069 96 1069 106 1084 c 128,-1,52
 116 1099 116 1099 143 1108.5 c 128,-1,53
 170 1118 170 1118 206 1190 c 128,-1,54
 242 1262 242 1262 292.5 1307 c 128,-1,55
 343 1352 343 1352 428.5 1383 c 128,-1,56
 514 1414 514 1414 566 1414 c 0,57,58
 706 1414 706 1414 770 1338.5 c 128,-1,59
 834 1263 834 1263 834 1141 c 128,-1,60
 834 1019 834 1019 789 932.5 c 128,-1,61
 744 846 744 846 733 820 c 1,62,63
 748 810 748 810 795 788 c 0,64,65
 890 743 890 743 941 512 c 0,66,67
 966 400 966 400 966 370 c 128,-1,68
 966 340 966 340 962 310 c 128,-1,69
 958 280 958 280 910 187 c 0,70,71
 808 -9 808 -9 667 -50 c 0,72,73
 624 -62 624 -62 504 -62 c 2,0,-1
EndSplineSet
Validated: 1
EndChar

StartChar: four
Encoding: 52 52 19
Width: 852
VWidth: 1894
Flags: W
HStem: 366 147<358.051 501.968> 1368 20G<367.5 416.5>
VStem: 263 243<1073.18 1347.07> 281 225<1073.18 1354.87>
LayerCount: 2
Fore
SplineSet
754 507 m 1,0,1
 792 463 792 463 792 435 c 2,2,-1
 792 434 l 2,3,4
 792 402 792 402 769.5 390.5 c 128,-1,5
 747 379 747 379 739 375 c 1,6,7
 724 258 724 258 707 142 c 1,8,9
 721 127 721 127 731 107 c 1,10,-1
 743 69 l 1,11,-1
 743 65 l 1,12,13
 734 2 734 2 620.5 2 c 128,-1,14
 507 2 507 2 458.5 7.5 c 128,-1,15
 410 13 410 13 389 36 c 1,16,17
 378 60 378 60 377.5 72 c 128,-1,18
 377 84 377 84 390 105 c 0,19,20
 412 144 412 144 454 160 c 1,21,22
 471 170 471 170 480 196 c 1,23,-1
 502 369 l 1,24,-1
 440 366 l 1,25,26
 317 358 317 358 244 338 c 1,27,-1
 132 308 l 1,28,-1
 62 381 l 1,29,-1
 104 510 l 2,30,31
 119 555 119 555 147.5 680.5 c 128,-1,32
 176 806 176 806 219.5 942 c 128,-1,33
 263 1078 263 1078 263 1136 c 128,-1,34
 263 1194 263 1194 281 1269 c 128,-1,35
 299 1344 299 1344 321 1366 c 128,-1,36
 343 1388 343 1388 392 1388 c 128,-1,37
 441 1388 441 1388 465 1355 c 1,38,39
 506 1351 506 1351 506 1332 c 2,40,-1
 506 1330 l 1,41,42
 439 918 439 918 355 513 c 1,43,-1
 414 513 l 2,44,45
 417 513 417 513 451 512.5 c 128,-1,46
 485 512 485 512 510 523 c 128,-1,47
 535 534 535 534 559 601 c 128,-1,48
 583 668 583 668 613 689 c 1,49,50
 627 704 627 704 641 698 c 2,51,-1
 736 659 l 1,52,53
 764 655 764 655 767 639 c 1,54,-1
 754 507 l 1,0,1
EndSplineSet
Validated: 1
EndChar

StartChar: five
Encoding: 53 53 20
Width: 1012
VWidth: 1894
Flags: W
HStem: -12 228<118.865 277.458> 1081 275<780.697 911.51> 1207 149<524.751 762> 1352 20G<804 934>
VStem: 731 217<259.384 721.786> 762 176<1103.96 1204.5>
LayerCount: 2
Fore
SplineSet
198 216 m 0,0,1
 280 216 280 216 280 151 c 2,2,-1
 280 150 l 1,3,-1
 278 129 l 2,4,5
 277 120 277 120 326 94 c 1,6,-1
 395 69 l 1,7,-1
 395 68 l 1,8,-1
 444 63 l 1,9,-1
 536 78 l 1,10,11
 574 94 574 94 610 110 c 1,12,13
 731 306 731 306 731 464.5 c 128,-1,14
 731 623 731 623 677 748 c 1,15,16
 652 761 652 761 610 771 c 1,17,-1
 517 782 l 1,18,19
 487 779 487 779 425 729 c 0,20,21
 319 643 319 643 284 642 c 2,22,-1
 260 642 l 1,23,-1
 260 650 l 1,24,25
 238 662 238 662 228 691 c 1,26,-1
 216 752 l 1,27,-1
 254 1163 l 1,28,-1
 254 1164 l 1,29,30
 244 1169 244 1169 219 1178 c 0,31,32
 176 1193 176 1193 176 1239 c 0,33,34
 176 1323 176 1323 256.5 1338.5 c 128,-1,35
 337 1354 337 1354 558.5 1356 c 128,-1,36
 780 1358 780 1358 804 1365 c 1,37,-1
 855 1372 l 1,38,-1
 934 1366 l 2,39,40
 970 1363 970 1363 970 1326.5 c 128,-1,41
 970 1290 970 1290 938 1185.5 c 128,-1,42
 906 1081 906 1081 836 1081 c 0,43,44
 806 1081 806 1081 784 1120 c 128,-1,45
 762 1159 762 1159 762 1191 c 2,46,-1
 762 1197 l 1,47,-1
 762 1207 l 1,48,-1
 528 1207 l 1,49,50
 506 1072 506 1072 477 939 c 1,51,-1
 507 943 l 1,52,-1
 640 922 l 1,53,54
 726 906 726 906 774 875 c 128,-1,55
 822 844 822 844 867 779.5 c 128,-1,56
 912 715 912 715 930 670 c 128,-1,57
 948 625 948 625 948 482.5 c 128,-1,58
 948 340 948 340 894.5 192.5 c 128,-1,59
 841 45 841 45 720 -25 c 0,60,61
 684 -45 684 -45 645 -48.5 c 128,-1,62
 606 -52 606 -52 489.5 -52 c 128,-1,63
 373 -52 373 -52 331.5 -49 c 128,-1,64
 290 -46 290 -46 266 -29 c 128,-1,65
 242 -12 242 -12 219 -12 c 128,-1,66
 196 -12 196 -12 172 -27 c 1,67,-1
 129 -48 l 1,68,-1
 122 -48 l 2,69,70
 104 -48 104 -48 80 -23.5 c 128,-1,71
 56 1 56 1 56 61 c 128,-1,72
 56 121 56 121 105 168.5 c 128,-1,73
 154 216 154 216 198 216 c 0,0,1
EndSplineSet
Validated: 1
EndChar

StartChar: six
Encoding: 54 54 21
Width: 1076
VWidth: 1894
Flags: W
HStem: -70 144<356.717 707.751> 828 142<459.625 655.243>
VStem: 58 225<185.707 615.405> 782 232<223.518 678.207>
LayerCount: 2
Fore
SplineSet
98 104 m 0,0,1
 74 142 74 142 66 190 c 128,-1,2
 58 238 58 238 58 486 c 128,-1,3
 58 734 58 734 118 846 c 1,4,5
 136 884 136 884 189 1011 c 128,-1,6
 242 1138 242 1138 285.5 1174 c 128,-1,7
 329 1210 329 1210 385.5 1274 c 128,-1,8
 442 1338 442 1338 537 1389 c 128,-1,9
 632 1440 632 1440 705 1440 c 128,-1,10
 778 1440 778 1440 811 1372.5 c 128,-1,11
 844 1305 844 1305 844 1242 c 128,-1,12
 844 1179 844 1179 808 1179 c 0,13,14
 780 1179 780 1179 742.5 1206.5 c 128,-1,15
 705 1234 705 1234 688 1245 c 1,16,17
 536 1109 536 1109 442 967 c 1,18,19
 494 970 494 970 613.5 970 c 128,-1,20
 733 970 733 970 790 942 c 1,21,22
 845 914 845 914 923.5 778 c 128,-1,23
 1002 642 1002 642 1008 589 c 128,-1,24
 1014 536 1014 536 1014 482 c 128,-1,25
 1014 428 1014 428 983 280.5 c 128,-1,26
 952 133 952 133 909.5 64.5 c 128,-1,27
 867 -4 867 -4 721 -37 c 128,-1,28
 575 -70 575 -70 505.5 -70 c 128,-1,29
 436 -70 436 -70 348 -50 c 1,30,31
 174 -7 174 -7 98 104 c 0,0,1
782 449 m 0,32,33
 782 649 782 649 656 826 c 1,34,35
 632 828 632 828 580 828 c 128,-1,36
 528 828 528 828 497 810 c 128,-1,37
 466 792 466 792 409.5 740 c 128,-1,38
 353 688 353 688 327.5 646 c 128,-1,39
 302 604 302 604 292 586 c 1,40,41
 283 526 283 526 283 466 c 0,42,43
 283 284 283 284 361 92 c 1,44,45
 415 74 415 74 474.5 74 c 128,-1,46
 534 74 534 74 604 86 c 0,47,48
 678 99 678 99 709 114 c 1,49,50
 708 119 708 119 708 124 c 1,51,52
 782 293 782 293 782 449 c 0,32,33
EndSplineSet
Validated: 1
EndChar

StartChar: seven
Encoding: 55 55 22
Width: 980
VWidth: 1894
Flags: W
HStem: 1256 144<227.478 678.008>
VStem: 685 255<971.079 1252.81>
LayerCount: 2
Fore
SplineSet
410 61 m 1,0,1
 459 25 459 25 459 -14 c 128,-1,2
 459 -53 459 -53 416 -63 c 0,3,4
 332 -84 332 -84 237 -84 c 128,-1,5
 142 -84 142 -84 112 -72 c 128,-1,6
 82 -60 82 -60 82 -16 c 128,-1,7
 82 28 82 28 116 51 c 128,-1,8
 150 74 150 74 161 95.5 c 128,-1,9
 172 117 172 117 199 199 c 0,10,11
 253 360 253 360 356 478 c 0,12,13
 389 516 389 516 401 531 c 1,14,15
 394 536 394 536 373 548 c 128,-1,16
 352 560 352 560 340.5 585.5 c 128,-1,17
 329 611 329 611 329 630 c 2,18,-1
 329 634 l 1,19,-1
 330 636 l 1,20,21
 333 656 333 656 357 685.5 c 128,-1,22
 381 715 381 715 450 715 c 2,23,-1
 453 715 l 2,24,25
 462 714 462 714 488 714 c 0,26,27
 493 714 493 714 499 714 c 0,28,29
 519 714 519 714 536 716 c 1,30,31
 685 909 685 909 685 1121 c 0,32,-1
 685 1124 l 0,33,34
 685 1188 685 1188 672 1253 c 1,35,-1
 377 1256 l 2,36,37
 288 1256 288 1256 254 1248 c 1,38,-1
 227 1239 l 1,39,-1
 215 1036 l 1,40,41
 203 958 203 958 141 958 c 0,42,43
 110 958 110 958 96 981 c 0,44,45
 52 1048 52 1048 52 1173.5 c 128,-1,46
 52 1299 52 1299 69 1331.5 c 128,-1,47
 86 1364 86 1364 158 1382 c 128,-1,48
 230 1400 230 1400 311 1400 c 1,49,-1
 506 1394 l 1,50,-1
 655 1400 l 1,51,52
 844 1400 844 1400 875 1384 c 0,53,54
 940 1352 940 1352 940 1239 c 128,-1,55
 940 1126 940 1126 898 976 c 128,-1,56
 856 826 856 826 817 760 c 128,-1,57
 778 694 778 694 778 678 c 128,-1,58
 778 662 778 662 791.5 655 c 128,-1,59
 805 648 805 648 807 637 c 0,60,61
 808 627 808 627 809 619 c 1,62,-1
 809 617 l 2,63,64
 809 605 809 605 794.5 585 c 128,-1,65
 780 565 780 565 758 565 c 2,66,-1
 753 565 l 1,67,68
 750 568 750 568 707 568 c 2,69,-1
 700 568 l 2,70,71
 695 568 695 568 692 567 c 1,72,73
 473 337 473 337 410 61 c 1,0,1
EndSplineSet
Validated: 1
EndChar

StartChar: eight
Encoding: 56 56 23
Width: 1124
VWidth: 1894
Flags: W
HStem: -34 150<365.037 689.217>
VStem: 56 255<228.441 394 396 427.869> 148 229<1006.25 1149.04> 665 220<1017.52 1208.89> 841 214<343 621>
LayerCount: 2
Fore
SplineSet
758 1366 m 1,0,1
 885 1316 885 1316 885 1198 c 0,2,3
 885 1073 885 1073 814 956 c 1,4,-1
 788 916 l 1,5,6
 807 898 807 898 876 846 c 0,7,8
 1055 712 1055 712 1055 500 c 1,9,-1
 1044 343 l 1,10,11
 1016 234 1016 234 895 106 c 0,12,13
 766 -30 766 -30 681 -33 c 0,14,15
 642 -34 642 -34 600 -34 c 128,-1,16
 558 -34 558 -34 450 -15 c 128,-1,17
 342 4 342 4 276 40 c 128,-1,18
 210 76 210 76 133 179 c 128,-1,19
 56 282 56 282 56 342 c 2,20,-1
 56 343 l 1,21,-1
 81 491 l 1,22,23
 106 588 106 588 122 600 c 128,-1,24
 138 612 138 612 188 687 c 128,-1,25
 238 762 238 762 276 788 c 0,26,27
 329 824 329 824 331 832 c 1,28,29
 318 844 318 844 233 890.5 c 128,-1,30
 148 937 148 937 148 999 c 2,31,-1
 148 1002 l 1,32,33
 150 1056 150 1056 211 1194 c 128,-1,34
 272 1332 272 1332 365 1360 c 1,35,36
 391 1398 391 1398 506 1402 c 0,37,38
 560 1404 560 1404 593 1404 c 0,39,40
 629 1404 629 1404 639 1401 c 2,41,-1
 758 1366 l 1,0,1
344 624 m 1,42,43
 312 514 312 514 312 396 c 0,44,-1
 311 394 l 0,45,46
 311 276 311 276 366 151 c 1,47,48
 383 141 383 141 417.5 128.5 c 128,-1,49
 452 116 452 116 545.5 116 c 128,-1,50
 639 116 639 116 663.5 127 c 128,-1,51
 688 138 688 138 699 145 c 1,52,53
 841 318 841 318 841 472 c 128,-1,54
 841 626 841 626 671 760 c 1,55,56
 632 758 632 758 603 743 c 128,-1,57
 574 728 574 728 491.5 705 c 128,-1,58
 409 682 409 682 344 624 c 1,42,43
612 974 m 0,59,60
 637 1004 637 1004 647 1015 c 1,61,62
 665 1057 665 1057 665 1095 c 0,63,64
 665 1193 665 1193 549 1276 c 1,65,-1
 464 1267 l 1,66,67
 444 1260 444 1260 400 1227 c 1,68,69
 377 1170 377 1170 377 1123 c 0,70,71
 377 1031 377 1031 463 969 c 1,72,73
 519 960 519 960 559 960 c 128,-1,74
 599 960 599 960 612 974 c 0,59,60
EndSplineSet
Validated: 1
EndChar

StartChar: nine
Encoding: 57 57 24
Width: 1054
VWidth: 1894
Flags: W
HStem: -58 158<331.477 667.795> 370 168<423.275 689> 1174 209<548.582 736.975> 1224 168<372 671.633>
VStem: 64 238<724 1020.93> 720 225<174.234 376> 753 231<630 1168.7>
LayerCount: 2
Fore
SplineSet
734 1174 m 1,0,1
 723 1174 723 1174 699.5 1174 c 128,-1,2
 676 1174 676 1174 620.5 1199 c 128,-1,3
 565 1224 565 1224 472 1224 c 2,4,-1
 389 1224 l 1,5,6
 302 1049 302 1049 302 901.5 c 128,-1,7
 302 754 302 754 359 628 c 1,8,9
 463 538 463 538 582 538 c 1,10,-1
 689 542 l 1,11,-1
 747 630 l 1,12,13
 753 731 753 731 753 867.5 c 128,-1,14
 753 1004 753 1004 734 1174 c 1,0,1
94 189 m 0,15,16
 94 223 94 223 136 227 c 1,17,-1
 136 230 l 1,18,-1
 160 230 l 2,19,20
 200 230 200 230 244 198 c 0,21,22
 375 100 375 100 506 100 c 2,23,-1
 520 100 l 2,24,25
 631 100 631 100 669 112 c 1,26,27
 701 245 701 245 720 376 c 1,28,29
 691 368 691 368 657.5 368 c 128,-1,30
 624 368 624 368 570 370 c 128,-1,31
 516 372 516 372 389 422 c 128,-1,32
 262 472 262 472 176 585 c 128,-1,33
 90 698 90 698 78 724 c 1,34,-1
 64 785 l 1,35,-1
 64 786 l 2,36,37
 64 802 64 802 68 822 c 128,-1,38
 72 842 72 842 88 927 c 128,-1,39
 104 1012 104 1012 118 1050 c 128,-1,40
 132 1088 132 1088 142 1136 c 1,41,42
 142 1140 142 1140 142 1145 c 0,43,44
 142 1274 142 1274 282 1345 c 2,45,-1
 372 1392 l 1,46,-1
 672 1383 l 1,47,48
 675 1374 675 1374 765.5 1340 c 128,-1,49
 856 1306 856 1306 914.5 1219.5 c 128,-1,50
 973 1133 973 1133 978 1103 c 2,51,-1
 982 1076 l 2,52,53
 983 1071 983 1071 983 1070 c 2,54,-1
 984 1010 l 1,55,56
 984 944 984 944 972 796 c 1,57,-1
 942 542 l 1,58,-1
 956 370 l 1,59,60
 956 320 956 320 945 275 c 128,-1,61
 934 230 934 230 882 141.5 c 128,-1,62
 830 53 830 53 803 -2.5 c 128,-1,63
 776 -58 776 -58 608 -58 c 2,64,-1
 596 -58 l 1,65,66
 421 -56 421 -56 305.5 -15 c 128,-1,67
 190 26 190 26 159 54 c 128,-1,68
 128 82 128 82 112 119 c 0,69,70
 94 161 94 161 94 189 c 0,15,16
EndSplineSet
Validated: 1
EndChar

StartChar: less
Encoding: 60 60 27
Width: 1014
VWidth: 1894
Flags: W
LayerCount: 2
Fore
SplineSet
892 1116 m 0,0,1
 892 1089 892 1089 882 1069 c 1,2,3
 893 1053 893 1053 883 1044 c 0,4,5
 664 810 664 810 436 588 c 1,6,7
 671 342 671 342 889 89 c 0,8,9
 897 81 897 81 891 69 c 1,10,-1
 895 45 l 1,11,-1
 892 42 l 1,12,13
 890 -1 890 -1 870.5 -18 c 128,-1,14
 851 -35 851 -35 834 -49.5 c 128,-1,15
 817 -64 817 -64 800 -64 c 2,16,-1
 784 -64 l 1,17,18
 755 -57 755 -57 737.5 -15.5 c 128,-1,19
 720 26 720 26 647 100 c 128,-1,20
 574 174 574 174 512 212 c 128,-1,21
 450 250 450 250 306 372 c 128,-1,22
 162 494 162 494 135 529 c 128,-1,23
 108 564 108 564 108 587 c 0,24,25
 108 664 108 664 149 686 c 0,26,27
 170 697 170 697 178 702 c 128,-1,28
 186 707 186 707 200 712 c 1,29,-1
 223 718 l 2,30,31
 232 720 232 720 350 823 c 128,-1,32
 468 926 468 926 604 1055 c 0,33,34
 743 1187 743 1187 785 1197 c 1,35,-1
 843 1208 l 1,36,-1
 844 1208 l 2,37,38
 892 1208 892 1208 892 1116 c 0,0,1
EndSplineSet
Validated: 1
EndChar

StartChar: equal
Encoding: 61 61 28
Width: 1280
VWidth: 1894
Flags: W
HStem: 356 168<648.24 1129.91> 379 159<179 346> 682 168<641.573 1122.88> 703 161<172 337>
LayerCount: 2
Fore
SplineSet
836 356 m 2,0,-1
 524 356 l 2,1,2
 484 356 484 356 346 365 c 1,3,-1
 179 379 l 1,4,-1
 148 410 l 1,5,6
 128 434 128 434 128 465.5 c 128,-1,7
 128 497 128 497 158.5 517.5 c 128,-1,8
 189 538 189 538 240 538 c 1,9,-1
 730 524 l 1,10,11
 1050 520 1050 520 1095 512 c 128,-1,12
 1140 504 1140 504 1152 490 c 128,-1,13
 1164 476 1164 476 1164 433 c 128,-1,14
 1164 390 1164 390 1131 373 c 128,-1,15
 1098 356 1098 356 836 356 c 2,0,-1
828 682 m 2,16,-1
 514 682 l 2,17,18
 474 682 474 682 337 690 c 1,19,-1
 172 703 l 1,20,-1
 140 738 l 2,21,22
 120 760 120 760 120 791.5 c 128,-1,23
 120 823 120 823 150 843.5 c 128,-1,24
 180 864 180 864 230 864 c 1,25,-1
 724 850 l 1,26,27
 1046 846 1046 846 1088 838 c 128,-1,28
 1130 830 1130 830 1144 819 c 128,-1,29
 1158 808 1158 808 1158 760 c 128,-1,30
 1158 712 1158 712 1124 697 c 128,-1,31
 1090 682 1090 682 828 682 c 2,16,-1
EndSplineSet
Validated: 1
EndChar

StartChar: greater
Encoding: 62 62 29
Width: 936
VWidth: 1894
Flags: W
LayerCount: 2
Fore
SplineSet
132 1079 m 1,0,-1
 132 1090 l 2,1,2
 132 1118 132 1118 150 1143 c 128,-1,3
 168 1168 168 1168 208 1168 c 2,4,-1
 210 1168 l 2,5,6
 250 1168 250 1168 316 1096 c 128,-1,7
 382 1024 382 1024 461 951 c 128,-1,8
 540 878 540 878 584 852 c 128,-1,9
 628 826 628 826 675 770 c 128,-1,10
 722 714 722 714 771 688 c 128,-1,11
 820 662 820 662 820 620 c 2,12,-1
 820 619 l 1,13,-1
 811 565 l 1,14,15
 801 535 801 535 617.5 333.5 c 128,-1,16
 434 132 434 132 260 -82 c 1,17,18
 234 -112 234 -112 190 -112 c 1,19,-1
 181 -114 l 1,20,-1
 178 -114 l 2,21,22
 141 -114 141 -114 127 -96 c 1,23,-1
 116 -39 l 1,24,-1
 116 -38 l 2,25,26
 116 7 116 7 134 32.5 c 128,-1,27
 152 58 152 58 179 89 c 1,28,29
 339 350 339 350 510 604 c 1,30,31
 308 819 308 819 117 1040 c 1,32,33
 117 1065 117 1065 123 1070.5 c 128,-1,34
 129 1076 129 1076 132 1079 c 1,0,-1
EndSplineSet
Validated: 1
EndChar

StartChar: question
Encoding: 63 63 30
Width: 950
Flags: W
HStem: -40 260<330.284 498.377> 358 165<521 587.576> 1301 132<335.211 549.311>
VStem: 122 138<878.438 1225.6> 270 209<507.169 641.579> 284 266<-0.694336 173.863> 626 212<871.09 1221.05>
LayerCount: 2
Fore
SplineSet
470 1433 m 2,0,1
 536 1433 536 1433 587 1414 c 0,2,3
 638 1395 638 1395 697 1341 c 0,4,5
 838 1217 838 1217 838 1039 c 0,6,7
 838 790 838 790 510 639 c 1,8,9
 479 600 479 600 479 568 c 0,10,11
 479 535 479 535 500 506 c 1,12,13
 508 509 508 509 521 513 c 1,14,-1
 564 523 l 1,15,-1
 567 523 l 1,16,17
 588 519 588 519 601 499 c 0,18,19
 614 479 614 479 614 460 c 0,20,21
 614 441 614 441 586 400 c 0,22,23
 558 360 558 360 459 358 c 1,24,25
 450 356 450 356 433 356 c 0,26,27
 414 356 414 356 386 373 c 1,28,-1
 298 433 l 1,29,30
 270 481 270 481 270 551 c 0,31,32
 270 621 270 621 284 648 c 0,33,34
 298 674 298 674 347 705 c 0,35,36
 396 736 396 736 426 743 c 0,37,38
 456 750 456 750 513 791 c 0,39,40
 581 839 581 839 604 862 c 1,41,42
 626 942 626 942 626 1018 c 0,43,44
 626 1161 626 1161 550 1289 c 1,45,46
 528 1301 528 1301 498 1301 c 0,47,48
 403 1301 403 1301 369 1283 c 0,49,50
 335 1265 335 1265 302 1223 c 0,51,52
 260 1170 260 1170 260 1158 c 0,53,54
 260 1147 260 1147 263 1128 c 0,55,56
 266 1108 266 1108 276 1019 c 0,57,58
 286 930 286 930 296 908 c 1,59,-1
 309 865 l 1,60,-1
 283 830 l 1,61,62
 258 806 258 806 225 801 c 1,63,-1
 214 801 l 2,64,65
 184 801 184 801 165 823 c 0,66,67
 146 845 146 845 134 914 c 0,68,69
 122 983 122 983 122 1016 c 0,70,71
 122 1049 122 1049 126 1085 c 0,72,73
 130 1120 130 1120 134 1190 c 0,74,75
 138 1260 138 1260 218 1347 c 0,76,77
 298 1433 298 1433 464 1433 c 2,78,-1
 470 1433 l 2,0,1
EndSplineSet
Refer: 13 46 N 1 0 0 1 132 -4 2
Validated: 1
EndChar

StartChar: at
Encoding: 64 64 31
Width: 1500
VWidth: 1894
Flags: W
HStem: 222 164<569.567 738> 898 157<653.899 838.174> 1380 126<574.512 823.44>
VStem: 34 263<350.033 876.835> 350 160<446.422 784.089> 1296 150<534.27 1031.09>
LayerCount: 2
Fore
SplineSet
1009 1101 m 1,0,1
 1072 1075 1072 1075 1075 1053 c 0,2,3
 1116 718 1116 718 1141 387 c 1,4,5
 1220 444 1220 444 1240 499 c 128,-1,6
 1260 554 1260 554 1278 660 c 128,-1,7
 1296 766 1296 766 1296 849 c 128,-1,8
 1296 932 1296 932 1274 987 c 128,-1,9
 1252 1042 1252 1042 1192 1104 c 128,-1,10
 1132 1166 1132 1166 1120 1170 c 0,11,12
 1085 1183 1085 1183 933 1282 c 0,13,14
 856 1332 856 1332 754 1356 c 128,-1,15
 652 1380 652 1380 637 1380 c 128,-1,16
 622 1380 622 1380 587 1371 c 1,17,18
 297 988 297 988 297 627 c 0,19,20
 297 321 297 321 506 30 c 1,21,22
 550 4 550 4 609 -19 c 128,-1,23
 668 -42 668 -42 777 -51 c 128,-1,24
 886 -60 886 -60 895 -64 c 128,-1,25
 904 -68 904 -68 915 -68 c 128,-1,26
 926 -68 926 -68 979 -54 c 128,-1,27
 1032 -40 1032 -40 1086 -10 c 0,28,29
 1197 47 1197 47 1272 199 c 1,30,-1
 1343 315 l 1,31,32
 1371 350 1371 350 1405.5 350 c 128,-1,33
 1440 350 1440 350 1450 332 c 128,-1,34
 1460 314 1460 314 1460 250 c 128,-1,35
 1460 186 1460 186 1380.5 66.5 c 128,-1,36
 1301 -53 1301 -53 1206 -116 c 2,37,-1
 1130 -166 l 1,38,-1
 836 -236 l 1,39,-1
 548 -160 l 1,40,-1
 466 -122 l 1,41,42
 376 -78 376 -78 270 10 c 128,-1,43
 164 98 164 98 134 158 c 0,44,45
 66 294 66 294 50 353 c 128,-1,46
 34 412 34 412 34 579.5 c 128,-1,47
 34 747 34 747 94 926 c 0,48,49
 151 1097 151 1097 183 1151.5 c 128,-1,50
 215 1206 215 1206 244.5 1263 c 128,-1,51
 274 1320 274 1320 329 1383 c 128,-1,52
 384 1446 384 1446 443 1476 c 128,-1,53
 502 1506 502 1506 619 1506 c 128,-1,54
 736 1506 736 1506 781 1495 c 128,-1,55
 826 1484 826 1484 1011 1392 c 128,-1,56
 1196 1300 1196 1300 1312 1174 c 1,57,58
 1368 1116 1368 1116 1407 1056 c 128,-1,59
 1446 996 1446 996 1446 869 c 128,-1,60
 1446 742 1446 742 1422 622 c 128,-1,61
 1398 502 1398 502 1377 443 c 128,-1,62
 1356 384 1356 384 1316 336 c 0,63,64
 1214 210 1214 210 1114 210 c 2,65,-1
 1112 210 l 2,66,67
 1012 210 1012 210 967 275 c 0,68,69
 935 321 935 321 921 335 c 1,70,71
 910 327 910 327 894 310 c 0,72,73
 818 228 818 228 740 224 c 1,74,-1
 738 222 l 1,75,-1
 728 222 l 2,76,77
 656 222 656 222 588 241 c 128,-1,78
 520 260 520 260 487 284 c 128,-1,79
 454 308 454 308 402 398 c 128,-1,80
 350 488 350 488 350 638 c 0,81,82
 350 917 350 917 586 1024 c 0,83,84
 652 1054 652 1054 732.5 1055 c 128,-1,85
 813 1056 813 1056 839 1060 c 1,86,-1
 882 1079 l 1,87,-1
 925 1102 l 1,88,-1
 926 1102 l 2,89,90
 926 1103 926 1103 928 1103 c 2,91,-1
 1009 1101 l 1,0,1
712 898 m 0,92,93
 666 898 666 898 653.5 892.5 c 128,-1,94
 641 887 641 887 575.5 813.5 c 128,-1,95
 510 740 510 740 510 619.5 c 128,-1,96
 510 499 510 499 557.5 442.5 c 128,-1,97
 605 386 605 386 703 386 c 1,98,-1
 752 391 l 1,99,100
 766 397 766 397 799 428.5 c 128,-1,101
 832 460 832 460 860.5 465.5 c 128,-1,102
 889 471 889 471 900 474 c 1,103,104
 899 482 899 482 895.5 513 c 128,-1,105
 892 544 892 544 881 669 c 128,-1,106
 870 794 870 794 853 830 c 1,107,-1
 853 832 l 1,108,109
 826 896 826 896 712 898 c 0,92,93
EndSplineSet
Validated: 1
EndChar

StartChar: A
Encoding: 65 65 32
Width: 1234
VWidth: 1894
Flags: W
HStem: 534 166<437.396 810> 1200 170<497.119 739>
VStem: 128 233<129.555 299.644> 810 250<434.279 532 691 1113.22> 831 247<172 526.281>
LayerCount: 2
Fore
SplineSet
754 77 m 2,0,1
 754 136 754 136 831 165 c 1,2,3
 822 349 822 349 815 532 c 1,4,5
 758 534 758 534 620 534 c 128,-1,6
 482 534 482 534 453.5 528 c 128,-1,7
 425 522 425 522 414 520 c 1,8,9
 388 333 388 333 361 146 c 1,10,11
 365 145 365 145 372 144 c 1,12,-1
 410 127 l 1,13,-1
 418 111 l 1,14,-1
 421 105 l 1,15,-1
 411 65 l 1,16,17
 392 24 392 24 343 15 c 128,-1,18
 294 6 294 6 217.5 6 c 128,-1,19
 141 6 141 6 100 16 c 0,20,21
 56 27 56 27 56 66.5 c 128,-1,22
 56 106 56 106 92 134 c 128,-1,23
 128 162 128 162 128 174 c 2,24,-1
 128 175 l 1,25,-1
 164 488 l 1,26,27
 172 577 172 577 174 632 c 1,28,-1
 172 682 l 1,29,30
 172 748 172 748 207 909 c 128,-1,31
 242 1070 242 1070 305 1167 c 128,-1,32
 368 1264 368 1264 413 1305 c 0,33,34
 484 1370 484 1370 596 1370 c 0,35,36
 623 1370 623 1370 666 1368 c 0,37,38
 952 1348 952 1348 1036 1052 c 1,39,40
 1060 961 1060 961 1060 886.5 c 128,-1,41
 1060 812 1060 812 1056 788 c 1,42,-1
 1078 172 l 1,43,-1
 1152 112 l 1,44,-1
 1167 82 l 1,45,-1
 1149 11 l 2,46,47
 1148 6 1148 6 1146 2 c 1,48,-1
 809 16 l 1,49,50
 757 28 757 28 754 72 c 1,51,-1
 754 77 l 2,0,1
648 1200 m 1,52,53
 552 1198 552 1198 527 1184 c 1,54,55
 522 1184 522 1184 510 1172.5 c 128,-1,56
 498 1161 498 1161 497 1161 c 0,57,58
 469 924 469 924 437 689 c 1,59,-1
 610 700 l 1,60,61
 642 700 642 700 810 691 c 1,62,63
 803 920 803 920 799 1149 c 1,64,-1
 739 1200 l 1,65,-1
 648 1200 l 1,52,53
EndSplineSet
Validated: 1
EndChar

StartChar: B
Encoding: 66 66 33
Width: 1118
VWidth: 1894
Flags: W
HStem: -12 148<128 234 466 721.329> 575 181<488 567.533> 1202 150<496 663.694>
VStem: 234 232<136 567.938> 236 246<139.94 578.901 756 1156.39> 736 250<855.514 1145.59> 824 232<248.798 543.372>
LayerCount: 2
Fore
SplineSet
482 575 m 1,0,1
 475 349 475 349 466 126 c 1,2,3
 537 127 537 127 619 144 c 128,-1,4
 701 161 701 161 722 170 c 1,5,6
 824 289 824 289 824 389.5 c 128,-1,7
 824 490 824 490 756 577 c 1,8,-1
 569 580 l 2,9,10
 522 580 522 580 482 575 c 1,0,1
665 1184 m 1,11,12
 623 1202 623 1202 609.5 1202 c 128,-1,13
 596 1202 596 1202 582 1197 c 128,-1,14
 568 1192 568 1192 496 1191 c 1,15,16
 493 973 493 973 488 756 c 1,17,18
 562 764 562 764 617 797 c 128,-1,19
 672 830 672 830 683 838 c 1,20,21
 736 923 736 923 736 1009 c 128,-1,22
 736 1095 736 1095 665 1184 c 1,11,12
154 1151 m 1,23,24
 123 1151 123 1151 101 1167.5 c 128,-1,25
 79 1184 79 1184 79.5 1203.5 c 128,-1,26
 80 1223 80 1223 95 1254.5 c 128,-1,27
 110 1286 110 1286 147 1304 c 128,-1,28
 184 1322 184 1322 270 1330.5 c 128,-1,29
 356 1339 356 1339 370.5 1345.5 c 128,-1,30
 385 1352 385 1352 422 1352 c 2,31,-1
 493 1352 l 2,32,33
 532 1352 532 1352 650 1333 c 128,-1,34
 768 1314 768 1314 833 1272 c 1,35,36
 897 1230 897 1230 941.5 1146 c 128,-1,37
 986 1062 986 1062 986 1001 c 128,-1,38
 986 940 986 940 942.5 857 c 128,-1,39
 899 774 899 774 874.5 755 c 128,-1,40
 850 736 850 736 841 728 c 1,41,42
 850 721 850 721 871 707.5 c 128,-1,43
 892 694 892 694 903 684 c 1,44,45
 961 645 961 645 1008.5 551.5 c 128,-1,46
 1056 458 1056 458 1056 414 c 128,-1,47
 1056 370 1056 370 1036 299 c 128,-1,48
 1016 228 1016 228 959 157 c 128,-1,49
 902 86 902 86 799.5 37 c 128,-1,50
 697 -12 697 -12 367 -12 c 1,51,-1
 143 -6 l 1,52,53
 87 2 87 2 73 24 c 0,54,55
 59 48 59 48 59 74 c 2,56,-1
 59 78 l 1,57,-1
 82 112 l 1,58,-1
 128 136 l 1,59,-1
 234 136 l 1,60,-1
 236 492 l 1,61,-1
 242 998 l 2,62,63
 242 1066 242 1066 234 1118 c 2,64,-1
 228 1157 l 1,65,-1
 154 1151 l 1,23,24
EndSplineSet
Validated: 1
EndChar

StartChar: C
Encoding: 67 67 34
Width: 1132
VWidth: 1894
Flags: W
HStem: -52 154<458.789 762.339> 1226 160<691 802.201>
VStem: 60 250<335.943 815.64> 818 250<154.118 254.656>
LayerCount: 2
Fore
SplineSet
993 1347 m 2,0,1
 993 1347 993 1347 1003 1344 c 0,2,3
 1013 1342 1013 1342 1033 1327 c 0,4,5
 1050 1314 1050 1314 1050 1271 c 0,6,7
 1050 1265 1050 1265 1050 1258 c 1,8,-1
 1050 1257 l 1,9,10
 1046 1207 1046 1207 1028 1185.5 c 128,-1,11
 1010 1164 1010 1164 978 1108 c 128,-1,12
 946 1052 946 1052 909 1030 c 1,13,-1
 856 991 l 1,14,-1
 789 1073 l 1,15,-1
 787 1076 l 2,16,17
 784 1084 784 1084 784 1093 c 1,18,-1
 803 1177 l 1,19,20
 803 1195 803 1195 772 1210.5 c 128,-1,21
 741 1226 741 1226 726 1226 c 1,22,-1
 691 1220 l 1,23,24
 625 1200 625 1200 565 1163 c 1,25,26
 310 866 310 866 310 573 c 0,27,28
 310 351 310 351 457 130 c 1,29,30
 514 102 514 102 601.5 102 c 128,-1,31
 689 102 689 102 753.5 140.5 c 128,-1,32
 818 179 818 179 818 230.5 c 128,-1,33
 818 282 818 282 836 308 c 128,-1,34
 854 334 854 334 898 334 c 128,-1,35
 942 334 942 334 987 294 c 128,-1,36
 1032 254 1032 254 1050 209 c 128,-1,37
 1068 164 1068 164 1068 145 c 128,-1,38
 1068 126 1068 126 1057 93 c 128,-1,39
 1046 60 1046 60 1026 57 c 0,40,41
 960 48 960 48 894 38 c 1,42,43
 878 33 878 33 737 -44 c 0,44,45
 723 -52 723 -52 657.5 -52 c 128,-1,46
 592 -52 592 -52 535 -52 c 128,-1,47
 478 -52 478 -52 421 -35 c 128,-1,48
 364 -18 364 -18 279 46 c 1,49,50
 123 170 123 170 111.5 277 c 128,-1,51
 100 384 100 384 80 500 c 128,-1,52
 60 616 60 616 60 658 c 128,-1,53
 60 700 60 700 68 751.5 c 128,-1,54
 76 803 76 803 147 944.5 c 128,-1,55
 218 1086 218 1086 290 1164 c 1,56,57
 368 1242 368 1242 485 1314 c 128,-1,58
 602 1386 602 1386 727.5 1386 c 128,-1,59
 853 1386 853 1386 880.5 1368 c 128,-1,60
 908 1350 908 1350 922 1350 c 2,61,-1
 950 1350 l 1,62,-1
 993 1347 l 2,0,1
EndSplineSet
Validated: 1
EndChar

StartChar: D
Encoding: 68 68 35
Width: 1314
VWidth: 1894
Flags: W
HStem: 5 128<116.939 223.867> 1219 149<514.752 810.422>
VStem: 236 275<620.598 1099> 236 245<181.679 737.285> 1047 207<625.814 991.188>
LayerCount: 2
Fore
SplineSet
1047 829 m 128,-1,1
 1047 1058 1047 1058 738 1219 c 1,2,-1
 511 1223 l 1,3,4
 504 685 504 685 481 156 c 1,5,6
 579 169 579 169 648.5 201.5 c 128,-1,7
 718 234 718 234 799 315 c 1,8,0
 1047 600 1047 600 1047 829 c 128,-1,1
1254 882 m 2,9,-1
 1254 812 l 1,10,11
 1248 700 1248 700 1207 585.5 c 128,-1,12
 1166 471 1166 471 1116 415.5 c 128,-1,13
 1066 360 1066 360 1044 321 c 128,-1,14
 1022 282 1022 282 960 226 c 128,-1,15
 898 170 898 170 822 123 c 128,-1,16
 746 76 746 76 583 39 c 128,-1,17
 420 2 420 2 302 2 c 128,-1,18
 184 2 184 2 158 5 c 128,-1,19
 132 8 132 8 116 27 c 1,20,-1
 101 61 l 1,21,-1
 116 94 l 1,22,23
 146 123 146 123 183 133 c 128,-1,24
 220 143 220 143 224 160 c 1,25,-1
 236 231 l 1,26,-1
 230 479 l 1,27,28
 230 591 230 591 236 786 c 1,29,-1
 248 976 l 1,30,-1
 242 1099 l 2,31,32
 243 1099 243 1099 238.5 1128 c 128,-1,33
 234 1157 234 1157 229 1156.5 c 128,-1,34
 224 1156 224 1156 198 1148.5 c 128,-1,35
 172 1141 172 1141 150 1141 c 0,36,37
 64 1141 64 1141 64 1201 c 0,38,39
 64 1305 64 1305 279 1350 c 0,40,41
 367 1368 367 1368 535.5 1368 c 128,-1,42
 704 1368 704 1368 794 1350 c 128,-1,43
 884 1332 884 1332 969 1286 c 128,-1,44
 1054 1240 1054 1240 1086 1195 c 128,-1,45
 1118 1150 1118 1150 1186 1074 c 128,-1,46
 1254 998 1254 998 1254 882 c 2,9,-1
EndSplineSet
Validated: 1
EndChar

StartChar: E
Encoding: 69 69 36
Width: 1190
VWidth: 1894
Flags: W
HStem: 118 141<458.994 787.374> 548 310<552.4 693.346> 1098 210<870.714 975.27> 1198 136<602.893 853.434> 1368 20G<1043.25 1081.75>
VStem: 202 250<298.088 623 797 1104.46> 218 238<253 623>
LayerCount: 2
Fore
SplineSet
456 253 m 1,0,1
 503 259 503 259 644 259 c 128,-1,2
 785 259 785 259 832 252 c 1,3,-1
 897 246 l 1,4,5
 907 255 907 255 930.5 288 c 128,-1,6
 954 321 954 321 1000 321 c 2,7,-1
 1002 321 l 2,8,9
 1060 321 1060 321 1060 248 c 128,-1,10
 1060 175 1060 175 1009 123 c 128,-1,11
 958 71 958 71 946 53 c 1,12,13
 945 25 945 25 913.5 14.5 c 128,-1,14
 882 4 882 4 859 4 c 0,15,16
 807 4 807 4 797 57 c 0,17,18
 790 90 790 90 784 98 c 1,19,20
 775 103 775 103 738.5 110.5 c 128,-1,21
 702 118 702 118 667 118 c 128,-1,22
 632 118 632 118 455 89 c 1,23,-1
 146 32 l 1,24,-1
 142 32 l 2,25,26
 72 32 72 32 72 87 c 0,27,28
 72 95 72 95 75 118 c 128,-1,29
 78 141 78 141 126 172 c 1,30,-1
 218 236 l 1,31,-1
 202 833 l 1,32,33
 189 1058 189 1058 173 1106 c 0,34,35
 172 1107 172 1107 171 1108 c 2,36,-1
 149 1110 l 1,37,-1
 146 1106 l 1,38,-1
 136 1106 l 2,39,40
 44 1106 44 1106 44 1187 c 2,41,-1
 44 1188 l 2,42,43
 44 1228 44 1228 89.5 1262 c 128,-1,44
 135 1296 135 1296 211.5 1315 c 128,-1,45
 288 1334 288 1334 562 1334 c 128,-1,46
 836 1334 836 1334 877 1321 c 128,-1,47
 918 1308 918 1308 931 1308 c 128,-1,48
 944 1308 944 1308 955 1311 c 128,-1,49
 966 1314 966 1314 995 1351 c 128,-1,50
 1024 1388 1024 1388 1062.5 1388 c 128,-1,51
 1101 1388 1101 1388 1120.5 1366.5 c 128,-1,52
 1140 1345 1140 1345 1140 1311 c 128,-1,53
 1140 1277 1140 1277 1103 1215 c 0,54,55
 1031 1098 1031 1098 952 1098 c 0,56,57
 910 1098 910 1098 887 1127 c 128,-1,58
 864 1156 864 1156 795.5 1177 c 128,-1,59
 727 1198 727 1198 704 1198 c 1,60,-1
 436 1160 l 1,61,62
 443 978 443 978 448 797 c 1,63,64
 471 800 471 800 514.5 805 c 128,-1,65
 558 810 558 810 597 834 c 128,-1,66
 636 858 636 858 660 858 c 2,67,-1
 661 858 l 1,68,-1
 719 843 l 1,69,70
 768 824 768 824 768 759 c 128,-1,71
 768 694 768 694 716 621 c 128,-1,72
 664 548 664 548 614 548 c 128,-1,73
 564 548 564 548 520 601 c 1,74,-1
 493 632 l 1,75,-1
 452 623 l 1,76,77
 456 437 456 437 456 253 c 1,0,1
EndSplineSet
Validated: 1
EndChar

StartChar: F
Encoding: 70 70 37
Width: 1280
VWidth: 1894
Flags: W
HStem: 516 308<665.219 790.4> 600 159<493 636> 1065 297<1053.51 1166.65> 1106 159<78.5437 238.81 517.304 803.115> 1153 157<523.378 992>
VStem: 254 225<186.161 598>
LayerCount: 2
Fore
SplineSet
167 1265 m 1,0,-1
 171 1264 l 1,1,2
 229 1264 229 1264 257.5 1282 c 128,-1,3
 286 1300 286 1300 328 1300 c 128,-1,4
 370 1300 370 1300 402.5 1284 c 128,-1,5
 435 1268 435 1268 458.5 1268 c 128,-1,6
 482 1268 482 1268 596.5 1289 c 128,-1,7
 711 1310 711 1310 863.5 1310 c 128,-1,8
 1016 1310 1016 1310 1041 1314 c 128,-1,9
 1066 1318 1066 1318 1090 1340 c 128,-1,10
 1114 1362 1114 1362 1132 1362 c 2,11,-1
 1140 1362 l 2,12,13
 1174 1362 1174 1362 1194 1340.5 c 128,-1,14
 1214 1319 1214 1319 1216 1283 c 2,15,-1
 1216 1282 l 1,16,-1
 1216 1246 l 2,17,18
 1216 1209 1216 1209 1182 1137 c 128,-1,19
 1148 1065 1148 1065 1104 1065 c 128,-1,20
 1060 1065 1060 1065 1021 1116 c 2,21,-1
 992 1153 l 1,22,-1
 890 1153 l 2,23,24
 770 1153 770 1153 683.5 1139 c 128,-1,25
 597 1125 597 1125 521 1114 c 1,26,27
 508 937 508 937 493 759 c 1,28,29
 531 762 531 762 582.5 762 c 128,-1,30
 634 762 634 762 647.5 767 c 128,-1,31
 661 772 661 772 682.5 798 c 128,-1,32
 704 824 704 824 747 824 c 128,-1,33
 790 824 790 824 813 809 c 128,-1,34
 836 794 836 794 836 749 c 128,-1,35
 836 704 836 704 823 631 c 128,-1,36
 810 558 810 558 791 537 c 128,-1,37
 772 516 772 516 729 516 c 128,-1,38
 686 516 686 516 652 576 c 1,39,-1
 636 600 l 1,40,-1
 522 600 l 1,41,-1
 479 598 l 1,42,43
 460 381 460 381 437 166 c 1,44,45
 489 132 489 132 496 117.5 c 128,-1,46
 503 103 503 103 503 92 c 2,47,-1
 503 91 l 1,48,-1
 499 64 l 1,49,50
 483 27 483 27 425 13.5 c 128,-1,51
 367 0 367 0 316 0 c 1,52,-1
 101 6 l 1,53,54
 84 12 84 12 71 25 c 1,55,-1
 60 58 l 1,56,-1
 60 60 l 2,57,58
 60 85 60 85 86 105 c 128,-1,59
 112 125 112 125 169 150.5 c 128,-1,60
 226 176 226 176 226 244 c 2,61,-1
 226 276 l 2,62,63
 226 302 226 302 240 373 c 128,-1,64
 254 444 254 444 254 518 c 1,65,-1
 236 965 l 1,66,-1
 246 1083 l 1,67,68
 245 1097 245 1097 239 1102.5 c 128,-1,69
 233 1108 233 1108 216 1108 c 2,70,-1
 152 1106 l 1,71,72
 67 1106 67 1106 62 1178 c 1,73,-1
 62 1192 l 1,74,-1
 78 1240 l 1,75,76
 95 1265 95 1265 163 1265 c 2,77,-1
 167 1265 l 1,0,-1
EndSplineSet
Validated: 1
EndChar

StartChar: G
Encoding: 71 71 38
Width: 1162
VWidth: 1894
Flags: W
HStem: -18 132<458.768 750.306> 520 162<663.552 856.701> 1231 147<604.753 838.125> 1338 20G<986 1025.5>
VStem: 61 227<198.012 909.806>
LayerCount: 2
Fore
SplineSet
994 62 m 1,0,-1
 918 70 l 1,1,2
 901 70 901 70 867 50 c 0,3,4
 755 -18 755 -18 569 -18 c 2,5,-1
 562 -18 l 2,6,7
 373 -18 373 -18 292.5 23 c 128,-1,8
 212 64 212 64 162 120 c 0,9,10
 65 228 65 228 61 339 c 1,11,-1
 56 570 l 1,12,13
 56 804 56 804 93 894 c 128,-1,14
 130 984 130 984 147 1054.5 c 128,-1,15
 164 1125 164 1125 249 1218 c 0,16,17
 394 1378 394 1378 611 1378 c 0,18,19
 696 1378 696 1378 794 1355 c 128,-1,20
 892 1332 892 1332 912 1332 c 128,-1,21
 932 1332 932 1332 950 1345 c 128,-1,22
 968 1358 968 1358 1004 1358 c 2,23,-1
 1006 1358 l 2,24,25
 1045 1358 1045 1358 1065.5 1336 c 128,-1,26
 1086 1314 1086 1314 1088 1279 c 2,27,-1
 1090 1239 l 1,28,29
 1090 1209 1090 1209 1059 1140 c 128,-1,30
 1028 1071 1028 1071 981 1054 c 1,31,32
 941 1057 941 1057 906 1111 c 128,-1,33
 871 1165 871 1165 841.5 1184.5 c 128,-1,34
 812 1204 812 1204 759.5 1217.5 c 128,-1,35
 707 1231 707 1231 673 1231 c 2,36,-1
 664 1231 l 1,37,38
 628 1229 628 1229 604 1226 c 1,39,40
 466 1153 466 1153 377 1010.5 c 128,-1,41
 288 868 288 868 288 543 c 0,42,43
 288 421 288 421 300 273 c 0,44,45
 304 226 304 226 368 142 c 1,46,-1
 554 114 l 1,47,48
 694 114 694 114 759 163 c 1,49,50
 806 344 806 344 858 520 c 1,51,-1
 809 520 l 2,52,53
 656 520 656 520 644 608 c 1,54,-1
 641 611 l 1,55,-1
 641 622 l 2,56,57
 641 688 641 688 758 688 c 1,58,-1
 848 682 l 1,59,60
 904 684 904 684 952 700 c 128,-1,61
 1000 716 1000 716 1020 716 c 128,-1,62
 1040 716 1040 716 1064 684 c 1,63,64
 1098 652 1098 652 1099 619 c 128,-1,65
 1100 586 1100 586 1100 544.5 c 128,-1,66
 1100 503 1100 503 1085 346 c 128,-1,67
 1070 189 1070 189 1067 147 c 128,-1,68
 1064 105 1064 105 1041 83.5 c 128,-1,69
 1018 62 1018 62 994 62 c 1,0,-1
EndSplineSet
Validated: 1
EndChar

StartChar: H
Encoding: 72 72 39
Width: 1280
VWidth: 1894
Flags: W
HStem: 6 175.5<72.0381 164.807> 740 160<648.919 902> 1326 20G<309 347 969.25 1097.75>
VStem: 882 227<229 721.872> 902 252<314.781 740 900 1211>
LayerCount: 2
Fore
SplineSet
882 1314 m 0,0,1
 905 1370 905 1370 1033.5 1370 c 128,-1,2
 1162 1370 1162 1370 1190 1339 c 128,-1,3
 1218 1308 1218 1308 1223 1281 c 1,4,-1
 1226 1278 l 1,5,-1
 1226 1268 l 2,6,7
 1226 1234 1226 1234 1201 1214 c 0,8,9
 1154 1176 1154 1176 1154 962 c 2,10,-1
 1154 908 l 2,11,12
 1154 806 1154 806 1138 664.5 c 128,-1,13
 1122 523 1122 523 1116 412 c 1,14,-1
 1109 229 l 1,15,-1
 1144 180 l 1,16,17
 1186 132 1186 132 1186 108 c 2,18,-1
 1186 106 l 2,19,20
 1186 54 1186 54 1112 24 c 0,21,22
 1020 -13 1020 -13 966 -14 c 0,23,24
 958 -14 958 -14 950 -14 c 0,25,26
 850 -14 850 -14 820 10 c 0,27,28
 804 23 804 23 804 63.5 c 128,-1,29
 804 104 804 104 856 147 c 1,30,31
 870 152 870 152 882 157 c 1,32,33
 889 450 889 450 902 740 c 1,34,-1
 886 740 l 2,35,36
 808 740 808 740 746 725 c 128,-1,37
 684 710 684 710 591.5 674.5 c 128,-1,38
 499 639 499 639 452 622 c 1,39,40
 430 383 430 383 403 145 c 1,41,-1
 450 118 l 2,42,43
 464 110 464 110 464 92 c 0,44,45
 464 91 464 91 465 91 c 0,46,47
 465 74 465 74 451 61 c 1,48,49
 414 6 414 6 222 6 c 2,50,-1
 206 6 l 2,51,52
 60 6 60 6 58 96 c 1,53,-1
 58 100 l 2,54,55
 58 135 58 135 81 156 c 128,-1,56
 104 177 104 177 131.5 181.5 c 128,-1,57
 159 186 159 186 165 202 c 0,58,59
 176 228 176 228 192 379 c 128,-1,60
 208 530 208 530 208 637 c 1,61,-1
 198 1288 l 1,62,-1
 240 1316 l 1,63,64
 290 1344 290 1344 328 1346 c 2,65,-1
 329 1346 l 1,66,-1
 345 1346 l 1,67,-1
 347 1342 l 1,68,-1
 400 1342 l 2,69,70
 475 1342 475 1342 508.5 1320 c 128,-1,71
 542 1298 542 1298 542 1270 c 2,72,-1
 542 1264 l 1,73,-1
 540 1252 l 1,74,-1
 540 1243 l 1,75,76
 516 1235 516 1235 503 1228 c 1,77,78
 487 1020 487 1020 469 813 c 1,79,-1
 498 818 l 2,80,81
 563 829 563 829 594.5 845.5 c 128,-1,82
 626 862 626 862 726.5 881 c 128,-1,83
 827 900 827 900 903 900 c 2,84,-1
 908 900 l 1,85,86
 916 1061 916 1061 925 1221 c 1,87,88
 918 1222 918 1222 914 1222 c 2,89,-1
 887 1222 l 1,90,-1
 872 1266 l 1,91,-1
 872 1268 l 2,92,93
 872 1291 872 1291 882 1314 c 0,0,1
EndSplineSet
Validated: 1
EndChar

StartChar: I
Encoding: 73 73 40
Width: 572
VWidth: 1894
Flags: W
HStem: -6 21G<155 337> 1320 20G<363.5 390.5>
VStem: 185 252<165.469 977.266> 217 224<367.969 1122.83>
LayerCount: 2
Fore
SplineSet
437 170 m 1,0,1
 510 139 510 139 510 82 c 0,2,3
 510 58 510 58 469 26 c 128,-1,4
 428 -6 428 -6 246 -6 c 128,-1,5
 64 -6 64 -6 64 70 c 2,6,-1
 64 72 l 2,7,8
 64 120 64 120 109.5 139.5 c 128,-1,9
 155 159 155 159 176 164 c 1,10,11
 184 210 184 210 185 384 c 0,12,13
 187 670 187 670 194.5 689 c 128,-1,14
 202 708 202 708 209.5 811 c 128,-1,15
 217 914 217 914 217 931 c 2,16,-1
 214 1072 l 1,17,18
 212 1118 212 1118 202 1123 c 0,19,20
 181 1133 181 1133 144 1140 c 0,21,22
 72 1152 72 1152 70 1214 c 1,23,-1
 70 1221 l 1,24,25
 72 1275 72 1275 111 1288.5 c 128,-1,26
 150 1302 150 1302 250 1321 c 128,-1,27
 350 1340 350 1340 377 1340 c 128,-1,28
 404 1340 404 1340 436 1316 c 1,29,-1
 482 1274 l 1,30,-1
 436 1199 l 1,31,32
 441 852 441 852 441 679.5 c 128,-1,33
 441 507 441 507 439 360 c 2,34,-1
 437 170 l 1,0,1
EndSplineSet
Validated: 1
EndChar

StartChar: J
Encoding: 74 74 41
Width: 1080
VWidth: 1894
Flags: W
HStem: -40 150<313 591.537> 532 197<608.561 749.278> 1188 168<368.585 793.748>
VStem: 65 188<218.494 317.18> 770 242<729.464 1182.48> 794 218<745.57 1185.8>
LayerCount: 2
Fore
SplineSet
742 1188 m 2,0,1
 641 1188 641 1188 516.5 1170 c 128,-1,2
 392 1152 392 1152 358.5 1140 c 128,-1,3
 325 1128 325 1128 313.5 1086 c 128,-1,4
 302 1044 302 1044 286 1023 c 128,-1,5
 270 1002 270 1002 228 1002 c 0,6,7
 138 1002 138 1002 138 1140 c 0,8,9
 138 1172 138 1172 152 1208 c 128,-1,10
 166 1244 166 1244 243 1279 c 128,-1,11
 320 1314 320 1314 432 1325 c 128,-1,12
 544 1336 544 1336 628.5 1346 c 128,-1,13
 713 1356 713 1356 754.5 1356 c 128,-1,14
 796 1356 796 1356 871 1342 c 128,-1,15
 946 1328 946 1328 981 1294 c 128,-1,16
 1016 1260 1016 1260 1016 1096 c 1,17,-1
 1006 882 l 1,18,-1
 1012 742 l 1,19,20
 1012 680 1012 680 981 526 c 128,-1,21
 950 372 950 372 921 294 c 128,-1,22
 892 216 892 216 833 131.5 c 128,-1,23
 774 47 774 47 726 3.5 c 128,-1,24
 678 -40 678 -40 526 -40 c 2,25,-1
 516 -40 l 2,26,27
 282 -40 282 -40 172 42 c 128,-1,28
 62 124 62 124 62 217 c 0,29,30
 62 265 62 265 65 289.5 c 128,-1,31
 68 314 68 314 83 329 c 128,-1,32
 98 344 98 344 142 344 c 128,-1,33
 186 344 186 344 210 318 c 128,-1,34
 234 292 234 292 253 235 c 128,-1,35
 272 178 272 178 282 168 c 128,-1,36
 292 158 292 158 374.5 134 c 128,-1,37
 457 110 457 110 493 110 c 128,-1,38
 529 110 529 110 545 111 c 1,39,40
 631 179 631 179 678 260.5 c 128,-1,41
 725 342 725 342 750 543 c 1,42,43
 727 532 727 532 690 532 c 0,44,45
 612 532 612 532 587 624 c 0,46,47
 585 634 585 634 584 643 c 0,48,49
 584 706 584 706 722 729 c 0,50,51
 755 734 755 734 770 737 c 1,52,53
 792 1012 792 1012 794 1188 c 1,54,-1
 742 1188 l 2,0,1
EndSplineSet
Validated: 1
EndChar

StartChar: K
Encoding: 75 75 42
Width: 1296
VWidth: 1894
Flags: W
HStem: -6 21G<164 224> 1326 20G<166 343 941.5 1137>
VStem: 194 241<173.886 513.377 641 1124.68>
LayerCount: 2
Fore
SplineSet
60 1217 m 1,0,1
 93 1346 93 1346 239 1346 c 0,2,3
 447 1346 447 1346 477 1310 c 0,4,5
 492 1292 492 1292 492.5 1260 c 128,-1,6
 493 1228 493 1228 469.5 1218.5 c 128,-1,7
 446 1209 446 1209 430 1202 c 1,8,9
 434 957 434 957 435 811 c 2,10,-1
 435 641 l 1,11,12
 481 682 481 682 633.5 845 c 128,-1,13
 786 1008 786 1008 827.5 1088.5 c 128,-1,14
 869 1169 869 1169 873 1193 c 1,15,-1
 857 1270 l 1,16,-1
 857 1272 l 1,17,18
 859 1360 859 1360 1024 1360 c 1,19,-1
 1137 1356 l 1,20,-1
 1138 1356 l 1,21,22
 1177 1352 1177 1352 1198.5 1333 c 128,-1,23
 1220 1314 1220 1314 1220 1290 c 0,24,25
 1220 1223 1220 1223 1159 1199 c 1,26,-1
 1068 1142 l 1,27,-1
 810 829 l 1,28,29
 788 801 788 801 766 771 c 0,30,31
 728 721 728 721 696 683 c 1,32,33
 727 657 727 657 816 571.5 c 128,-1,34
 905 486 905 486 979.5 404 c 128,-1,35
 1054 322 1054 322 1096 267 c 128,-1,36
 1138 212 1138 212 1174 179 c 0,37,38
 1236 121 1236 121 1236 96 c 0,39,40
 1236 0 1236 0 1106 0 c 0,41,42
 895 0 895 0 873 36 c 128,-1,43
 851 72 851 72 851 102 c 2,44,-1
 851 111 l 1,45,-1
 928 146 l 1,46,47
 774 298 774 298 653 434 c 1,48,-1
 536 567 l 1,49,50
 492 526 492 526 434 471 c 1,51,52
 433 313 433 313 431 156 c 1,53,-1
 449 148 l 1,54,55
 498 129 498 129 508 93 c 1,56,-1
 502 61 l 1,57,58
 492 46 492 46 485.5 42 c 128,-1,59
 479 38 479 38 474 28 c 0,60,61
 467 12 467 12 412 8 c 128,-1,62
 357 4 357 4 298.5 -1 c 128,-1,63
 240 -6 240 -6 208 -6 c 0,64,65
 120 -6 120 -6 99 24.5 c 128,-1,66
 78 55 78 55 78 76.5 c 128,-1,67
 78 98 78 98 98 119 c 128,-1,68
 118 140 118 140 144.5 151 c 128,-1,69
 171 162 171 162 173.5 173.5 c 128,-1,70
 176 185 176 185 185 307.5 c 128,-1,71
 194 430 194 430 194 726 c 128,-1,72
 194 1022 194 1022 186.5 1068.5 c 128,-1,73
 179 1115 179 1115 174 1125 c 1,74,75
 168 1129 168 1129 140 1135 c 128,-1,76
 112 1141 112 1141 86 1167.5 c 128,-1,77
 60 1194 60 1194 60 1212 c 2,78,-1
 60 1217 l 1,0,1
EndSplineSet
Validated: 1
EndChar

StartChar: L
Encoding: 76 76 43
Width: 1194
VWidth: 1894
Flags: W
HStem: -30 170<74.125 230.993> -12 158<472 789.515> 36 167<624.779 918.816> 1329 20G<192.5 412.5>
VStem: 212 234<621.884 1166> 232 240<146 674.733>
LayerCount: 2
Fore
SplineSet
236 1349 m 2,0,-1
 392 1349 l 9,1,2
 433 1348 433 1348 481.5 1325.5 c 152,-1,3
 530 1303 530 1303 530 1282.5 c 144,-1,4
 530 1262 530 1262 446 1183 c 1,5,6
 469 644 469 644 472 146 c 1,7,-1
 584 156 l 1,8,9
 646 156 646 156 753 179.5 c 128,-1,10
 860 203 860 203 900 203 c 128,-1,11
 940 203 940 203 945.5 205 c 128,-1,12
 951 207 951 207 955.5 221.5 c 128,-1,13
 960 236 960 236 989 269.5 c 128,-1,14
 1018 303 1018 303 1048 303 c 128,-1,15
 1078 303 1078 303 1104 266 c 128,-1,16
 1130 229 1130 229 1130 178.5 c 128,-1,17
 1130 128 1130 128 1075 64 c 1,18,-1
 1005 -13 l 1,19,-1
 973 -20 l 1,20,-1
 951 -20 l 1,21,22
 916 -14 916 -14 897 11 c 128,-1,23
 878 36 878 36 830 36 c 128,-1,24
 782 36 782 36 725 17 c 128,-1,25
 668 -2 668 -2 466 -12 c 128,-1,26
 264 -22 264 -22 231 -26 c 128,-1,27
 198 -30 198 -30 180 -30 c 0,28,29
 64 -30 64 -30 64 54 c 2,30,-1
 64 56 l 2,31,32
 64 140 64 140 192 140 c 2,33,-1
 232 140 l 1,34,-1
 212 886 l 1,35,-1
 208 1166 l 1,36,-1
 174 1175 l 2,37,38
 133 1186 133 1186 98 1221 c 1,39,-1
 84 1252 l 1,40,-1
 84 1258 l 1,41,-1
 101 1307 l 1,42,-1
 106 1307 l 1,43,44
 149 1349 149 1349 236 1349 c 2,0,-1
EndSplineSet
Validated: 1
EndChar

StartChar: M
Encoding: 77 77 44
Width: 1650
VWidth: 1894
Flags: W
HStem: 1324 20G<36.806 108 1499.5 1550.5>
VStem: 204 240<115.834 833.518> 1196 254<249.52 843>
LayerCount: 2
Fore
SplineSet
1590 90 m 0,0,1
 1590 74 1590 74 1580 38 c 128,-1,2
 1570 2 1570 2 1539 -11 c 128,-1,3
 1508 -24 1508 -24 1486.5 -24 c 128,-1,4
 1465 -24 1465 -24 1443.5 -10 c 128,-1,5
 1422 4 1422 4 1397 4 c 128,-1,6
 1372 4 1372 4 1332.5 -11 c 128,-1,7
 1293 -26 1293 -26 1278 -26 c 1,8,-1
 1180 -34 l 1,9,10
 1144 -3 1144 -3 1145 15 c 128,-1,11
 1146 33 1146 33 1153 53.5 c 128,-1,12
 1160 74 1160 74 1187.5 87 c 128,-1,13
 1215 100 1215 100 1230 112 c 1,14,15
 1205 479 1205 479 1196 843 c 1,16,17
 1176 817 1176 817 1134 762 c 128,-1,18
 1092 707 1092 707 1071 671.5 c 128,-1,19
 1050 636 1050 636 1023 617 c 128,-1,20
 996 598 996 598 949.5 598 c 128,-1,21
 903 598 903 598 864.5 610.5 c 128,-1,22
 826 623 826 623 441 902 c 1,23,24
 444 714 444 714 444 510 c 128,-1,25
 444 306 444 306 440 84 c 1,26,27
 449 76 449 76 463.5 60 c 128,-1,28
 478 44 478 44 478 12 c 2,29,-1
 478 -0 l 1,30,-1
 401 -28 l 1,31,-1
 282 -34 l 1,32,-1
 280 -32 l 1,33,-1
 182 -32 l 2,34,35
 128 -32 128 -32 105 -9 c 128,-1,36
 82 14 82 14 82 34 c 2,37,-1
 82 38 l 1,38,-1
 101 74 l 1,39,40
 130 105 130 105 171 120.5 c 128,-1,41
 212 136 212 136 214 155 c 1,42,-1
 204 452 l 1,43,-1
 206 693 l 1,44,-1
 203 766 l 1,45,-1
 190 984 l 1,46,-1
 174 1090 l 1,47,48
 174 1104 174 1104 126 1140 c 128,-1,49
 78 1176 78 1176 56 1205 c 128,-1,50
 34 1234 34 1234 34 1270 c 2,51,-1
 34 1277 l 1,52,-1
 38 1344 l 1,53,-1
 108 1334 l 1,54,55
 156 1324 156 1324 198 1290 c 1,56,-1
 610 1032 l 1,57,58
 792 922 792 922 900 778 c 1,59,60
 923 745 923 745 935 734 c 1,61,-1
 950 740 l 1,62,63
 970 764 970 764 1050.5 881.5 c 128,-1,64
 1131 999 1131 999 1155.5 1034.5 c 128,-1,65
 1180 1070 1180 1070 1217 1165.5 c 128,-1,66
 1254 1261 1254 1261 1323 1328 c 0,67,68
 1332 1337 1332 1337 1359 1340.5 c 128,-1,69
 1386 1344 1386 1344 1430 1352 c 128,-1,70
 1474 1360 1474 1360 1525 1360 c 128,-1,71
 1576 1360 1576 1360 1576 1329.5 c 128,-1,72
 1576 1299 1576 1299 1541 1258 c 128,-1,73
 1506 1217 1506 1217 1494 1180 c 128,-1,74
 1482 1143 1482 1143 1466 1059 c 128,-1,75
 1450 975 1450 975 1450 705.5 c 128,-1,76
 1450 436 1450 436 1458 404 c 1,77,-1
 1466 343 l 1,78,-1
 1456 258 l 1,79,80
 1457 193 1457 193 1493 177 c 0,81,82
 1590 133 1590 133 1590 90 c 0,0,1
EndSplineSet
Validated: 1
EndChar

StartChar: N
Encoding: 78 78 45
Width: 1328
VWidth: 1894
Flags: W
HStem: -33 169<84.6304 178.727> -24 129<386 423> 1338 20G<1083 1223>
VStem: 70 353<-16.8719 110.767> 966 350<1159.28 1312.41> 1025 143<497.651 890.86>
LayerCount: 2
Fore
SplineSet
410 -24 m 2,0,-1
 315 -19 l 1,1,2
 255 -19 255 -19 207 -26 c 128,-1,3
 159 -33 159 -33 151 -33 c 0,4,5
 97 -33 97 -33 76 21 c 1,6,7
 70 33 70 33 70 61 c 128,-1,8
 70 89 70 89 111.5 109.5 c 128,-1,9
 153 130 153 130 174 136 c 1,10,11
 185 194 185 194 192 480 c 128,-1,12
 199 766 199 766 199 908 c 2,13,-1
 199 941 l 2,14,15
 198 1079 198 1079 191 1099.5 c 128,-1,16
 184 1120 184 1120 133 1144 c 128,-1,17
 82 1168 82 1168 68 1184 c 128,-1,18
 54 1200 54 1200 52 1239 c 1,19,-1
 42 1310 l 1,20,-1
 342 1304 l 1,21,-1
 357 1234 l 2,22,23
 368 1185 368 1185 399 1163 c 1,24,-1
 464 1111 l 1,25,26
 490 1084 490 1084 608 942 c 0,27,28
 829 676 829 676 939 511 c 0,29,30
 966 470 966 470 966.5 457.5 c 128,-1,31
 967 445 967 445 982 420 c 1,32,33
 1012 589 1012 589 1025 976 c 2,34,-1
 1031 1144 l 1,35,-1
 1009 1160 l 1,36,37
 966 1194 966 1194 966 1233 c 128,-1,38
 966 1272 966 1272 997 1301.5 c 128,-1,39
 1028 1331 1028 1331 1083 1342 c 1,40,-1
 1200 1358 l 1,41,-1
 1201 1358 l 2,42,43
 1245 1358 1245 1358 1280.5 1327.5 c 128,-1,44
 1316 1297 1316 1297 1316 1269 c 2,45,-1
 1316 1220 l 2,46,47
 1316 1178 1316 1178 1280 1163 c 128,-1,48
 1244 1148 1244 1148 1236 1135 c 0,49,50
 1176 1030 1176 1030 1168 414 c 1,51,-1
 1158 20 l 1,52,-1
 1116 -18 l 1,53,54
 1078 -56 1078 -56 1034 -56 c 2,55,-1
 1032 -56 l 2,56,57
 986 -56 986 -56 965 -30 c 128,-1,58
 944 -4 944 -4 929.5 70.5 c 128,-1,59
 915 145 915 145 883 220 c 1,60,61
 660 506 660 506 443 795 c 1,62,63
 420 448 420 448 386 105 c 1,64,-1
 423 111 l 1,65,-1
 423 101 l 1,66,67
 459 68 459 68 459 31 c 2,68,-1
 459 30 l 2,69,70
 459 20 459 20 448 3.5 c 128,-1,71
 437 -13 437 -13 434 -17 c 1,72,73
 412 -24 412 -24 410 -24 c 2,0,-1
EndSplineSet
Validated: 1
EndChar

StartChar: O
Encoding: 79 79 46
Width: 1274
VWidth: 1894
Flags: W
HStem: 1252 140<459.846 834.6>
VStem: 56 226<436 973.812> 977 233<416.755 1018.98>
LayerCount: 2
Fore
SplineSet
977 777 m 0,0,1
 977 905 977 905 967 1059 c 1,2,3
 955 1093 955 1093 920 1137 c 128,-1,4
 885 1181 885 1181 827.5 1211.5 c 128,-1,5
 770 1242 770 1242 747 1247 c 128,-1,6
 724 1252 724 1252 648 1252 c 0,7,8
 548 1252 548 1252 457 1207 c 1,9,10
 403 1146 403 1146 362 1066 c 0,11,12
 282 906 282 906 282 551 c 0,13,14
 282 424 282 424 292 271 c 1,15,16
 334 203 334 203 400 169.5 c 128,-1,17
 466 136 466 136 558 119 c 128,-1,18
 650 102 650 102 681 102 c 1,19,-1
 727 109 l 1,20,21
 785 127 785 127 831 155 c 1,22,23
 868 203 868 203 897 262 c 0,24,25
 977 422 977 422 977 777 c 0,0,1
400 19 m 1,26,27
 351 36 351 36 281.5 76 c 128,-1,28
 212 116 212 116 171 170 c 128,-1,29
 130 224 130 224 101 305.5 c 128,-1,30
 72 387 72 387 66 436 c 1,31,-1
 56 571 l 1,32,33
 56 632 56 632 68 766 c 128,-1,34
 80 900 80 900 96 957 c 128,-1,35
 112 1014 112 1014 150 1114 c 128,-1,36
 188 1214 188 1214 206 1243 c 128,-1,37
 224 1272 224 1272 286 1314 c 0,38,39
 402 1392 402 1392 590 1400 c 1,40,-1
 713 1392 l 1,41,-1
 714 1392 l 1,42,43
 874 1366 874 1366 954.5 1309 c 128,-1,44
 1035 1252 1035 1252 1082.5 1192 c 128,-1,45
 1130 1132 1130 1132 1166 1019 c 128,-1,46
 1202 906 1202 906 1206 873 c 128,-1,47
 1210 840 1210 840 1210 793 c 128,-1,48
 1210 746 1210 746 1202 602 c 128,-1,49
 1194 458 1194 458 1112 269 c 128,-1,50
 1030 80 1030 80 887 16 c 1,51,-1
 860 3 l 1,52,53
 831 -11 831 -11 786 -27 c 1,54,-1
 705 -42 l 1,55,-1
 544 -20 l 1,56,-1
 400 19 l 1,26,27
EndSplineSet
Validated: 1
EndChar

StartChar: P
Encoding: 80 80 47
Width: 1120
VWidth: 1894
Flags: W
HStem: 324 130<386.603 684.868> 1127 181<55.8672 149> 1201 145<418 765.957>
VStem: 828 240<668.571 1120.84>
LayerCount: 2
Fore
SplineSet
148 524 m 1,0,1
 164 724 164 724 164 890.5 c 128,-1,2
 164 1057 164 1057 149 1130 c 1,3,-1
 121 1127 l 1,4,-1
 120 1127 l 2,5,6
 94 1127 94 1127 58 1142.5 c 128,-1,7
 22 1158 22 1158 22 1198 c 0,8,9
 22 1269 22 1269 142 1308 c 0,10,11
 206 1328 206 1328 257 1328 c 128,-1,12
 308 1328 308 1328 341 1337 c 128,-1,13
 374 1346 374 1346 435 1346 c 128,-1,14
 496 1346 496 1346 646 1325 c 128,-1,15
 796 1304 796 1304 887 1256.5 c 128,-1,16
 978 1209 978 1209 1020 1127.5 c 128,-1,17
 1062 1046 1062 1046 1065 1008 c 128,-1,18
 1068 970 1068 970 1068 934.5 c 128,-1,19
 1068 899 1068 899 1043 754.5 c 128,-1,20
 1018 610 1018 610 951 514 c 128,-1,21
 884 418 884 418 863 399 c 128,-1,22
 842 380 842 380 752 352 c 128,-1,23
 662 324 662 324 596 324 c 128,-1,24
 530 324 530 324 476 338 c 128,-1,25
 422 352 422 352 404.5 352 c 128,-1,26
 387 352 387 352 378 352 c 1,27,28
 371 250 371 250 364 147 c 1,29,30
 371 143 371 143 391 133 c 128,-1,31
 411 123 411 123 422 102 c 128,-1,32
 433 81 433 81 433 62 c 128,-1,33
 433 43 433 43 406.5 29.5 c 128,-1,34
 380 16 380 16 290 2 c 128,-1,35
 200 -12 200 -12 141.5 -12 c 128,-1,36
 83 -12 83 -12 60 25 c 1,37,-1
 58 27 l 1,38,-1
 52 50 l 1,39,-1
 52 52 l 2,40,41
 52 84 52 84 90 118 c 1,42,-1
 124 146 l 1,43,-1
 148 524 l 1,0,1
386 484 m 1,44,45
 405 479 405 479 461 466.5 c 128,-1,46
 517 454 517 454 583.5 454 c 128,-1,47
 650 454 650 454 686 473 c 1,48,49
 828 690 828 690 828 900 c 0,50,51
 828 1029 828 1029 775 1158 c 1,52,53
 747 1168 747 1168 696.5 1182 c 128,-1,54
 646 1196 646 1196 488 1200 c 1,55,-1
 418 1201 l 1,56,57
 406 841 406 841 386 484 c 1,44,45
EndSplineSet
Validated: 1
EndChar

StartChar: Q
Encoding: 81 81 48
Width: 1228
VWidth: 1894
Flags: W
HStem: -22 162<374.711 550.036> -18 288<564.666 793.744> 1236 148<413.5 702.566>
VStem: 52 238<270.631 823.75> 926 246<362.058 969.75>
LayerCount: 2
Fore
SplineSet
1172 767 m 1,0,-1
 1164 570 l 1,1,2
 1152 412 1152 412 1127 349.5 c 128,-1,3
 1102 287 1102 287 1049.5 195 c 128,-1,4
 997 103 997 103 988.5 94.5 c 128,-1,5
 980 86 980 86 980 62 c 1,6,-1
 988 -46 l 1,7,-1
 1066 -46 l 2,8,9
 1138 -46 1138 -46 1138 -102 c 2,10,-1
 1138 -103 l 1,11,-1
 1125 -163 l 1,12,13
 1108 -206 1108 -206 1058 -247 c 128,-1,14
 1008 -288 1008 -288 956 -288 c 128,-1,15
 904 -288 904 -288 881.5 -256 c 128,-1,16
 859 -224 859 -224 830.5 -130 c 128,-1,17
 802 -36 802 -36 794 -23 c 1,18,19
 786 -18 786 -18 752 -18 c 1,20,-1
 634 -22 l 1,21,22
 441 -22 441 -22 334.5 28.5 c 128,-1,23
 228 79 228 79 190 118.5 c 128,-1,24
 152 158 152 158 108 246 c 128,-1,25
 64 334 64 334 58 416 c 128,-1,26
 52 498 52 498 52 561 c 128,-1,27
 52 624 52 624 75 728 c 128,-1,28
 98 832 98 832 125.5 947 c 128,-1,29
 153 1062 153 1062 208.5 1195 c 128,-1,30
 264 1328 264 1328 312 1356 c 128,-1,31
 360 1384 360 1384 467 1384 c 128,-1,32
 574 1384 574 1384 616 1366 c 128,-1,33
 658 1348 658 1348 715 1340 c 128,-1,34
 772 1332 772 1332 836.5 1285 c 128,-1,35
 901 1238 901 1238 911 1234 c 0,36,37
 950 1217 950 1217 956 1203 c 0,38,39
 958 1199 958 1199 973 1181 c 2,40,-1
 1008 1140 l 1,41,42
 1167 986 1167 986 1172 767 c 1,0,-1
537 141 m 1,43,44
 550 147 550 147 550 166 c 2,45,-1
 550 182 l 2,46,47
 550 270 550 270 696 270 c 0,48,49
 740 270 740 270 776 248.5 c 128,-1,50
 812 227 812 227 830 220 c 1,51,52
 854 275 854 275 890.5 389.5 c 128,-1,53
 927 504 927 504 927 680 c 1,54,-1
 926 684 l 1,55,-1
 926 686 l 2,56,57
 926 864 926 864 872 1046 c 1,58,59
 832 1084 832 1084 744 1160 c 128,-1,60
 656 1236 656 1236 562 1236 c 0,61,62
 545 1236 545 1236 530 1235 c 1,63,64
 446 1166 446 1166 385 1056 c 0,65,66
 290 883 290 883 290 473 c 0,67,68
 290 280 290 280 304 237 c 1,69,70
 350 189 350 189 420 164.5 c 128,-1,71
 490 140 490 140 512 140 c 2,72,-1
 537 141 l 1,43,44
EndSplineSet
Validated: 1
EndChar

StartChar: R
Encoding: 82 82 49
Width: 1144
VWidth: 1894
Flags: W
HStem: -55.5 160<1002.93 1067.68> 291 95<434 561.938> 1042 209<62.4766 161.811> 1165 175<457 745.817>
VStem: 182 269<555.114 1066.67> 190 240<139 291 386 955.634> 811 273<707.389 1126.5>
LayerCount: 2
Fore
SplineSet
749 1165 m 1,0,1
 647 1176 647 1176 564.5 1176 c 128,-1,2
 482 1176 482 1176 460 1165 c 1,3,-1
 457 1165 l 2,4,5
 457 1165 457 1165 451 1163 c 1,6,7
 447 772 447 772 434 386 c 1,8,-1
 448 386 l 2,9,10
 469 386 469 386 540 420 c 2,11,-1
 618 458 l 1,12,13
 811 689 811 689 811 912 c 0,14,15
 811 1039 811 1039 749 1165 c 1,0,1
438 -36 m 1,16,17
 423 -27 423 -27 394 -6 c 1,18,-1
 389 -6 l 1,19,-1
 336 -0 l 1,20,21
 307 0 307 0 281.5 -16 c 128,-1,22
 256 -32 256 -32 224 -32 c 2,23,-1
 198 -32 l 2,24,25
 159 -32 159 -32 133.5 -13.5 c 128,-1,26
 108 5 108 5 106 41 c 1,27,-1
 106 46 l 1,28,-1
 110 66 l 1,29,30
 114 91 114 91 143.5 114.5 c 128,-1,31
 173 138 173 138 181.5 211 c 128,-1,32
 190 284 190 284 190 393 c 2,33,-1
 190 534 l 1,34,35
 187 923 187 923 182 985 c 0,36,37
 177 1057 177 1057 165 1067 c 1,38,-1
 162 1067 l 1,39,40
 156 1064 156 1064 142 1053 c 128,-1,41
 128 1042 128 1042 110 1042 c 128,-1,42
 92 1042 92 1042 63 1069 c 128,-1,43
 34 1096 34 1096 34 1131 c 0,44,45
 34 1209 34 1209 124 1251 c 0,46,47
 166 1271 166 1271 272 1300 c 1,48,-1
 418 1336 l 2,49,50
 437 1340 437 1340 544.5 1340 c 128,-1,51
 652 1340 652 1340 775 1321 c 128,-1,52
 898 1302 898 1302 941 1276 c 128,-1,53
 984 1250 984 1250 1034 1165 c 128,-1,54
 1084 1080 1084 1080 1084 986.5 c 128,-1,55
 1084 893 1084 893 1051 750 c 0,56,57
 1018 606 1018 606 959 524 c 1,58,-1
 958 523 l 1,59,60
 919 476 919 476 843.5 430 c 128,-1,61
 768 384 768 384 748 367 c 1,62,63
 758 351 758 351 794 310 c 128,-1,64
 830 269 830 269 858 251 c 128,-1,65
 886 233 886 233 933 173 c 128,-1,66
 980 113 980 113 1019 104.5 c 128,-1,67
 1058 96 1058 96 1068 80.5 c 128,-1,68
 1078 65 1078 65 1078 20 c 128,-1,69
 1078 -25 1078 -25 1069 -39 c 128,-1,70
 1060 -53 1060 -53 1046 -55.5 c 128,-1,71
 1032 -58 1032 -58 1002 -58 c 128,-1,72
 972 -58 972 -58 932 -44 c 128,-1,73
 892 -30 892 -30 793.5 -30 c 128,-1,74
 695 -30 695 -30 695 34 c 2,75,-1
 695 37 l 1,76,-1
 697 45 l 1,77,-1
 697 46 l 1,78,-1
 719 130 l 1,79,-1
 719 134 l 2,80,81
 719 160 719 160 631.5 224.5 c 128,-1,82
 544 289 544 289 529.5 293.5 c 128,-1,83
 515 298 515 298 498 298 c 1,84,-1
 430 291 l 1,85,-1
 424 139 l 1,86,-1
 473 100 l 1,87,88
 496 76 496 76 495 57 c 2,89,-1
 495 55 l 1,90,-1
 481 8 l 2,91,92
 480 5 480 5 477.5 0 c 128,-1,93
 475 -5 475 -5 473.5 -7.5 c 128,-1,94
 472 -10 472 -10 470 -14 c 128,-1,95
 468 -18 468 -18 466.5 -20 c 128,-1,96
 465 -22 465 -22 463 -25 c 128,-1,97
 461 -28 461 -28 459 -29.5 c 128,-1,98
 457 -31 457 -31 454 -33 c 0,99,100
 449 -36 449 -36 443 -36 c 2,101,-1
 438 -36 l 1,16,17
EndSplineSet
Validated: 1
EndChar

StartChar: S
Encoding: 83 83 50
Width: 1166
VWidth: 1894
Flags: W
HStem: 45 259<105.947 148 152 247.004> 986 372<795.499 933.299> 1206 188<453.091 792.881>
VStem: 94 219<819.453 1088.46> 883 219<269.08 521.469>
LayerCount: 2
Fore
SplineSet
148 302 m 1,0,-1
 152 304 l 1,1,-1
 158 304 l 2,2,3
 190 304 190 304 255 254 c 128,-1,4
 320 204 320 204 456 176 c 128,-1,5
 592 148 592 148 647 142 c 1,6,7
 883 229 883 229 883 399 c 0,8,9
 883 471 883 471 843 559 c 1,10,11
 789 601 789 601 726.5 610 c 128,-1,12
 664 619 664 619 522 621 c 128,-1,13
 380 623 380 623 341 631 c 0,14,15
 242 651 242 651 150 790 c 1,16,-1
 104 883 l 1,17,18
 94 912 94 912 94 992 c 128,-1,19
 94 1072 94 1072 119 1128 c 128,-1,20
 144 1184 144 1184 204 1243.5 c 128,-1,21
 264 1303 264 1303 285 1314 c 1,22,-1
 336 1325 l 1,23,-1
 346 1323 l 1,24,-1
 352 1323 l 1,25,-1
 486 1375 l 1,26,27
 543 1394 543 1394 611.5 1394 c 128,-1,28
 680 1394 680 1394 763 1372 c 128,-1,29
 846 1350 846 1350 890 1350 c 1,30,-1
 981 1358 l 1,31,-1
 982 1358 l 2,32,33
 1074 1358 1074 1358 1074 1296 c 0,34,35
 1074 1242 1074 1242 1016 1148 c 128,-1,36
 958 1054 958 1054 923 1020 c 0,37,38
 890 986 890 986 858 986 c 0,39,40
 790 986 790 986 789 1056 c 1,41,-1
 795 1150 l 1,42,-1
 794 1162 l 1,43,44
 763 1206 763 1206 635 1206 c 0,45,46
 503 1206 503 1206 478 1200 c 1,47,48
 313 1089 313 1089 313 960 c 0,49,50
 313 889 313 889 363 810 c 1,51,52
 433 790 433 790 602.5 778 c 128,-1,53
 772 766 772 766 833 743 c 0,54,55
 967 695 967 695 1052 532 c 1,56,57
 1094 448 1094 448 1098 408 c 128,-1,58
 1102 368 1102 368 1102 332 c 128,-1,59
 1102 296 1102 296 1076 225 c 128,-1,60
 1050 154 1050 154 985 81.5 c 128,-1,61
 920 9 920 9 878.5 -5.5 c 128,-1,62
 837 -20 837 -20 703.5 -20 c 128,-1,63
 570 -20 570 -20 436 17.5 c 128,-1,64
 302 55 302 55 242 55 c 1,65,-1
 128 45 l 1,66,-1
 126 45 l 2,67,68
 90 45 90 45 69 65.5 c 128,-1,69
 48 86 48 86 48 122 c 2,70,-1
 48 125 l 2,71,72
 48 166 48 166 79 228 c 1,73,74
 95 244 95 244 113 269 c 0,75,76
 129 292 129 292 145 302 c 1,77,-1
 148 302 l 1,0,-1
EndSplineSet
Validated: 1
EndChar

StartChar: T
Encoding: 84 84 51
Width: 1332
VWidth: 1894
Flags: W
HStem: 4 145<800 866.747> 1139 170<221.349 561> 1173 175<817.067 1040.64>
VStem: 549 268<595.252 1153> 556 244<175.224 474.184 552.704 722.781> 1116 186<1049.45 1191.97>
LayerCount: 2
Fore
SplineSet
482.5 147.5 m 128,-1,1
 491 153 491 153 510.5 160.5 c 128,-1,2
 530 168 530 168 536 175 c 128,-1,3
 542 182 542 182 548.5 211.5 c 128,-1,4
 555 241 555 241 556 269 c 1,5,-1
 540 498 l 1,6,-1
 549 1024 l 1,7,-1
 547 1083 l 1,8,-1
 561 1153 l 1,9,-1
 266 1139 l 1,10,11
 232 1131 232 1131 221 1117.5 c 128,-1,12
 210 1104 210 1104 200 1042 c 128,-1,13
 190 980 190 980 175 957 c 1,14,15
 150 932 150 932 124 932 c 2,16,-1
 118 932 l 1,17,18
 84 936 84 936 58 972 c 128,-1,19
 32 1008 32 1008 32 1120 c 128,-1,20
 32 1232 32 1232 45 1264 c 1,21,-1
 45 1266 l 1,22,-1
 72 1309 l 1,23,-1
 310 1309 l 2,24,25
 474 1309 474 1309 629 1319 c 128,-1,26
 784 1329 784 1329 801.5 1337.5 c 128,-1,27
 819 1346 819 1346 841 1348 c 1,28,-1
 908 1350 l 1,29,-1
 1233 1345 l 1,30,-1
 1234 1345 l 1,31,32
 1267 1342 1267 1342 1284.5 1326.5 c 128,-1,33
 1302 1311 1302 1311 1302 1269 c 0,34,35
 1302 1068 1302 1068 1222 1012 c 0,36,37
 1202 998 1202 998 1181 998 c 128,-1,38
 1160 998 1160 998 1138 1019.5 c 128,-1,39
 1116 1041 1116 1041 1116 1084 c 1,40,-1
 1112 1184 l 1,41,42
 1110 1191 1110 1191 1105 1192 c 1,43,-1
 1102 1191 l 1,44,-1
 907 1173 l 1,45,-1
 906 1173 l 1,46,-1
 905 1173 l 2,47,48
 847 1173 847 1173 817 1171 c 1,49,50
 817 657 817 657 800 151 c 1,51,-1
 809 149 l 1,52,53
 850 129 850 129 870 100 c 1,54,-1
 888 52 l 1,55,-1
 888 50 l 2,56,57
 888 15 888 15 841 4 c 1,58,59
 722 -1 722 -1 627 -1 c 0,60,61
 553 -1 553 -1 495 2 c 1,62,63
 477 10 477 10 461 22 c 1,64,-1
 428 62 l 1,65,-1
 428 73 l 1,66,-1
 443 112 l 1,67,68
 448 117 448 117 457 125.5 c 128,-1,69
 466 134 466 134 470 138 c 128,-1,0
 474 142 474 142 482.5 147.5 c 128,-1,1
EndSplineSet
Validated: 1
EndChar

StartChar: U
Encoding: 85 85 52
Width: 1282
VWidth: 1894
Flags: W
HStem: -24 166<463.199 765.583> 1330 20G<235 365 1099 1119>
VStem: 131 271<573.472 1118.15> 941 237<716.718 1154>
LayerCount: 2
Fore
SplineSet
361 282 m 1,0,1
 464 142 464 142 633 142 c 0,2,3
 773 142 773 142 864 304 c 1,4,5
 894 731 894 731 941 1154 c 1,6,-1
 935 1153 l 1,7,-1
 933 1153 l 2,8,9
 838 1153 838 1153 833 1227 c 1,10,-1
 833 1234 l 2,11,12
 833 1303 833 1303 921 1313.5 c 128,-1,13
 1009 1324 1009 1324 1049 1340 c 128,-1,14
 1089 1356 1089 1356 1109 1356 c 128,-1,15
 1129 1356 1129 1356 1173 1334 c 128,-1,16
 1217 1312 1217 1312 1232 1295 c 1,17,-1
 1248 1245 l 1,18,-1
 1242 1197 l 1,19,20
 1232 1173 1232 1173 1197 1166 c 0,21,22
 1179 1162 1179 1162 1178 1139 c 2,23,-1
 1178 1138 l 2,24,25
 1179 1104 1179 1104 1180 1094 c 0,26,27
 1181 1075 1181 1075 1181 1050 c 0,28,29
 1180 1032 1180 1032 1180 1010 c 0,30,31
 1178 960 1178 960 1145 724 c 0,32,33
 1094 369 1094 369 1033 237 c 0,34,35
 1014 196 1014 196 950 123 c 128,-1,36
 886 50 886 50 823 13 c 128,-1,37
 760 -24 760 -24 680 -24 c 128,-1,38
 600 -24 600 -24 489 -1 c 128,-1,39
 378 22 378 22 356 46 c 128,-1,40
 334 70 334 70 287.5 104.5 c 128,-1,41
 241 139 241 139 208 196.5 c 128,-1,42
 175 254 175 254 160.5 304.5 c 128,-1,43
 146 355 146 355 138.5 435.5 c 128,-1,44
 131 516 131 516 131 587 c 128,-1,45
 131 658 131 658 146 786 c 1,46,-1
 159 991 l 1,47,48
 149 1108 149 1108 143.5 1118.5 c 128,-1,49
 138 1129 138 1129 106 1144.5 c 128,-1,50
 74 1160 74 1160 65 1177.5 c 128,-1,51
 56 1195 56 1195 52 1206 c 1,52,-1
 42 1206 l 1,53,-1
 56 1261 l 1,54,55
 70 1286 70 1286 103 1297 c 0,56,57
 173 1321 173 1321 235 1330 c 1,58,-1
 351 1350 l 1,59,-1
 362 1350 l 1,60,-1
 365 1347 l 1,61,62
 387 1343 387 1343 415.5 1318 c 128,-1,63
 444 1293 444 1293 450 1250 c 1,64,-1
 452 1230 l 1,65,-1
 444 1190 l 1,66,-1
 402 1175 l 1,67,68
 391 725 391 725 361 282 c 1,0,1
EndSplineSet
Validated: 1
EndChar

StartChar: V
Encoding: 86 86 53
Width: 1330
VWidth: 1894
Flags: W
HStem: 1344 20G<311.75 431.25 1114 1182>
LayerCount: 2
Fore
SplineSet
30 1228 m 1,0,-1
 66 1276 l 2,1,2
 94 1316 94 1316 173 1340 c 128,-1,3
 252 1364 252 1364 371.5 1364 c 128,-1,4
 491 1364 491 1364 491 1281 c 0,5,6
 491 1270 491 1270 472 1256.5 c 128,-1,7
 453 1243 453 1243 447 1239 c 1,8,9
 622 776 622 776 780 315 c 1,10,11
 809 399 809 399 869.5 613.5 c 128,-1,12
 930 828 930 828 965 943 c 128,-1,13
 1000 1058 1000 1058 1015.5 1197 c 128,-1,14
 1031 1336 1031 1336 1055.5 1363 c 128,-1,15
 1080 1390 1080 1390 1148 1390 c 128,-1,16
 1216 1390 1216 1390 1262 1349 c 0,17,18
 1310 1308 1310 1308 1310 1277 c 0,19,-1
 1310 1276 l 0,20,21
 1310 1246 1310 1246 1267 1228 c 128,-1,22
 1224 1210 1224 1210 1216 1199 c 128,-1,23
 1208 1188 1208 1188 1198 1156.5 c 128,-1,24
 1188 1125 1188 1125 1139 984 c 0,25,26
 1081 816 1081 816 1070.5 773.5 c 128,-1,27
 1060 731 1060 731 1046 675 c 0,28,29
 983 431 983 431 930.5 289.5 c 128,-1,30
 878 148 878 148 878 92 c 2,31,-1
 878 86 l 2,32,33
 878 18 878 18 846 -9 c 0,34,35
 804 -45 804 -45 788.5 -53.5 c 128,-1,36
 773 -62 773 -62 758.5 -62 c 128,-1,37
 744 -62 744 -62 712 -46 c 128,-1,38
 680 -30 680 -30 648 50.5 c 128,-1,39
 616 131 616 131 550 274.5 c 128,-1,40
 484 418 484 418 466 452 c 128,-1,41
 448 486 448 486 423 554 c 128,-1,42
 398 622 398 622 372.5 667 c 128,-1,43
 347 712 347 712 323.5 790 c 128,-1,44
 300 868 300 868 259 946 c 128,-1,45
 218 1024 218 1024 209.5 1077 c 128,-1,46
 201 1130 201 1130 195 1144 c 1,47,48
 184 1148 184 1148 143 1151.5 c 128,-1,49
 102 1155 102 1155 72 1184 c 1,50,-1
 30 1228 l 1,0,-1
EndSplineSet
Validated: 1
EndChar

StartChar: W
Encoding: 87 87 54
Width: 1626
VWidth: 1894
Flags: W
LayerCount: 2
Fore
SplineSet
1588 1248.5 m 128,-1,1
 1588 1215 1588 1215 1538 1070 c 128,-1,2
 1488 925 1488 925 1467 888.5 c 128,-1,3
 1446 852 1446 852 1416 668 c 1,4,5
 1361 479 1361 479 1336.5 341 c 128,-1,6
 1312 203 1312 203 1264 114.5 c 128,-1,7
 1216 26 1216 26 1185 13 c 1,8,-1
 1184 13 l 1,9,-1
 1132 -1 l 1,10,11
 1039 24 1039 24 1002 104 c 1,12,13
 966 187 966 187 939.5 224 c 128,-1,14
 913 261 913 261 895 270 c 1,15,-1
 857 228 l 1,16,17
 837 189 837 189 819 123.5 c 128,-1,18
 801 58 801 58 767 14 c 1,19,-1
 765 15 l 1,20,-1
 740 0 l 1,21,-1
 677 -4 l 1,22,23
 572 -4 572 -4 542 32 c 1,24,25
 515 69 515 69 487 148.5 c 128,-1,26
 459 228 459 228 424.5 331.5 c 128,-1,27
 390 435 390 435 341.5 523 c 128,-1,28
 293 611 293 611 271.5 690.5 c 128,-1,29
 250 770 250 770 225 819 c 128,-1,30
 200 868 200 868 165 973 c 128,-1,31
 130 1078 130 1078 130 1115 c 128,-1,32
 130 1152 130 1152 82 1168 c 1,33,34
 20 1199 20 1199 20 1251 c 0,35,36
 20 1332 20 1332 234 1332 c 0,37,38
 293 1332 293 1332 324 1329 c 128,-1,39
 355 1326 355 1326 368 1311 c 1,40,41
 380 1295 380 1295 381 1263 c 1,42,-1
 372 1192 l 1,43,44
 364 1181 364 1181 360 1177 c 1,45,46
 548 733 548 733 715 290 c 1,47,48
 720 299 720 299 734 324.5 c 128,-1,49
 748 350 748 350 754.5 377.5 c 128,-1,50
 761 405 761 405 761 477.5 c 128,-1,51
 761 550 761 550 773 579.5 c 128,-1,52
 785 609 785 609 826.5 619 c 128,-1,53
 868 629 868 629 897.5 642.5 c 128,-1,54
 927 656 927 656 943 659 c 1,55,-1
 946 662 l 1,56,-1
 956 662 l 2,57,58
 978 662 978 662 1001 644 c 128,-1,59
 1024 626 1024 626 1024 582 c 1,60,-1
 1015 457 l 1,61,62
 1050 378 1050 378 1081 330 c 1,63,64
 1092 330 1092 330 1306 1204 c 1,65,66
 1255 1222 1255 1222 1254 1252 c 1,67,-1
 1257 1274 l 1,68,69
 1266 1299 1266 1299 1334 1304 c 1,70,-1
 1485 1320 l 1,71,-1
 1494 1320 l 1,72,-1
 1551 1301 l 1,73,-1
 1553 1302 l 1,74,0
 1588 1282 1588 1282 1588 1248.5 c 128,-1,1
EndSplineSet
Validated: 1
EndChar

StartChar: X
Encoding: 88 88 55
Width: 1208
VWidth: 1894
Flags: W
HStem: 2.5 163.5<79.1436 168.261> 1352 20G<910 1003>
VStem: 82 323<1154 1287.93> 775 371<50 138.094 1220.4 1334.04>
LayerCount: 2
Fore
SplineSet
1086 1220 m 1,0,1
 1026 1092 1026 1092 732 608 c 1,2,3
 754 564 754 564 813 452 c 128,-1,4
 872 340 872 340 914 304 c 128,-1,5
 956 268 956 268 977 229.5 c 128,-1,6
 998 191 998 191 1043 174 c 128,-1,7
 1088 157 1088 157 1117 121.5 c 128,-1,8
 1146 86 1146 86 1146 67 c 2,9,-1
 1146 66 l 1,10,-1
 1141 45 l 2,11,12
 1139 38 1139 38 1132 25 c 0,13,14
 1116 0 1116 0 999.5 0 c 128,-1,15
 883 0 883 0 848.5 6.5 c 128,-1,16
 814 13 814 13 786 50 c 1,17,-1
 775 50 l 1,18,-1
 775 74 l 2,19,20
 775 92 775 92 791 111 c 128,-1,21
 807 130 807 130 807 146 c 1,22,23
 799 165 799 165 793.5 175 c 128,-1,24
 788 185 788 185 637 460 c 1,25,26
 498 230 498 230 425 123 c 1,27,28
 449 112 449 112 458 98 c 1,29,-1
 467 75 l 1,30,-1
 440 30 l 1,31,32
 410 0 410 0 287 0 c 128,-1,33
 164 0 164 0 131.5 2.5 c 128,-1,34
 99 5 99 5 78.5 20 c 128,-1,35
 58 35 58 35 58 77 c 0,36,37
 58 150 58 150 135 166 c 0,38,39
 161 172 161 172 168.5 180.5 c 128,-1,40
 176 189 176 189 196 227.5 c 128,-1,41
 216 266 216 266 254 316 c 128,-1,42
 292 366 292 366 382 508 c 128,-1,43
 472 650 472 650 472 672 c 128,-1,44
 472 694 472 694 406.5 792.5 c 128,-1,45
 341 891 341 891 303.5 956.5 c 128,-1,46
 266 1022 266 1022 229 1084 c 128,-1,47
 192 1146 192 1146 152 1170 c 128,-1,48
 112 1194 112 1194 97 1212.5 c 128,-1,49
 82 1231 82 1231 82 1264.5 c 128,-1,50
 82 1298 82 1298 105 1317 c 128,-1,51
 128 1336 128 1336 224 1336 c 128,-1,52
 320 1336 320 1336 363.5 1309.5 c 128,-1,53
 407 1283 407 1283 424 1268.5 c 128,-1,54
 441 1254 441 1254 441 1236 c 2,55,-1
 441 1234 l 1,56,-1
 429 1196 l 1,57,58
 405 1169 405 1169 405 1159 c 128,-1,59
 405 1149 405 1149 410 1130.5 c 128,-1,60
 415 1112 415 1112 485.5 980.5 c 128,-1,61
 556 849 556 849 590 815 c 1,62,63
 658 930 658 930 716 1032 c 1,64,-1
 790 1181 l 1,65,-1
 793 1190 l 1,66,-1
 777 1272 l 1,67,-1
 777 1273 l 1,68,-1
 783 1306 l 1,69,70
 795 1323 795 1323 814 1331.5 c 128,-1,71
 833 1340 833 1340 866.5 1356 c 128,-1,72
 900 1372 900 1372 920 1372 c 2,73,-1
 936 1372 l 2,74,75
 1070 1372 1070 1372 1108 1345 c 128,-1,76
 1146 1318 1146 1318 1146 1294.5 c 128,-1,77
 1146 1271 1146 1271 1144.5 1257.5 c 128,-1,78
 1143 1244 1143 1244 1142 1238 c 0,79,80
 1140 1210 1140 1210 1124 1210 c 2,81,-1
 1122 1210 l 1,82,83
 1103 1217 1103 1217 1086 1220 c 1,0,1
EndSplineSet
Validated: 1
EndChar

StartChar: Y
Encoding: 89 89 56
Width: 1356
VWidth: 1894
Flags: W
HStem: 1164 192<83.2915 241.773> 1200.5 163.5<1199.31 1277.99>
VStem: 622 242<110.25 569.927>
LayerCount: 2
Fore
SplineSet
533 39.5 m 128,-1,1
 533 58 533 58 565 91.5 c 128,-1,2
 597 125 597 125 622 134 c 1,3,-1
 625 213 l 1,4,5
 625 308 625 308 611 430.5 c 128,-1,6
 597 553 597 553 591 570.5 c 128,-1,7
 585 588 585 588 553 618 c 128,-1,8
 521 648 521 648 481 713 c 128,-1,9
 441 778 441 778 438 799.5 c 128,-1,10
 435 821 435 821 334.5 978 c 128,-1,11
 234 1135 234 1135 209 1164 c 1,12,13
 145 1166 145 1166 115 1186.5 c 128,-1,14
 85 1207 85 1207 70 1217.5 c 128,-1,15
 55 1228 55 1228 53 1230 c 0,16,17
 34 1254 34 1254 34 1273 c 0,18,19
 34 1305 34 1305 92 1318 c 0,20,21
 261 1356 261 1356 304 1356 c 0,22,23
 478 1356 478 1356 478 1270 c 0,24,25
 478 1226 478 1226 431 1212 c 1,26,27
 586 981 586 981 727 748 c 1,28,-1
 883 998 l 1,29,-1
 883 999 l 1,30,31
 995 1163 995 1163 997 1220 c 1,32,-1
 993 1254 l 1,33,-1
 993 1256 l 1,34,35
 995 1364 995 1364 1146 1364 c 0,36,37
 1229 1364 1229 1364 1278 1320 c 128,-1,38
 1327 1276 1327 1276 1327 1251 c 128,-1,39
 1327 1226 1327 1226 1306.5 1216 c 128,-1,40
 1286 1206 1286 1206 1251 1200.5 c 128,-1,41
 1216 1195 1216 1195 1210 1176 c 0,42,43
 1201 1148 1201 1148 1093 1023 c 128,-1,44
 985 898 985 898 934.5 810.5 c 128,-1,45
 884 723 884 723 860 684 c 1,46,47
 868 644 868 644 868 472 c 128,-1,48
 868 300 868 300 864 129 c 1,49,50
 919 112 919 112 930.5 88 c 128,-1,51
 942 64 942 64 942 46 c 2,52,-1
 942 5 l 2,53,54
 942 -2 942 -2 932 -12 c 1,55,56
 816 -11 816 -11 744 -10 c 1,57,-1
 615 -26 l 1,58,59
 565 -26 565 -26 555.5 -19 c 128,-1,60
 546 -12 546 -12 536.5 -9.5 c 128,-1,61
 527 -7 527 -7 527 0.5 c 128,-1,62
 527 8 527 8 530 14.5 c 128,-1,0
 533 21 533 21 533 39.5 c 128,-1,1
EndSplineSet
Validated: 1
EndChar

StartChar: Z
Encoding: 90 90 57
Width: 1172
VWidth: 1894
Flags: W
HStem: 42 106<446.102 738.122> 1336 20G<758.704 1058>
VStem: 124 157<1009.08 1109.87>
LayerCount: 2
Fore
SplineSet
714.5 1190 m 128,-1,1
 617 1190 617 1190 474 1156.5 c 128,-1,2
 331 1123 331 1123 305 1111 c 1,3,4
 286 1075 286 1075 281 1037 c 0,5,6
 272 974 272 974 214 974 c 0,7,8
 213 974 213 974 212 974 c 0,9,10
 189 974 189 974 156.5 1008 c 128,-1,11
 124 1042 124 1042 124 1130 c 2,12,-1
 124 1146 l 2,13,14
 124 1242 124 1242 186 1301 c 1,15,-1
 224 1328 l 1,16,17
 227 1327 227 1327 229 1326 c 2,18,-1
 278 1313 l 1,19,20
 299 1302 299 1302 340 1302 c 1,21,-1
 1005 1356 l 1,22,-1
 1006 1356 l 2,23,24
 1110 1356 1110 1356 1138 1304 c 0,25,26
 1154 1274 1154 1274 1154 1258 c 0,27,28
 1154 1246 1154 1246 1144 1241 c 1,29,-1
 1110 1228 l 1,30,-1
 1099 1226 l 1,31,32
 976 925 976 925 780 665 c 1,33,34
 802 648 802 648 807 625 c 1,35,-1
 810 625 l 1,36,-1
 809 613 l 1,37,38
 808 577 808 577 770.5 568 c 128,-1,39
 733 559 733 559 694 558 c 1,40,41
 509 338 509 338 275 149 c 1,42,43
 323 148 323 148 414.5 148 c 128,-1,44
 506 148 506 148 631 173 c 128,-1,45
 756 198 756 198 851 209 c 128,-1,46
 946 220 946 220 959 225 c 1,47,48
 967 231 967 231 987.5 275.5 c 128,-1,49
 1008 320 1008 320 1050 320 c 0,50,51
 1116 320 1116 320 1116 194 c 0,52,53
 1116 166 1116 166 1098 92 c 128,-1,54
 1080 18 1080 18 1054 -6 c 1,55,-1
 1028 -14 l 1,56,-1
 1026 -14 l 2,57,58
 1000 -14 1000 -14 970.5 9.5 c 128,-1,59
 941 33 941 33 925 37 c 1,60,-1
 764 42 l 1,61,62
 704 42 704 42 638 26 c 128,-1,63
 572 10 572 10 418 -6 c 1,64,-1
 194 -22 l 1,65,66
 62 -22 62 -22 62 113 c 0,67,68
 62 174 62 174 118 253.5 c 128,-1,69
 174 333 174 333 286 449 c 1,70,-1
 385 546 l 1,71,-1
 328 605 l 1,72,-1
 324 629 l 1,73,-1
 324 630 l 2,74,75
 324 675 324 675 359 690 c 128,-1,76
 394 705 394 705 460 719 c 1,77,-1
 555 733 l 1,78,79
 562 752 562 752 616.5 810 c 128,-1,80
 671 868 671 868 755.5 1002 c 128,-1,81
 840 1136 840 1136 856 1152 c 2,82,-1
 877 1173 l 1,83,0
 812 1190 812 1190 714.5 1190 c 128,-1,1
EndSplineSet
Validated: 1
EndChar

StartChar: bracketleft
Encoding: 91 91 58
Width: 492
VWidth: 1894
Flags: W
HStem: -315 149<368.598 622.295> 1409 173<404.419 609.625>
VStem: 126 242<-192 171.424> 148 256<830.187 1409>
LayerCount: 2
Fore
SplineSet
658 -273 m 0,0,1
 658 -313 658 -313 571 -315 c 1,2,-1
 126 -316 l 1,3,-1
 142 228 l 1,4,-1
 138 438 l 1,5,-1
 148 829 l 1,6,7
 162 1081 162 1081 162 1444 c 2,8,-1
 162 1466 l 2,9,10
 162 1540 162 1540 268 1570 c 0,11,12
 312 1582 312 1582 425 1582 c 0,13,14
 585 1582 585 1582 622 1560 c 0,15,16
 640 1550 640 1550 640 1520 c 2,17,-1
 640 1519 l 1,18,-1
 640 1518 l 2,19,20
 634 1410 634 1410 444 1410 c 0,21,22
 421 1410 421 1410 404 1409 c 1,23,24
 396 601 396 601 368 -192 c 1,25,26
 387 -188 387 -188 423.5 -177 c 128,-1,27
 460 -166 460 -166 520 -166 c 128,-1,28
 580 -166 580 -166 607 -194 c 0,29,30
 640 -228 640 -228 649 -243 c 128,-1,31
 658 -258 658 -258 658 -273 c 0,0,1
EndSplineSet
Validated: 1
EndChar

StartChar: backslash
Encoding: 92 92 59
Width: 768
VWidth: 1894
Flags: W
LayerCount: 2
Fore
SplineSet
729 -141 m 0,0,1
 712 -137 712 -137 678 -70 c 0,2,3
 652 -18 652 -18 520 228 c 128,-1,4
 388 474 388 474 216.5 819 c 128,-1,5
 45 1164 45 1164 -23.5 1263 c 128,-1,6
 -92 1362 -92 1362 -92 1410 c 0,7,8
 -92 1472 -92 1472 -26 1494 c 0,9,10
 18 1509 18 1509 51 1509 c 0,11,12
 65 1509 65 1509 78 1506 c 2,13,14
 86 1507 86 1507 93 1507 c 0,15,16
 114 1507 114 1507 120 1497 c 0,17,18
 915 3 915 3 915 -46 c 0,19,20
 910 -156 910 -156 813 -156 c 0,21,22
 777 -156 777 -156 729 -141 c 0,0,1
EndSplineSet
Validated: 1
EndChar

StartChar: bracketright
Encoding: 93 93 60
Width: 456
VWidth: 1894
Flags: W
HStem: -282 156<-51.428 86> 1435 154<-113.5 86>
VStem: 82 244<-70.173 1021.77> 86 254<1169.97 1426.34> 86 206<-126 470.875>
LayerCount: 2
Fore
SplineSet
-53 -152 m 1,0,1
 -3 -127 -3 -127 86 -126 c 1,2,3
 82 265 82 265 82 651.5 c 128,-1,4
 82 1038 82 1038 86 1424 c 1,5,6
 67 1425 67 1425 20.5 1427.5 c 128,-1,7
 -26 1430 -26 1430 -47 1435 c 128,-1,8
 -68 1440 -68 1440 -100 1466 c 2,9,-1
 -154 1510 l 1,10,-1
 -100 1556 l 2,11,12
 -70 1582 -70 1582 -44 1589 c 128,-1,13
 -18 1596 -18 1596 98 1601 c 1,14,-1
 260 1606 l 1,15,16
 320 1606 320 1606 331 1552 c 1,17,-1
 340 1460 l 1,18,-1
 314 934 l 1,19,-1
 326 414 l 1,20,21
 324 300 324 300 308 135 c 128,-1,22
 292 -30 292 -30 292 -71.5 c 128,-1,23
 292 -113 292 -113 299 -128 c 1,24,-1
 322 -186 l 1,25,-1
 282 -278 l 1,26,-1
 78 -282 l 1,27,28
 -85 -282 -85 -282 -100 -225 c 1,29,-1
 -102 -208 l 1,30,-1
 -98 -193 l 1,31,-1
 -53 -152 l 1,0,1
EndSplineSet
Validated: 1
EndChar

StartChar: a
Encoding: 97 97 61
Width: 904
VWidth: 1894
Flags: W
HStem: 0 146<328.825 525.475> 440 128<447.976 464.757 467.255 568> 722 156<328.023 602.364>
VStem: 68 198<188.92 392.385>
LayerCount: 2
Fore
SplineSet
568 440 m 1,0,1
 506 450 506 450 466 450 c 128,-1,2
 426 450 426 450 414.5 447 c 128,-1,3
 403 444 403 444 349 432 c 1,4,5
 266 359 266 359 266 290.5 c 128,-1,6
 266 222 266 222 347 152 c 1,7,8
 384 146 384 146 434.5 146 c 128,-1,9
 485 146 485 146 506.5 169.5 c 128,-1,10
 528 193 528 193 542 208 c 1,11,12
 555 325 555 325 568 440 c 1,0,1
820 552 m 2,13,-1
 820 551 l 1,14,-1
 796 366 l 1,15,-1
 812 130 l 2,16,17
 814 115 814 115 828 100 c 1,18,-1
 852 84 l 1,19,-1
 822 32 l 1,20,21
 800 -10 800 -10 762 -10 c 2,22,-1
 760 -10 l 2,23,24
 734 -10 734 -10 692 14 c 128,-1,25
 650 38 650 38 642.5 51 c 128,-1,26
 635 64 635 64 632 69 c 1,27,-1
 574 32 l 1,28,29
 515 0 515 0 448.5 0 c 128,-1,30
 382 0 382 0 293 16 c 1,31,32
 68 63 68 63 68 256 c 0,33,34
 68 288 68 288 93 380 c 128,-1,35
 118 472 118 472 162 496 c 0,36,37
 211 523 211 523 334 548 c 1,38,-1
 514 575 l 1,39,-1
 586 568 l 1,40,41
 595 633 595 633 604 698 c 1,42,43
 552 722 552 722 456 722 c 2,44,-1
 375 722 l 1,45,46
 353 715 353 715 313.5 660.5 c 128,-1,47
 274 606 274 606 251 585 c 128,-1,48
 228 564 228 564 194 564 c 128,-1,49
 160 564 160 564 148 583.5 c 128,-1,50
 136 603 136 603 136 621.5 c 128,-1,51
 136 640 136 640 158 696 c 0,52,53
 183 758 183 758 188 765.5 c 128,-1,54
 193 773 193 773 199.5 779 c 128,-1,55
 206 785 206 785 211 789.5 c 128,-1,56
 216 794 216 794 227.5 804 c 128,-1,57
 239 814 239 814 248 822 c 0,58,59
 310 878 310 878 432.5 878 c 128,-1,60
 555 878 555 878 630.5 845 c 128,-1,61
 706 812 706 812 728 792 c 128,-1,62
 750 772 750 772 778 716 c 128,-1,63
 806 660 806 660 809 652 c 128,-1,64
 812 644 812 644 816 602 c 128,-1,65
 820 560 820 560 820 552 c 2,13,-1
EndSplineSet
Validated: 1
EndChar

StartChar: b
Encoding: 98 98 62
Width: 1054
VWidth: 1894
Flags: W
HStem: 16 94<431.814 566> 746 162<478.018 703.714> 1332 20G<163 312>
VStem: 168 225<199.978 666.964 853 1139.91>
LayerCount: 2
Fore
SplineSet
562 110 m 2,0,-1
 566 110 l 1,1,-1
 695 154 l 2,2,3
 698 156 698 156 700 157 c 1,4,5
 760 308 760 308 760 447 c 128,-1,6
 760 586 760 586 702 714 c 1,7,8
 652 746 652 746 585 746 c 128,-1,9
 518 746 518 746 420 653 c 0,10,11
 408 642 408 642 398 629 c 1,12,13
 398 405 398 405 393 181 c 1,14,15
 409 170 409 170 451.5 140 c 128,-1,16
 494 110 494 110 562 110 c 2,0,-1
240 1352 m 2,17,18
 384 1352 384 1352 414.5 1327.5 c 128,-1,19
 445 1303 445 1303 445 1267 c 2,20,-1
 445 1257 l 1,21,-1
 443 1254 l 1,22,23
 437 1232 437 1232 394 1218 c 1,24,25
 396 1034 396 1034 397 853 c 1,26,27
 452 882 452 882 504 895 c 128,-1,28
 556 908 556 908 572 908 c 128,-1,29
 588 908 588 908 603 907 c 128,-1,30
 618 906 618 906 716 877 c 128,-1,31
 814 848 814 848 874 782 c 128,-1,32
 934 716 934 716 963 592 c 1,33,-1
 995 427 l 1,34,-1
 992 424 l 1,35,36
 989 389 989 389 970 316 c 1,37,38
 914 123 914 123 707 46 c 1,39,40
 622 16 622 16 584 16 c 2,41,-1
 552 16 l 2,42,43
 489 16 489 16 428 46 c 128,-1,44
 367 76 367 76 356 79 c 1,45,46
 358 66 358 66 358 60 c 0,47,48
 354 -5 354 -5 240 -8 c 1,49,-1
 238 -10 l 1,50,-1
 228 -10 l 2,51,52
 116 -10 116 -10 116 53 c 2,53,-1
 116 55 l 2,54,55
 116 81 116 81 146 115 c 128,-1,56
 176 149 176 149 178 186 c 1,57,-1
 168 270 l 1,58,-1
 162 469 l 1,59,-1
 166 952 l 1,60,61
 166 1107 166 1107 152 1141 c 1,62,63
 62 1210 62 1210 62 1244 c 1,64,65
 64 1311 64 1311 163 1345 c 1,66,-1
 239 1352 l 1,67,-1
 240 1352 l 2,17,18
EndSplineSet
Validated: 1
EndChar

StartChar: c
Encoding: 99 99 63
Width: 1052
VWidth: 1894
Flags: W
HStem: -26 144<388.611 667.705> 646 202<700.707 782 785 861.72> 714 168<464.385 720.133>
VStem: 56 240<223.795 526.876> 748 240<89 261>
LayerCount: 2
Fore
SplineSet
988 89 m 0,0,1
 988 43 988 43 939 43 c 128,-1,2
 890 43 890 43 873 50 c 0,3,4
 852 59 852 59 842.5 55.5 c 128,-1,5
 833 52 833 52 775 13 c 128,-1,6
 717 -26 717 -26 593.5 -26 c 128,-1,7
 470 -26 470 -26 382 0 c 128,-1,8
 294 26 294 26 262 45 c 128,-1,9
 230 64 230 64 174 117 c 128,-1,10
 118 170 118 170 90 224 c 128,-1,11
 62 278 62 278 59 297 c 128,-1,12
 56 316 56 316 56 336 c 0,13,14
 56 542 56 542 196 682 c 1,15,16
 338 820 338 820 453 851 c 128,-1,17
 568 882 568 882 585 882 c 128,-1,18
 602 882 602 882 656.5 866 c 128,-1,19
 711 850 711 850 754 848 c 1,20,-1
 812 856 l 1,21,-1
 814 856 l 2,22,23
 918 856 918 856 918 812 c 0,24,25
 918 776 918 776 894 734 c 0,26,27
 851 658 851 658 785 649 c 1,28,-1
 782 646 l 1,29,-1
 772 646 l 2,30,31
 738 646 738 646 710.5 680 c 128,-1,32
 683 714 683 714 644 714 c 2,33,-1
 635 714 l 2,34,35
 585 714 585 714 530.5 697.5 c 128,-1,36
 476 681 476 681 464 678 c 1,37,38
 296 521 296 521 296 374 c 0,39,40
 296 269 296 269 382 165 c 1,41,42
 506 118 506 118 566 118 c 128,-1,43
 626 118 626 118 641 124 c 128,-1,44
 656 130 656 130 696.5 163 c 128,-1,45
 737 196 737 196 745 206 c 1,46,-1
 752 228 l 1,47,48
 748 243 748 243 748 261 c 128,-1,49
 748 279 748 279 766.5 295.5 c 128,-1,50
 785 312 785 312 816 312 c 2,51,-1
 818 312 l 2,52,53
 869 312 869 312 911.5 277 c 128,-1,54
 954 242 954 242 971 179 c 128,-1,55
 988 116 988 116 988 89 c 0,0,1
EndSplineSet
Validated: 1
EndChar

StartChar: d
Encoding: 100 100 64
Width: 1101
VWidth: 1894
Flags: W
HStem: -32 152<417.801 638.709> 728 160<371.855 673.495> 1342 20G<741 902>
VStem: 61 227<188 462> 727 241<863 1238.8> 738 252<207.571 670.875>
LayerCount: 2
Fore
SplineSet
738 259 m 1,0,1
 732 456 732 456 729 652 c 1,2,3
 705 665 705 665 651.5 696.5 c 128,-1,4
 598 728 598 728 545 728 c 128,-1,5
 492 728 492 728 438 718 c 128,-1,6
 384 708 384 708 342 666 c 1,7,8
 288 531 288 531 288 411 c 128,-1,9
 288 291 288 291 331 183 c 1,10,11
 349 171 349 171 394 145.5 c 128,-1,12
 439 120 439 120 501 120 c 2,13,-1
 508 120 l 2,14,15
 564 120 564 120 627.5 156.5 c 128,-1,16
 691 193 691 193 738 259 c 1,0,1
645 1290 m 1,17,18
 650 1362 650 1362 832 1362 c 2,19,-1
 866 1362 l 1,20,21
 938 1360 938 1360 953 1338 c 128,-1,22
 968 1316 968 1316 968 1266 c 2,23,-1
 968 1206 l 1,24,-1
 956 799 l 1,25,-1
 978 389 l 1,26,27
 988 271 988 271 990 216 c 128,-1,28
 992 161 992 161 1016 133 c 128,-1,29
 1040 105 1040 105 1040 85 c 2,30,-1
 1040 62 l 1,31,-1
 1032 62 l 1,32,33
 1028 54 1028 54 1019 41 c 128,-1,34
 1010 28 1010 28 961 14 c 1,35,-1
 891 -1 l 1,36,-1
 885 5 l 1,37,38
 869 12 869 12 847.5 40 c 128,-1,39
 826 68 826 68 820 118 c 1,40,-1
 782 88 l 1,41,42
 624 -30 624 -30 488 -32 c 1,43,-1
 484 -32 l 1,44,-1
 327 2 l 1,45,-1
 210 62 l 1,46,47
 129 98 129 98 76 262 c 0,48,49
 61 307 61 307 61 320 c 2,50,-1
 61 322 l 1,51,-1
 64 430 l 1,52,-1
 66 462 l 1,53,54
 76 560 76 560 164 677 c 128,-1,55
 252 794 252 794 302 818 c 1,56,57
 352 840 352 840 445 864 c 128,-1,58
 538 888 538 888 574 888 c 2,59,-1
 639 888 l 2,60,61
 671 888 671 888 727 863 c 1,62,-1
 727 1217 l 1,63,64
 684 1236 684 1236 664.5 1250 c 128,-1,65
 645 1264 645 1264 645 1281 c 2,66,-1
 645 1290 l 1,17,18
EndSplineSet
Validated: 1
EndChar

StartChar: e
Encoding: 101 101 65
Width: 950
VWidth: 1894
Flags: W
HStem: -18 158<354.569 627.314> 413 115<325.687 574.679> 762 140<410.659 549.623>
VStem: 66 242<162.189 379.021> 590 296<469.5 669.591> 668 214<160.635 284.718>
LayerCount: 2
Fore
SplineSet
410 748 m 1,0,1
 408 736 408 736 378.5 684 c 128,-1,2
 349 632 349 632 325 530 c 1,3,4
 347 528 347 528 365 528 c 128,-1,5
 383 528 383 528 458.5 542 c 128,-1,6
 534 556 534 556 576 564 c 1,7,8
 590 592 590 592 590 620 c 0,9,10
 590 687 590 687 511 761 c 1,11,12
 495 762 495 762 464 762 c 0,13,14
 431 762 431 762 410 748 c 1,0,1
478 140 m 2,15,-1
 494 140 l 2,16,17
 591 140 591 140 628.5 160 c 128,-1,18
 666 180 666 180 668 241 c 128,-1,19
 670 302 670 302 700 326 c 2,20,-1
 740 360 l 1,21,-1
 807 315 l 1,22,-1
 808 314 l 1,23,24
 882 252 882 252 882 186 c 128,-1,25
 882 120 882 120 871 98 c 128,-1,26
 860 76 860 76 801 61 c 128,-1,27
 742 46 742 46 704 28 c 128,-1,28
 666 10 666 10 592.5 -4 c 128,-1,29
 519 -18 519 -18 483 -18 c 128,-1,30
 447 -18 447 -18 378.5 -4 c 128,-1,31
 310 10 310 10 281 22.5 c 128,-1,32
 252 35 252 35 196 74.5 c 128,-1,33
 140 114 140 114 115 149 c 1,34,-1
 84 226 l 1,35,36
 66 280 66 280 66 308 c 2,37,-1
 66 343 l 1,38,-1
 71 392 l 1,39,40
 72 429 72 429 104 514 c 0,41,42
 208 792 208 792 294 847 c 128,-1,43
 380 902 380 902 447 902 c 128,-1,44
 514 902 514 902 598 883 c 128,-1,45
 682 864 682 864 710 843 c 128,-1,46
 738 822 738 822 796 743 c 0,47,48
 886 621 886 621 886 494 c 0,49,50
 886 445 886 445 856 422 c 128,-1,51
 826 399 826 399 752 399 c 2,52,-1
 751 399 l 1,53,-1
 613 413 l 1,54,55
 496 413 496 413 413 393.5 c 128,-1,56
 330 374 330 374 308 368 c 1,57,58
 311 261 311 261 353 159 c 1,59,60
 403 141 403 141 478 140 c 2,15,-1
EndSplineSet
Validated: 1
EndChar

StartChar: f
Encoding: 102 102 66
Width: 736
VWidth: 1894
Flags: W
HStem: -16 162<78.9375 150.125> 8 70<448.324 472> 1116 242<465.264 667.022>
VStem: 150 221<146.159 538 693.192 1137.65>
LayerCount: 2
Fore
SplineSet
145 146 m 1,0,1
 150 151 150 151 150 166 c 2,2,-1
 154 712 l 1,3,4
 150 768 150 768 150 856.5 c 128,-1,5
 150 945 150 945 170 1046 c 0,6,7
 218 1291 218 1291 359 1345 c 1,8,-1
 434 1358 l 2,9,10
 434 1358 434 1358 435 1358 c 2,11,-1
 566 1356 l 2,12,13
 640 1354 640 1354 670 1330 c 1,14,15
 698 1305 698 1305 698 1271.5 c 128,-1,16
 698 1238 698 1238 678 1185 c 128,-1,17
 658 1132 658 1132 633 1124 c 128,-1,18
 608 1116 608 1116 553 1116 c 128,-1,19
 498 1116 498 1116 437 1191 c 1,20,21
 395 1166 395 1166 371 1137 c 1,22,23
 374 917 374 917 375 700 c 1,24,25
 468 687 468 687 507.5 661 c 128,-1,26
 547 635 547 635 547 585 c 2,27,-1
 547 520 l 1,28,-1
 397 540 l 1,29,-1
 374 538 l 1,30,31
 373 342 373 342 371 148 c 1,32,33
 461 122 461 122 471 78 c 0,34,35
 471 78 471 78 472 78 c 2,36,-1
 472 77 l 1,37,38
 482 58 482 58 478 34 c 0,39,40
 474 9 474 9 453 8 c 1,41,-1
 426 12 l 1,42,-1
 172 -16 l 1,43,44
 145 -16 145 -16 120.5 -9 c 128,-1,45
 96 -2 96 -2 78 29 c 128,-1,46
 60 60 60 60 60 75 c 128,-1,47
 60 90 60 90 69 100 c 0,48,49
 109 146 109 146 145 146 c 1,0,1
EndSplineSet
Validated: 1
EndChar

StartChar: g
Encoding: 103 103 67
Width: 1190
VWidth: 1894
Flags: W
HStem: -270 148<213.785 452.958> -72 166<273.836 451.799> 136 186<376.097 555.884> 692 179<488.869 758.086>
VStem: 104 203<350.313 545.681> 719 217<-154.114 -31.5> 837 293<883.584 1035.44> 859 227<453.034 642.346>
LayerCount: 2
Fore
SplineSet
759 688 m 1,0,1
 730 692 730 692 670 692 c 128,-1,2
 610 692 610 692 521 668 c 1,3,4
 307 554 307 554 307 448 c 0,5,6
 307 389 307 389 375 327 c 1,7,8
 410 322 410 322 459 322 c 128,-1,9
 508 322 508 322 583.5 343 c 128,-1,10
 659 364 659 364 727 366 c 1,11,12
 859 468 859 468 859 546 c 128,-1,13
 859 624 859 624 759 688 c 1,0,1
798 211 m 0,14,15
 770 205 770 205 666 196 c 1,16,17
 707 195 707 195 733 187 c 128,-1,18
 759 179 759 179 815 144 c 128,-1,19
 871 109 871 109 895 71 c 0,20,21
 936 4 936 4 936 -111 c 0,22,23
 936 -156 936 -156 903.5 -223 c 128,-1,24
 871 -290 871 -290 802.5 -319 c 128,-1,25
 734 -348 734 -348 701 -348 c 128,-1,26
 668 -348 668 -348 634 -345 c 128,-1,27
 600 -342 600 -342 498.5 -309 c 128,-1,28
 397 -276 397 -276 381.5 -273 c 128,-1,29
 366 -270 366 -270 347.5 -270 c 128,-1,30
 329 -270 329 -270 282 -276.5 c 128,-1,31
 235 -283 235 -283 221 -289 c 1,32,33
 214 -312 214 -312 167 -352 c 128,-1,34
 120 -392 120 -392 88 -392 c 128,-1,35
 56 -392 56 -392 45 -377 c 128,-1,36
 34 -362 34 -362 34 -316 c 128,-1,37
 34 -270 34 -270 67 -220 c 128,-1,38
 100 -170 100 -170 148 -146 c 128,-1,39
 196 -122 196 -122 284.5 -122 c 128,-1,40
 373 -122 373 -122 415 -130 c 1,41,42
 532 -191 532 -191 578 -191 c 0,43,44
 584 -191 584 -191 589 -190 c 0,45,46
 719 -150 719 -150 719 -98 c 0,47,-1
 719 -97 l 2,48,-1
 719 -95 l 1,49,50
 716 -43 716 -43 591 23 c 1,51,52
 574 16 574 16 539.5 0 c 128,-1,53
 505 -16 505 -16 420.5 -44 c 128,-1,54
 336 -72 336 -72 298 -72 c 128,-1,55
 260 -72 260 -72 193 -37 c 128,-1,56
 126 -2 126 -2 105 28 c 128,-1,57
 84 58 84 58 84 97 c 128,-1,58
 84 136 84 136 108 163 c 0,59,60
 155 216 155 216 166 244 c 1,61,62
 162 253 162 253 133 292.5 c 128,-1,63
 104 332 104 332 104 398 c 128,-1,64
 104 464 104 464 157 572 c 1,65,-1
 158 573 l 1,66,67
 216 666 216 666 241 684 c 0,68,69
 318 739 318 739 328.5 754.5 c 128,-1,70
 339 770 339 770 410 805 c 128,-1,71
 481 840 481 840 537.5 855 c 128,-1,72
 594 870 594 870 685 871 c 128,-1,73
 776 872 776 872 792.5 883 c 128,-1,74
 809 894 809 894 837 960 c 1,75,76
 879 1080 879 1080 990 1080 c 0,77,78
 1036 1080 1036 1080 1083 1044 c 128,-1,79
 1130 1008 1130 1008 1130 920 c 128,-1,80
 1130 832 1130 832 1082 832 c 0,81,82
 1058 832 1058 832 1036 849 c 128,-1,83
 1014 866 1014 866 1004 872 c 1,84,-1
 987 817 l 1,85,86
 997 802 997 802 1041.5 755 c 128,-1,87
 1086 708 1086 708 1086 631 c 2,88,-1
 1086 629 l 2,89,90
 1086 566 1086 566 1052 473 c 1,91,92
 977 256 977 256 798 211 c 0,14,15
558 179 m 1,93,94
 490 170 490 170 458 153 c 128,-1,95
 426 136 426 136 410 136 c 2,96,-1
 391 136 l 1,97,-1
 353 140 l 1,98,-1
 349 140 l 1,99,-1
 317 135 l 1,100,101
 272 131 272 131 270 108 c 1,102,-1
 276 97 l 1,103,104
 284 94 284 94 308 94 c 128,-1,105
 332 94 332 94 425 127 c 1,106,107
 521 169 521 169 558 179 c 1,93,94
EndSplineSet
Validated: 1
EndChar

StartChar: h
Encoding: 104 104 68
Width: 966
VWidth: 1894
Flags: W
HStem: -6 21G<826.5 870.5> 740 168<475.75 663.028> 1349 20G<147 170>
VStem: 100 245<82 549 806 1191.98> 666 210<86.0469 733.273>
LayerCount: 2
Fore
SplineSet
666 711 m 1,0,1
 638 740 638 740 584 740 c 128,-1,2
 530 740 530 740 474 716.5 c 128,-1,3
 418 693 418 693 362 584 c 1,4,-1
 345 549 l 1,5,6
 344 316 344 316 339 82 c 1,7,-1
 355 74 l 1,8,-1
 363 -2 l 1,9,10
 354 -18 354 -18 319 -21 c 128,-1,11
 284 -24 284 -24 231.5 -24 c 128,-1,12
 179 -24 179 -24 166 -24 c 0,13,14
 66 -24 66 -24 66 36 c 0,15,16
 66 58 66 58 79 87.5 c 128,-1,17
 92 117 92 117 94 175 c 0,18,19
 100 351 100 351 100 626 c 0,20,21
 100 1133 100 1133 76 1194 c 1,22,23
 50 1213 50 1213 50 1237 c 2,24,-1
 50 1257 l 2,25,26
 50 1301 50 1301 87 1334.5 c 128,-1,27
 124 1368 124 1368 170 1369 c 1,28,-1
 170 1368 l 1,29,-1
 192 1368 l 1,30,-1
 193 1368 l 1,31,32
 294 1363 294 1363 343 1354 c 0,33,34
 396 1344 396 1344 394 1321 c 2,35,-1
 392 1272 l 1,36,37
 366 1263 366 1263 340 1255 c 1,38,39
 344 1031 344 1031 345 806 c 1,40,41
 431 908 431 908 520 908 c 2,42,-1
 522 908 l 2,43,44
 642 908 642 908 731 861.5 c 128,-1,45
 820 815 820 815 849 718.5 c 128,-1,46
 878 622 878 622 878 454 c 1,47,-1
 876 417 l 1,48,-1
 876 360 l 2,49,50
 876 220 876 220 891 166 c 1,51,-1
 907 66 l 1,52,-1
 904 63 l 1,53,54
 902 -6 902 -6 839 -6 c 0,55,56
 814 -6 814 -6 742 1 c 128,-1,57
 670 8 670 8 648 25.5 c 128,-1,58
 626 43 626 43 626 73 c 2,59,-1
 626 78 l 1,60,-1
 628 83 l 1,61,-1
 628 86 l 1,62,-1
 630 89 l 1,63,64
 636 102 636 102 666 120 c 1,65,66
 662 268 662 268 662 415.5 c 128,-1,67
 662 563 662 563 666 711 c 1,0,1
EndSplineSet
Validated: 1
EndChar

StartChar: k
Encoding: 107 107 71
Width: 992
VWidth: 1894
Flags: W
HStem: 860 20G<616 753> 1326 20G<199 253>
VStem: 62 271<959.875 1096.06> 92 222<175.281 225.1 360 680.774> 110 224<448.397 980.205> 125 155<1171.94 1336.81>
LayerCount: 2
Fore
SplineSet
83 1137 m 0,0,1
 103 1238 103 1238 125 1303 c 0,2,3
 135 1331 135 1331 150 1337 c 0,4,5
 172 1346 172 1346 226 1346 c 128,-1,6
 280 1346 280 1346 280 1304 c 0,7,8
 280 1294 280 1294 302.5 1265 c 128,-1,9
 325 1236 325 1236 327 1124 c 0,10,11
 329 1014 329 1014 333 968 c 1,12,-1
 334 824 l 1,13,-1
 319 431 l 1,14,-1
 310 360 l 1,15,-1
 311 360 l 1,16,17
 313 362 313 362 315 375 c 0,18,19
 317 390 317 390 477 590 c 0,20,21
 512 634 512 634 539 694 c 128,-1,22
 566 754 566 754 568 790 c 1,23,-1
 566 794 l 1,24,-1
 566 810 l 2,25,26
 566 848 566 848 579.5 864 c 128,-1,27
 593 880 593 880 639 880 c 2,28,-1
 726 880 l 2,29,30
 780 880 780 880 799 853 c 128,-1,31
 818 826 818 826 818 806 c 128,-1,32
 818 786 818 786 785 749 c 128,-1,33
 752 712 752 712 725 660.5 c 128,-1,34
 698 609 698 609 652 551 c 128,-1,35
 606 493 606 493 601 480 c 1,36,37
 602 478 602 478 611 473 c 0,38,39
 646 456 646 456 724 346 c 128,-1,40
 802 236 802 236 866 170 c 0,41,42
 932 102 932 102 932 66 c 2,43,-1
 932 65 l 1,44,-1
 932 62 l 2,45,46
 932 -12 932 -12 827 -12 c 128,-1,47
 722 -12 722 -12 693.5 11 c 128,-1,48
 665 34 665 34 665 54 c 2,49,-1
 665 56 l 1,50,-1
 693 123 l 1,51,52
 571 220 571 220 452 321 c 1,53,54
 444 310 444 310 425.5 282.5 c 128,-1,55
 407 255 407 255 365 229 c 0,56,57
 314 197 314 197 314 190.5 c 128,-1,58
 314 184 314 184 317 175 c 1,59,-1
 365 159 l 1,60,61
 405 142 405 142 420 116 c 128,-1,62
 435 90 435 90 435 69 c 128,-1,63
 435 48 435 48 408 31 c 128,-1,64
 381 14 381 14 290.5 0 c 128,-1,65
 200 -14 200 -14 153.5 -14 c 128,-1,66
 107 -14 107 -14 84.5 24 c 128,-1,67
 62 62 62 62 62 78.5 c 128,-1,68
 62 95 62 95 92 120 c 1,69,70
 96 539 96 539 110 953 c 1,71,72
 106 968 106 968 86 973 c 1,73,74
 52 975 52 975 62 1008 c 0,75,-1
 83 1137 l 0,0,1
EndSplineSet
Validated: 1
EndChar

StartChar: l
Encoding: 108 108 72
Width: 520
VWidth: 1894
Flags: W
HStem: -6 21G<302 350> 1344 20G<211 228.5>
VStem: 42 302<811.358 966.304> 86 252<1048 1313.93> 108 236<196.412 806 997.125 1324.84>
LayerCount: 2
Fore
SplineSet
300 1345 m 24,0,1
 337 1345 337 1345 338 1292 c 0,2,3
 344 983 344 983 344 709.5 c 128,-1,4
 344 436 344 436 340 196 c 1,5,-1
 373 210 l 1,6,-1
 376 210 l 2,7,8
 458 210 458 210 458 121 c 0,9,10
 458 72 458 72 416 33 c 128,-1,11
 374 -6 374 -6 326 -6 c 128,-1,12
 278 -6 278 -6 254.5 3.5 c 128,-1,13
 231 13 231 13 190.5 48 c 128,-1,14
 150 83 150 83 129 126.5 c 128,-1,15
 108 170 108 170 108 362 c 2,16,-1
 108 728 l 1,17,18
 112 768 112 768 114 806 c 1,19,-1
 110 806 l 1,20,21
 56 807 56 807 42 897 c 1,22,-1
 42 900 l 1,23,-1
 74 1048 l 1,24,-1
 86 1151 l 1,25,26
 86 1183 86 1183 96 1214 c 128,-1,27
 106 1245 106 1245 109 1250 c 128,-1,28
 112 1255 112 1255 113 1268 c 0,29,30
 113 1269 113 1269 120 1287 c 0,31,32
 132 1320 132 1320 137 1325 c 0,33,34
 197 1364 197 1364 225 1364 c 0,35,36
 232 1364 232 1364 237 1362 c 0,37,38
 274 1345 274 1345 300 1345 c 24,0,1
EndSplineSet
Validated: 1
EndChar

StartChar: m
Encoding: 109 109 73
Width: 1386
VWidth: 1894
Flags: W
HStem: 1 81<1001.36 1052.43> 736 153<933.982 1100.06>
VStem: 149 226<72.3242 370.084> 604 236<154.15 629.009> 627 209<84.5918 620.854>
LayerCount: 2
Fore
SplineSet
688 -20 m 128,-1,1
 598 -20 598 -20 598 38 c 0,2,3
 598 62 598 62 612.5 97.5 c 128,-1,4
 627 133 627 133 627 153.5 c 128,-1,5
 627 174 627 174 615.5 231 c 128,-1,6
 604 288 604 288 604 489 c 128,-1,7
 604 690 604 690 564 726 c 1,8,9
 565 727 565 727 553 735 c 128,-1,10
 541 743 541 743 534 736 c 128,-1,11
 527 729 527 729 491 671.5 c 128,-1,12
 455 614 455 614 376 508 c 1,13,14
 377 429 377 429 377 336.5 c 128,-1,15
 377 244 377 244 375 140 c 1,16,17
 424 75 424 75 424 58 c 0,18,19
 424 40 424 40 410 16 c 0,20,21
 395 -9 395 -9 370 -8 c 2,22,-1
 245 -5 l 1,23,24
 175 -36 175 -36 151 -36 c 128,-1,25
 127 -36 127 -36 109 -18 c 128,-1,26
 91 -0 91 -0 91 27 c 128,-1,27
 91 54 91 54 119.5 93.5 c 128,-1,28
 148 133 148 133 149 156 c 1,29,-1
 119 604 l 1,30,31
 115 637 115 637 100 664 c 1,32,-1
 62 718 l 1,33,-1
 148 848 l 1,34,35
 164 868 164 868 181 876 c 128,-1,36
 198 884 198 884 206 878 c 1,37,38
 237 892 237 892 248.5 884 c 128,-1,39
 260 876 260 876 286.5 847.5 c 128,-1,40
 313 819 313 819 313 742 c 1,41,-1
 307 646 l 1,42,-1
 442 832 l 1,43,44
 559 882 559 882 586.5 882 c 128,-1,45
 614 882 614 882 663 842.5 c 128,-1,46
 712 803 712 803 725.5 759 c 128,-1,47
 739 715 739 715 745 711 c 1,48,49
 763 724 763 724 795 770 c 128,-1,50
 827 816 827 816 859 851 c 128,-1,51
 891 886 891 886 935 887.5 c 128,-1,52
 979 889 979 889 1012.5 889 c 128,-1,53
 1046 889 1046 889 1110.5 885.5 c 128,-1,54
 1175 882 1175 882 1244 766 c 0,55,56
 1278 709 1278 709 1288.5 656 c 128,-1,57
 1299 603 1299 603 1299 479 c 128,-1,58
 1299 355 1299 355 1293 306.5 c 128,-1,59
 1287 258 1287 258 1287 238 c 128,-1,60
 1287 218 1287 218 1308 194 c 128,-1,61
 1329 170 1329 170 1329 129.5 c 128,-1,62
 1329 89 1329 89 1325 73 c 0,63,64
 1316 37 1316 37 1207 14 c 1,65,-1
 1127 -0 l 1,66,-1
 1127 7 l 1,67,-1
 1069 -4 l 1,68,69
 1061 4 1061 4 1059 4 c 2,70,-1
 1031 1 l 1,71,72
 1001 1 1001 1 1001 33 c 2,73,-1
 1001 36 l 2,74,75
 1001 73 1001 73 1050 82 c 1,76,77
 1069 400 1069 400 1101 711 c 1,78,79
 1071 736 1071 736 1028 736 c 128,-1,80
 985 736 985 736 947.5 703.5 c 128,-1,81
 910 671 910 671 888 635 c 128,-1,82
 866 599 866 599 838 503 c 1,83,84
 840 423 840 423 840 325.5 c 128,-1,85
 840 228 840 228 836 112 c 1,86,87
 880 94 880 94 892 68 c 1,88,-1
 895 41 l 1,89,-1
 882 6 l 1,90,91
 870 -12 870 -12 824 -16 c 128,-1,0
 778 -20 778 -20 688 -20 c 128,-1,1
EndSplineSet
Validated: 1
EndChar

StartChar: n
Encoding: 110 110 74
Width: 1150
VWidth: 1894
Flags: W
HStem: 724 156<455.75 742.673>
VStem: 144 229<87.2117 645.173> 793 215<175 524.538>
LayerCount: 2
Fore
SplineSet
576 724 m 1,0,1
 439 714 439 714 369 573 c 1,2,3
 373 449 373 449 373 336.5 c 128,-1,4
 373 224 373 224 370 120 c 1,5,6
 390 105 390 105 414 89 c 128,-1,7
 438 73 438 73 438 56 c 0,8,9
 438 30 438 30 387 -12 c 0,10,11
 364 -32 364 -32 200 -32 c 2,12,-1
 195 -32 l 1,13,14
 143 -30 143 -30 122 1 c 1,15,-1
 122 4 l 1,16,-1
 114 24 l 1,17,-1
 114 29 l 1,18,-1
 125 63 l 1,19,20
 139 86 139 86 141.5 136 c 128,-1,21
 144 186 144 186 144 357 c 0,22,23
 144 622 144 622 134 648.5 c 128,-1,24
 124 675 124 675 93 697 c 128,-1,25
 62 719 62 719 62 749.5 c 128,-1,26
 62 780 62 780 101 834 c 128,-1,27
 140 888 140 888 209 888 c 128,-1,28
 278 888 278 888 306 793 c 0,29,30
 314 765 314 765 321 747 c 1,31,32
 336 759 336 759 368 787.5 c 128,-1,33
 400 816 400 816 429 831 c 128,-1,34
 458 846 458 846 529 863 c 128,-1,35
 600 880 600 880 664.5 880 c 128,-1,36
 729 880 729 880 819 822 c 1,37,38
 906 764 906 764 927 708 c 128,-1,39
 948 652 948 652 974 587 c 1,40,-1
 1004 479 l 1,41,-1
 1008 175 l 1,42,-1
 1075 128 l 1,43,44
 1090 113 1090 113 1090 95.5 c 128,-1,45
 1090 78 1090 78 1075.5 65 c 128,-1,46
 1061 52 1061 52 1029.5 37.5 c 128,-1,47
 998 23 998 23 955.5 -15 c 128,-1,48
 913 -53 913 -53 879.5 -54.5 c 128,-1,49
 846 -56 846 -56 815 -56 c 2,50,-1
 814 -56 l 2,51,52
 779 -56 779 -56 749 -29.5 c 128,-1,53
 719 -3 719 -3 719 19 c 2,54,-1
 719 42 l 1,55,-1
 793 54 l 1,56,57
 789 190 789 190 789 318 c 0,58,59
 790 334 790 334 790 350 c 0,60,61
 790 493 790 493 793 625 c 1,62,63
 770 659 770 659 730 691.5 c 128,-1,64
 690 724 690 724 600 724 c 2,65,-1
 576 724 l 1,0,1
EndSplineSet
Validated: 1
EndChar

StartChar: o
Encoding: 111 111 75
Width: 988
VWidth: 1894
Flags: W
HStem: -30 168<355.536 629.717> 766 116<523.448 632.91>
VStem: 700 234<256.258 570.324>
LayerCount: 2
Fore
SplineSet
442 744 m 1,0,1
 406 743 406 743 355 694 c 1,2,3
 302 557 302 557 302 428.5 c 128,-1,4
 302 300 302 300 353 179 c 1,5,6
 434 138 434 138 536 138 c 2,7,-1
 542 138 l 2,8,9
 590 138 590 138 631 157 c 1,10,11
 700 318 700 318 700 465 c 128,-1,12
 700 612 700 612 634 748 c 1,13,14
 599 765 599 765 579 766 c 1,15,-1
 486 742 l 1,16,-1
 442 744 l 1,0,1
168.5 725 m 128,-1,18
 212 778 212 778 242 798 c 128,-1,19
 272 818 272 818 353 850 c 128,-1,20
 434 882 434 882 503 882 c 128,-1,21
 572 882 572 882 652 853 c 128,-1,22
 732 824 732 824 776.5 792 c 128,-1,23
 821 760 821 760 860.5 713 c 128,-1,24
 900 666 900 666 908 643 c 1,25,-1
 934 481 l 1,26,-1
 934 480 l 2,27,28
 934 448 934 448 922 422 c 128,-1,29
 910 396 910 396 910 352 c 128,-1,30
 910 308 910 308 877 221 c 128,-1,31
 844 134 844 134 808 78 c 0,32,33
 742 -30 742 -30 589 -30 c 128,-1,34
 436 -30 436 -30 334 12 c 128,-1,35
 232 54 232 54 183 92 c 128,-1,36
 134 130 134 130 96 223 c 1,37,-1
 54 339 l 1,38,-1
 64 458 l 1,39,40
 78 552 78 552 101.5 612 c 128,-1,17
 125 672 125 672 168.5 725 c 128,-1,18
EndSplineSet
Validated: 1
EndChar

StartChar: p
Encoding: 112 112 76
Width: 1082
VWidth: 1894
Flags: W
HStem: -380 21G<72 225> 20 102<400.724 719.404> 764 158<527.343 734.534> 830 20G<158.5 254.5>
VStem: 110.5 239.5<-259.837 72.7776> 140 222<165.485 637.817> 790 234<289.996 691.613>
LayerCount: 2
Fore
SplineSet
96 766 m 2,0,1
 96 850 96 850 221 850 c 0,2,3
 288 850 288 850 322 834 c 1,4,-1
 368 819 l 1,5,6
 381 820 381 820 396 823.5 c 128,-1,7
 411 827 411 827 458.5 865.5 c 128,-1,8
 506 904 506 904 538 913 c 128,-1,9
 570 922 570 922 652 922 c 128,-1,10
 734 922 734 922 815 884 c 128,-1,11
 896 846 896 846 958 734 c 128,-1,12
 1020 622 1020 622 1024 499 c 1,13,-1
 1024 484 l 2,14,15
 1024 369 1024 369 964 257.5 c 128,-1,16
 904 146 904 146 883 122 c 128,-1,17
 862 98 862 98 818 71 c 128,-1,18
 774 44 774 44 733 32 c 128,-1,19
 692 20 692 20 606 20 c 128,-1,20
 520 20 520 20 457 42.5 c 128,-1,21
 394 65 394 65 359 73 c 1,22,23
 355 -81 355 -81 350 -233 c 1,24,25
 393 -258 393 -258 402 -267 c 1,26,-1
 415 -291 l 1,27,-1
 415 -295 l 2,28,29
 415 -315 415 -315 383 -350 c 1,30,31
 368 -375 368 -375 318.5 -375 c 128,-1,32
 269 -375 269 -375 225 -370 c 1,33,-1
 109 -380 l 1,34,-1
 108 -380 l 2,35,36
 36 -380 36 -380 36 -324 c 2,37,-1
 36 -322 l 2,38,39
 36 -280 36 -280 72.5 -255 c 128,-1,40
 109 -230 109 -230 110.5 -213 c 128,-1,41
 112 -196 112 -196 114 -73 c 128,-1,42
 116 50 116 50 128 118 c 128,-1,43
 140 186 140 186 140 415 c 128,-1,44
 140 644 140 644 120 701 c 1,45,46
 98 719 98 719 96 761 c 1,47,-1
 96 766 l 2,0,1
588 122 m 128,-1,49
 652 122 652 122 678 136.5 c 128,-1,50
 704 151 704 151 722 169 c 1,51,52
 790 327 790 327 790 469 c 128,-1,53
 790 611 790 611 732 741 c 1,54,55
 675 764 675 764 641 764 c 128,-1,56
 607 764 607 764 567 746.5 c 128,-1,57
 527 729 527 729 520 706 c 128,-1,58
 513 683 513 683 481 669 c 128,-1,59
 449 655 449 655 414 642.5 c 128,-1,60
 379 630 379 630 366 626 c 1,61,-1
 362 187 l 1,62,63
 450 139 450 139 487 130.5 c 128,-1,48
 524 122 524 122 588 122 c 128,-1,49
EndSplineSet
Validated: 1
EndChar

StartChar: q
Encoding: 113 113 77
Width: 1092
VWidth: 1894
Flags: W
HStem: -7 21G<399 468> 718 158<391 609.945>
LayerCount: 2
Fore
SplineSet
854 83 m 1,0,1
 846 71 846 71 846 2 c 2,2,-1
 846 -19 l 1,3,-1
 854 24 l 1,4,5
 856 47 856 47 890.5 86 c 128,-1,6
 925 125 925 125 936 132.5 c 128,-1,7
 947 140 947 140 958 140 c 2,8,-1
 960 140 l 1,9,-1
 1052 105 l 1,10,-1
 1044 26 l 2,11,12
 1038 -37 1038 -37 1024 -70 c 128,-1,13
 1010 -103 1010 -103 956 -236.5 c 128,-1,14
 902 -370 902 -370 875 -395 c 128,-1,15
 848 -420 848 -420 831 -420 c 0,16,17
 798 -420 798 -420 735 -396 c 0,18,19
 700 -383 700 -383 681 -315 c 1,20,21
 670 -311 670 -311 668 -302 c 1,22,23
 648 -100 648 -100 636 100 c 1,24,25
 622 76 622 76 605.5 52 c 128,-1,26
 589 28 589 28 544.5 11 c 128,-1,27
 500 -6 500 -6 436 -7 c 1,28,-1
 431 -7 l 2,29,30
 367 -7 367 -7 259 25.5 c 128,-1,31
 151 58 151 58 107 113 c 128,-1,32
 63 168 63 168 58 236 c 2,33,-1
 48 382 l 1,34,-1
 60 504 l 2,35,36
 62 533 62 533 95 608 c 128,-1,37
 128 683 128 683 158 720 c 128,-1,38
 188 757 188 757 264 807.5 c 128,-1,39
 340 858 340 858 378 867 c 128,-1,40
 416 876 416 876 487.5 876 c 128,-1,41
 559 876 559 876 627 841 c 1,42,-1
 709 806 l 1,43,-1
 796 823 l 1,44,-1
 798 823 l 2,45,46
 858 823 858 823 858 751 c 0,47,48
 858 630 858 630 845 522 c 1,49,-1
 836 416 l 1,50,51
 838 383 838 383 846 241 c 2,52,-1
 854 83 l 1,0,1
598 310 m 1,53,54
 612 484 612 484 632 655 c 1,55,56
 621 665 621 665 590.5 691.5 c 128,-1,57
 560 718 560 718 528 718 c 1,58,-1
 391 706 l 2,59,60
 351 703 351 703 316 687 c 1,61,62
 262 547 262 547 262 418.5 c 128,-1,63
 262 290 262 290 310 170 c 1,64,65
 317 167 317 167 336 158 c 1,66,-1
 400 146 l 1,67,-1
 418 147 l 1,68,69
 508 171 508 171 561 254 c 0,70,71
 588 296 588 296 598 310 c 1,53,54
EndSplineSet
Validated: 1
EndChar

StartChar: r
Encoding: 114 114 78
Width: 808
VWidth: 1894
Flags: W
HStem: 836 20G<189 310.5>
VStem: 162 217<164 648>
LayerCount: 2
Fore
SplineSet
436 16 m 1,0,1
 376 25 376 25 345.5 25 c 128,-1,2
 315 25 315 25 289 18.5 c 128,-1,3
 263 12 263 12 244.5 12 c 128,-1,4
 226 12 226 12 170 21 c 0,5,6
 113 30 113 30 92 70 c 1,7,-1
 92 76 l 2,8,9
 92 102 92 102 130 135 c 2,10,-1
 162 164 l 1,11,-1
 162 648 l 1,12,-1
 160 648 l 2,13,14
 124 648 124 648 93 681 c 128,-1,15
 62 714 62 714 62 732 c 128,-1,16
 62 750 62 750 72 772 c 0,17,18
 112 856 112 856 266 856 c 2,19,-1
 294 856 l 2,20,21
 327 856 327 856 367 832 c 1,22,-1
 388 818 l 1,23,-1
 506 910 l 1,24,-1
 509 910 l 1,25,26
 545 930 545 930 606.5 930 c 128,-1,27
 668 930 668 930 707 903.5 c 128,-1,28
 746 877 746 877 746 783 c 0,29,30
 746 610 746 610 632 610 c 0,31,32
 588 610 588 610 554 635 c 128,-1,33
 520 660 520 660 511 662 c 1,34,-1
 492 662 l 1,35,-1
 439 672 l 1,36,37
 423 670 423 670 379 641 c 1,38,39
 383 517 383 517 383 395.5 c 128,-1,40
 383 274 383 274 379 153 c 1,41,42
 391 146 391 146 421 129 c 0,43,44
 460 107 460 107 468 88 c 1,45,-1
 469 74 l 1,46,47
 469 16 469 16 439 16 c 2,48,-1
 436 16 l 1,0,1
EndSplineSet
Validated: 1
EndChar

StartChar: s
Encoding: 115 115 79
Width: 862
VWidth: 1894
Flags: W
HStem: 425 159<320 520.078> 720 168<343.047 570.774>
VStem: 104 216<585.85 678> 573 187<159.503 372.121>
LayerCount: 2
Fore
SplineSet
730 894 m 0,0,1
 796 894 796 894 796 834 c 0,2,3
 796 805 796 805 754 731 c 128,-1,4
 712 657 712 657 677 637.5 c 128,-1,5
 642 618 642 618 628 618 c 2,6,-1
 611 618 l 1,7,-1
 607 620 l 1,8,9
 582 629 582 629 577 659 c 128,-1,10
 572 689 572 689 568 695 c 1,11,12
 558 700 558 700 503 709.5 c 128,-1,13
 448 719 448 719 425 720 c 1,14,15
 320 695 320 695 320 606 c 0,16,17
 320 595 320 595 322 584 c 1,18,-1
 336 584 l 1,19,20
 349 585 349 585 414 585 c 128,-1,21
 479 585 479 585 585.5 542.5 c 128,-1,22
 692 500 692 500 726 443.5 c 128,-1,23
 760 387 760 387 760 258.5 c 128,-1,24
 760 130 760 130 730 89 c 1,25,26
 658 -34 658 -34 556 -38 c 1,27,-1
 425 -16 l 1,28,-1
 241 28 l 1,29,-1
 171 -56 l 1,30,31
 154 -72 154 -72 136 -72 c 128,-1,32
 118 -72 118 -72 91 -58 c 128,-1,33
 64 -44 64 -44 64 -7 c 0,34,35
 64 170 64 170 80 221 c 128,-1,36
 96 272 96 272 117 286 c 128,-1,37
 138 300 138 300 158 300 c 0,38,39
 200 300 200 300 281 205 c 1,40,41
 332 149 332 149 352 140 c 0,42,43
 383 127 383 127 483 114 c 1,44,45
 573 190 573 190 573 264.5 c 128,-1,46
 573 339 573 339 488 415 c 1,47,-1
 251 425 l 1,48,-1
 249 425 l 1,49,50
 214 429 214 429 159 469 c 128,-1,51
 104 509 104 509 104 603 c 2,52,-1
 104 604 l 1,53,-1
 114 678 l 1,54,55
 121 702 121 702 156.5 757 c 128,-1,56
 192 812 192 812 245 845 c 128,-1,57
 298 878 298 878 320.5 883 c 128,-1,58
 343 888 343 888 372 888 c 0,59,60
 479 888 479 888 547 872 c 0,61,62
 614 857 614 857 630 857 c 0,63,64
 630 857 630 857 632 857 c 0,65,66
 642 859 642 859 669.5 876.5 c 128,-1,67
 697 894 697 894 730 894 c 0,0,1
EndSplineSet
Validated: 1
EndChar

StartChar: t
Encoding: 116 116 80
Width: 686
VWidth: 1894
Flags: W
HStem: -19 144<466.835 602.844> 515 153<115 187.927> 521 187<454 583.967> 1350 20G<342.5 358.5>
VStem: 198 250<155.781 502.734>
LayerCount: 2
Fore
SplineSet
334 1360 m 0,0,1
 335 1370 335 1370 350 1370 c 0,2,3
 367 1370 367 1370 403 1357 c 0,4,5
 470 1332 470 1332 470 1309 c 0,6,7
 470 1144 470 1144 454 708 c 1,8,9
 471 707 471 707 511.5 705 c 128,-1,10
 552 703 552 703 585 685 c 128,-1,11
 618 667 618 667 624 617 c 1,12,-1
 626 612 l 1,13,-1
 626 608 l 2,14,15
 626 564 626 564 594 544.5 c 128,-1,16
 562 525 562 525 470 521 c 1,17,-1
 448 520 l 1,18,19
 440 335 440 335 430 150 c 1,20,21
 452 130 452 130 498 125 c 0,22,23
 620 112 620 112 620 66 c 0,24,25
 620 42 620 42 595 16 c 128,-1,26
 570 -10 570 -10 547 -19 c 128,-1,27
 524 -28 524 -28 465 -28 c 128,-1,28
 406 -28 406 -28 353.5 7 c 128,-1,29
 301 42 301 42 276.5 74 c 128,-1,30
 252 106 252 106 230 170 c 128,-1,31
 208 234 208 234 203 274.5 c 128,-1,32
 198 315 198 315 198 346 c 128,-1,33
 198 377 198 377 207 423 c 1,34,-1
 216 504 l 1,35,36
 206 510 206 510 164 515 c 128,-1,37
 122 520 122 520 60 550 c 1,38,-1
 60 636 l 1,39,-1
 115 668 l 1,40,-1
 232 691 l 1,41,-1
 232 697 l 2,42,-1
 222 756 l 1,43,44
 183 765 183 765 174 846 c 1,45,-1
 174 874 l 2,46,47
 174 906 174 906 187 948 c 128,-1,48
 200 990 200 990 223 1144.5 c 128,-1,49
 246 1299 246 1299 265 1329 c 1,50,51
 293 1358 293 1358 332 1360 c 2,52,-1
 333 1360 l 1,53,-1
 334 1360 l 0,0,1
EndSplineSet
Validated: 1
EndChar

StartChar: u
Encoding: 117 117 81
Width: 1090
VWidth: 1894
Flags: W
HStem: -36 148<316.11 562.281> 852 20G<174 327 834.25 874.75>
VStem: 62 290<214.543 822.406> 746 242<410.13 678.34>
LayerCount: 2
Fore
SplineSet
918 879 m 1,0,1
 985 823 985 823 987 811 c 0,2,3
 988 802 988 802 988 779 c 0,4,5
 988 660 988 660 949 178 c 1,6,-1
 1038 80 l 1,7,-1
 992 32 l 2,8,9
 964 3 964 3 954 2 c 0,10,11
 942 1 942 1 927 1 c 0,12,13
 822 1 822 1 786 94 c 0,14,15
 778 114 778 114 771 123 c 1,16,17
 742 102 742 102 698 53 c 1,18,19
 616 -36 616 -36 448 -36 c 128,-1,20
 280 -36 280 -36 212 19.5 c 128,-1,21
 144 75 144 75 122 117.5 c 128,-1,22
 100 160 100 160 96 294 c 1,23,-1
 100 560 l 1,24,25
 98 650 98 650 80 680 c 128,-1,26
 62 710 62 710 62 726 c 2,27,-1
 62 727 l 1,28,-1
 76 776 l 1,29,30
 120 872 120 872 228 872 c 2,31,-1
 302 872 l 1,32,33
 352 870 352 870 352 842 c 2,34,-1
 352 841 l 1,35,36
 338 498 338 498 309 162 c 1,37,38
 364 112 364 112 435 112 c 128,-1,39
 506 112 506 112 544 141 c 128,-1,40
 582 170 582 170 614.5 212.5 c 128,-1,41
 647 255 647 255 656 283 c 128,-1,42
 665 311 665 311 699 350.5 c 128,-1,43
 733 390 733 390 738 409.5 c 128,-1,44
 743 429 743 429 746 533 c 128,-1,45
 749 637 749 637 755 657 c 1,46,47
 749 659 749 659 734 661 c 128,-1,48
 719 663 719 663 682 693 c 128,-1,49
 645 723 645 723 645 740 c 0,50,51
 645 765 645 765 665.5 782.5 c 128,-1,52
 686 800 686 800 696 807.5 c 128,-1,53
 706 815 706 815 760 856.5 c 128,-1,54
 814 898 814 898 854.5 898 c 128,-1,55
 895 898 895 898 918 879 c 1,0,1
EndSplineSet
Validated: 1
EndChar

StartChar: v
Encoding: 118 118 82
Width: 1130
VWidth: 1894
Flags: W
HStem: 824 20G<892 991>
VStem: 848 218<650.875 823.057>
LayerCount: 2
Fore
SplineSet
601 255 m 1,0,1
 644 319 644 319 746 499.5 c 128,-1,2
 848 680 848 680 848 744 c 128,-1,3
 848 808 848 808 858 826 c 128,-1,4
 868 844 868 844 916 844 c 0,5,6
 1066 844 1066 844 1066 742 c 0,7,8
 1066 690 1066 690 1040 669.5 c 128,-1,9
 1014 649 1014 649 948 536.5 c 128,-1,10
 882 424 882 424 870 407 c 128,-1,11
 858 390 858 390 850 362 c 128,-1,12
 842 334 842 334 774 238 c 128,-1,13
 706 142 706 142 682 97.5 c 128,-1,14
 658 53 658 53 629.5 29.5 c 128,-1,15
 601 6 601 6 582 6 c 0,16,17
 526 6 526 6 490 52 c 1,18,-1
 438 133 l 1,19,20
 390 226 390 226 279 370 c 1,21,22
 171 516 171 516 150.5 568.5 c 128,-1,23
 130 621 130 621 101 635 c 128,-1,24
 72 649 72 649 64 664.5 c 128,-1,25
 56 680 56 680 56 725 c 128,-1,26
 56 770 56 770 83 806 c 128,-1,27
 110 842 110 842 162 842 c 128,-1,28
 214 842 214 842 239.5 812 c 128,-1,29
 265 782 265 782 356 642 c 128,-1,30
 447 502 447 502 601 255 c 1,0,1
EndSplineSet
Validated: 1
EndChar

StartChar: w
Encoding: 119 119 83
Width: 1462
VWidth: 1894
Flags: W
HStem: 848 20G<191.25 285.75 1211.25 1339.75>
LayerCount: 2
Fore
SplineSet
1150 752 m 1,0,1
 1138 797 1138 797 1136 800 c 1,2,-1
 1137 806 l 2,3,4
 1147 868 1147 868 1275.5 868 c 128,-1,5
 1404 868 1404 868 1404 800 c 0,6,7
 1404 770 1404 770 1381 736 c 128,-1,8
 1358 702 1358 702 1325 613 c 128,-1,9
 1292 524 1292 524 1220 360 c 128,-1,10
 1148 196 1148 196 1127 134 c 128,-1,11
 1106 72 1106 72 1061 40 c 128,-1,12
 1016 8 1016 8 976 8 c 128,-1,13
 936 8 936 8 910 54 c 128,-1,14
 884 100 884 100 829.5 152 c 128,-1,15
 775 204 775 204 753 218 c 1,16,17
 735 198 735 198 709 145 c 0,18,19
 667 58 667 58 658 50 c 128,-1,20
 649 42 649 42 612.5 29 c 128,-1,21
 576 16 576 16 542 15 c 1,22,-1
 539 15 l 1,23,24
 537 15 537 15 536 15 c 0,25,26
 504 16 504 16 476 34 c 0,27,28
 447 54 447 54 398.5 149 c 128,-1,29
 350 244 350 244 328 278 c 128,-1,30
 306 312 306 312 291 350 c 128,-1,31
 276 388 276 388 213 492 c 128,-1,32
 150 596 150 596 144 637 c 0,33,34
 136 690 136 690 116 698 c 1,35,36
 60 725 60 725 58 757.5 c 128,-1,37
 56 790 56 790 56 803 c 0,38,39
 56 834 56 834 100 844 c 128,-1,40
 144 854 144 854 238.5 854 c 128,-1,41
 333 854 333 854 352 807 c 1,42,-1
 356 801 l 1,43,-1
 342 768 l 1,44,45
 329 756 329 756 311 746 c 1,46,47
 445 480 445 480 566 213 c 1,48,49
 575 235 575 235 593.5 282 c 128,-1,50
 612 329 612 329 655 390.5 c 128,-1,51
 698 452 698 452 723.5 475 c 128,-1,52
 749 498 749 498 785.5 498 c 128,-1,53
 822 498 822 498 841 469 c 128,-1,54
 860 440 860 440 870.5 368 c 128,-1,55
 881 296 881 296 913 261 c 128,-1,56
 945 226 945 226 961 209 c 1,57,58
 1051 484 1051 484 1150 752 c 1,0,1
EndSplineSet
Validated: 1
EndChar

StartChar: x
Encoding: 120 120 84
Width: 966
VWidth: 1894
Flags: W
HStem: 838 20G<119 248 599 802 835 872>
VStem: 60 230<657.477 823>
LayerCount: 2
Fore
SplineSet
826 729 m 0,0,1
 826 710 826 710 602 365 c 1,2,3
 625 338 625 338 663 300.5 c 128,-1,4
 701 263 701 263 734.5 222 c 128,-1,5
 768 181 768 181 815 152.5 c 128,-1,6
 862 124 862 124 881 100.5 c 128,-1,7
 900 77 900 77 900 38.5 c 128,-1,8
 900 0 900 0 874 -18 c 1,9,-1
 874 -22 l 1,10,-1
 842 -30 l 1,11,-1
 836 -30 l 2,12,13
 815 -30 815 -30 786.5 -15 c 128,-1,14
 758 0 758 0 718 7 c 128,-1,15
 678 14 678 14 655 35 c 128,-1,16
 632 56 632 56 626 100.5 c 128,-1,17
 620 145 620 145 576 183 c 128,-1,18
 532 221 532 221 511 239 c 1,19,20
 456 157 456 157 401 75 c 1,21,22
 429 47 429 47 428 37 c 2,23,-1
 428 34 l 1,24,25
 404 -20 404 -20 354 -25 c 2,26,-1
 211 -40 l 1,27,-1
 163 -36 l 1,28,-1
 159 -34 l 1,29,30
 108 -16 108 -16 108 23 c 2,31,-1
 108 25 l 1,32,-1
 121 65 l 1,33,34
 136 90 136 90 158 102.5 c 128,-1,35
 180 115 180 115 230 181 c 0,36,37
 322 304 322 304 322 334 c 0,38,39
 322 344 322 344 318.5 353.5 c 128,-1,40
 315 363 315 363 274.5 401.5 c 128,-1,41
 234 440 234 440 164 545 c 128,-1,42
 94 650 94 650 88 678 c 128,-1,43
 82 706 82 706 71 735 c 128,-1,44
 60 764 60 764 60 788 c 0,45,46
 60 858 60 858 178 858 c 2,47,-1
 228 858 l 2,48,49
 268 858 268 858 321 846.5 c 128,-1,50
 374 835 374 835 374 800 c 128,-1,51
 374 765 374 765 332 731.5 c 128,-1,52
 290 698 290 698 290 674 c 128,-1,53
 290 650 290 650 328.5 578 c 128,-1,54
 367 506 367 506 391.5 485.5 c 128,-1,55
 416 465 416 465 426 464 c 1,56,-1
 432 465 l 1,57,58
 454 481 454 481 519 592 c 1,59,-1
 590 706 l 1,60,61
 570 756 570 756 570 793 c 0,62,63
 570 827 570 827 599 862 c 1,64,-1
 695 874 l 1,65,-1
 802 865 l 1,66,67
 826 868 826 868 844 868 c 0,68,69
 900 868 900 868 900 835 c 0,70,71
 900 824 900 824 892 811 c 0,72,73
 864 763 864 763 824 737 c 1,74,75
 826 732 826 732 826 729 c 0,0,1
EndSplineSet
Validated: 1
EndChar

StartChar: y
Encoding: 121 121 85
Width: 996
VWidth: 1894
Flags: W
HStem: -380 206<246.114 387.754> 830 20G<272 280 827 891>
LayerCount: 2
Fore
SplineSet
189 246 m 1,0,1
 156 364 156 364 156 505 c 2,2,-1
 156 614 l 1,3,-1
 114 648 l 2,4,5
 58 694 58 694 56 729 c 1,6,-1
 56 734 l 2,7,8
 56 770 56 770 91 807 c 128,-1,9
 126 844 126 844 197 856 c 128,-1,10
 268 868 268 868 276 868 c 128,-1,11
 284 868 284 868 343.5 853 c 128,-1,12
 403 838 403 838 403 796 c 128,-1,13
 403 754 403 754 371.5 733 c 128,-1,14
 340 712 340 712 336 682.5 c 128,-1,15
 332 653 332 653 332 615 c 1,16,-1
 355 302 l 1,17,18
 367 225 367 225 452.5 189.5 c 128,-1,19
 538 154 538 154 576 143 c 1,20,21
 647 417 647 417 687 649 c 1,22,-1
 669 650 l 1,23,24
 595 651 595 651 595 732 c 0,25,26
 595 761 595 761 637 793.5 c 128,-1,27
 679 826 679 826 745.5 838 c 128,-1,28
 812 850 812 850 842 850 c 0,29,30
 940 850 940 850 940 788 c 2,31,-1
 940 786 l 2,32,33
 940 740 940 740 921 709 c 128,-1,34
 902 678 902 678 902 653 c 1,35,-1
 906 557 l 1,36,37
 906 505 906 505 808 84 c 0,38,39
 763 -108 763 -108 671.5 -231 c 128,-1,40
 580 -354 580 -354 484 -367 c 128,-1,41
 388 -380 388 -380 370.5 -380 c 128,-1,42
 353 -380 353 -380 332 -379 c 128,-1,43
 311 -378 311 -378 234.5 -329 c 128,-1,44
 158 -280 158 -280 143 -262 c 128,-1,45
 128 -244 128 -244 128 -227 c 128,-1,46
 128 -210 128 -210 138 -185 c 128,-1,47
 148 -160 148 -160 163 -150 c 128,-1,48
 178 -140 178 -140 215 -140 c 128,-1,49
 252 -140 252 -140 276 -157 c 128,-1,50
 300 -174 300 -174 324.5 -174 c 128,-1,51
 349 -174 349 -174 389 -184 c 1,52,53
 443 -144 443 -144 475 -106 c 128,-1,54
 507 -68 507 -68 534 15 c 1,55,56
 503 28 503 28 426 52 c 128,-1,57
 349 76 349 76 280 137 c 128,-1,58
 211 198 211 198 191 246 c 1,59,-1
 189 246 l 1,0,1
EndSplineSet
Validated: 1
EndChar

StartChar: z
Encoding: 122 122 86
Width: 922
VWidth: 1894
Flags: W
HStem: -394 166<288 505.625> -390 290<650.698 773.372> 676 156<359.073 554.299> 846 20G<124 362.235 686.5 751.5>
VStem: 102 164<599.703 675.934>
LayerCount: 2
Fore
SplineSet
156 -394 m 0,0,1
 46 -394 46 -394 46 -312 c 0,2,3
 46 -275 46 -275 72 -259 c 1,4,5
 82 -239 82 -239 94 -138 c 128,-1,6
 106 -37 106 -37 177.5 87 c 128,-1,7
 249 211 249 211 255 229 c 1,8,-1
 260 267 l 1,9,10
 256 290 256 290 256 300 c 0,11,12
 256 372 256 372 319.5 393 c 128,-1,13
 383 414 383 414 407 439 c 0,14,15
 439 471 439 471 481 538 c 0,16,17
 531 615 531 615 546 650 c 2,18,-1
 555 671 l 1,19,20
 546 673 546 673 534 676 c 1,21,-1
 276 676 l 1,22,23
 270 674 270 674 266 658 c 128,-1,24
 262 642 262 642 221 598 c 128,-1,25
 180 554 180 554 152 554 c 0,26,27
 102 554 102 554 102 671 c 2,28,-1
 102 768 l 2,29,30
 102 834 102 834 124 856 c 1,31,-1
 174 866 l 1,32,-1
 494 832 l 1,33,34
 520 833 520 833 587 858.5 c 128,-1,35
 654 884 654 884 719 884 c 128,-1,36
 784 884 784 884 822.5 859.5 c 128,-1,37
 861 835 861 835 861 794.5 c 128,-1,38
 861 754 861 754 810 729 c 1,39,40
 725 558 725 558 637 388 c 1,41,42
 656 354 656 354 656 337 c 0,43,44
 656 293 656 293 578 279 c 1,45,46
 435 23 435 23 288 -228 c 1,47,-1
 327 -228 l 2,48,49
 409 -228 409 -228 485.5 -202 c 128,-1,50
 562 -176 562 -176 601 -166 c 128,-1,51
 640 -156 640 -156 673 -128 c 128,-1,52
 706 -100 706 -100 741 -100 c 128,-1,53
 776 -100 776 -100 797 -121 c 128,-1,54
 818 -142 818 -142 818 -180 c 2,55,-1
 818 -181 l 1,56,-1
 808 -268 l 1,57,58
 794 -333 794 -333 757 -361.5 c 128,-1,59
 720 -390 720 -390 686 -390 c 2,60,-1
 675 -390 l 1,61,-1
 674 -390 l 2,62,63
 632 -388 632 -388 613.5 -363.5 c 128,-1,64
 595 -339 595 -339 585 -336 c 1,65,-1
 331 -379 l 1,66,67
 214 -394 214 -394 156 -394 c 0,0,1
EndSplineSet
Validated: 1
EndChar

StartChar: braceleft
Encoding: 123 123 87
Width: 668
VWidth: 1894
Flags: W
HStem: -242 100<714.948 766.787> 1432 136<511.188 745.23>
VStem: 268 243<891.529 1407.19> 268 227<-82 480.838> 286 221<804 1111.78 1120.22 1146.47>
LayerCount: 2
Fore
SplineSet
495 436 m 1,0,1
 499 304 499 304 499 175 c 128,-1,2
 499 46 499 46 495 -82 c 1,3,-1
 784 -142 l 1,4,-1
 778 -166 l 2,5,6
 759 -242 759 -242 698 -242 c 1,7,-1
 474 -236 l 1,8,9
 387 -229 387 -229 365 -207 c 1,10,-1
 290 -69 l 1,11,12
 274 -35 274 -35 268 186 c 128,-1,13
 262 407 262 407 259 435 c 0,14,15
 256 469 256 469 230 484 c 1,16,-1
 213 484 l 2,17,18
 198 484 198 484 175 499 c 128,-1,19
 152 514 152 514 132 544 c 128,-1,20
 112 574 112 574 112 597.5 c 128,-1,21
 112 621 112 621 135 649 c 1,22,-1
 286 804 l 1,23,-1
 268 1234 l 1,24,25
 268 1334 268 1334 273 1361 c 128,-1,26
 278 1388 278 1388 312 1447 c 128,-1,27
 346 1506 346 1506 458 1537 c 128,-1,28
 570 1568 570 1568 637 1568 c 128,-1,29
 704 1568 704 1568 735 1535 c 0,30,31
 765 1504 765 1504 766 1486 c 2,32,-1
 767 1465 l 1,33,34
 767 1432 767 1432 740 1432 c 0,35,36
 588 1432 588 1432 507 1386 c 1,37,38
 511 1251 511 1251 511 1116 c 128,-1,39
 511 981 511 981 507 842 c 1,40,41
 479 752 479 752 407 677 c 24,42,43
 364 632 364 632 360 631 c 1,44,-1
 359 624 l 1,45,46
 488 574 488 574 495 436 c 1,0,1
EndSplineSet
Validated: 1
EndChar

StartChar: bar
Encoding: 124 124 88
Width: 436
VWidth: 1894
Flags: W
VStem: 118 172<1012 1585.86> 126 178<-38.968 404.035 410.015 539.525 824.613 1302.43> 150 154<-432.952 -97.5745 -82.4153 380.192>
LayerCount: 2
Fore
SplineSet
292 962 m 1,0,-1
 280 732 l 1,1,-1
 304 254 l 1,2,-1
 304 208 l 1,3,-1
 300 6 l 1,4,-1
 320 -302 l 1,5,6
 320 -362 320 -362 307 -390 c 128,-1,7
 294 -418 294 -418 264 -431 c 128,-1,8
 234 -444 234 -444 219 -444 c 128,-1,9
 204 -444 204 -444 179 -426 c 128,-1,10
 154 -408 154 -408 140 -371 c 128,-1,11
 126 -334 126 -334 126 -90 c 128,-1,12
 126 154 126 154 138 233 c 128,-1,13
 150 312 150 312 150 407 c 128,-1,14
 150 502 150 502 134 785 c 128,-1,15
 118 1068 118 1068 118 1310 c 128,-1,16
 118 1552 118 1552 131 1587 c 128,-1,17
 144 1622 144 1622 169 1643 c 128,-1,18
 194 1664 194 1664 210 1664 c 128,-1,19
 226 1664 226 1664 255 1650 c 0,20,21
 312 1623 312 1623 312 1522 c 2,22,-1
 312 1516 l 2,23,24
 312 1462 312 1462 298 1412 c 1,25,-1
 290 1214 l 1,26,-1
 292 1012 l 1,27,-1
 292 962 l 1,0,-1
EndSplineSet
Validated: 1
EndChar

StartChar: asciitilde
Encoding: 126 126 89
Width: 1352
VWidth: 1894
Flags: W
HStem: 363 220<834.605 950.142> 624 240<368.665 571.713>
LayerCount: 2
Fore
SplineSet
1232 737 m 0,0,1
 1232 697 1232 697 1219 683 c 128,-1,2
 1206 669 1206 669 1145.5 586 c 128,-1,3
 1085 503 1085 503 1082 484 c 1,4,5
 1062 405 1062 405 982 371 c 0,6,7
 964 363 964 363 922 363 c 0,8,9
 825 363 825 363 779 445 c 0,10,11
 759 482 759 482 669 553 c 128,-1,12
 579 624 579 624 494.5 624 c 128,-1,13
 410 624 410 624 318 539 c 128,-1,14
 226 454 226 454 210.5 446 c 128,-1,15
 195 438 195 438 184 438 c 0,16,17
 116 438 116 438 116 546 c 2,18,-1
 116 576 l 2,19,20
 116 602 116 602 173.5 658.5 c 128,-1,21
 231 715 231 715 320 789.5 c 128,-1,22
 409 864 409 864 445 864 c 0,23,24
 525 864 525 864 587 807 c 128,-1,25
 649 750 649 750 775 666.5 c 128,-1,26
 901 583 901 583 910 583 c 128,-1,27
 919 583 919 583 973 658 c 0,28,29
 1088 820 1088 820 1160 820 c 128,-1,30
 1232 820 1232 820 1232 737 c 0,0,1
EndSplineSet
Validated: 1
EndChar

StartChar: cent
Encoding: 162 162 90
Width: 1084
VWidth: 1894
Flags: W
HStem: -46 148<528.975 707.901> 116 208<920 1008>
VStem: 40 164<233.393 508> 628 188<934.526 1198.75>
LayerCount: 2
Fore
SplineSet
984 914 m 0,0,1
 1044 914 1044 914 1044 848 c 0,2,3
 1044 761 1044 761 954 673 c 0,4,5
 930 650 930 650 899 650 c 128,-1,6
 868 650 868 650 852.5 665 c 128,-1,7
 837 680 837 680 808.5 716 c 128,-1,8
 780 752 780 752 740 752 c 2,9,-1
 736 752 l 2,10,11
 710 752 710 752 686 668 c 128,-1,12
 662 584 662 584 636 523 c 128,-1,13
 610 462 610 462 571 328 c 0,14,15
 528 182 528 182 528 128 c 0,16,17
 528 123 528 123 528 119 c 1,18,19
 559 102 559 102 616.5 102 c 128,-1,20
 674 102 674 102 709 119 c 128,-1,21
 744 136 744 136 797 215 c 128,-1,22
 850 294 850 294 870 307 c 128,-1,23
 890 320 890 320 914 322 c 1,24,-1
 920 324 l 1,25,-1
 926 324 l 1,26,27
 951 322 951 322 997.5 288 c 128,-1,28
 1044 254 1044 254 1044 202 c 128,-1,29
 1044 150 1044 150 1029 137 c 128,-1,30
 1014 124 1014 124 975 116 c 128,-1,31
 936 108 936 108 868 46 c 128,-1,32
 800 -16 800 -16 758 -30 c 128,-1,33
 716 -44 716 -44 600 -46 c 1,34,-1
 476 -50 l 1,35,-1
 460 -88 l 1,36,37
 426 -276 426 -276 352 -395 c 0,38,39
 340 -412 340 -412 320 -412 c 2,40,-1
 314 -412 l 1,41,-1
 232 -404 l 1,42,-1
 232 -348 l 2,43,44
 232 -312 232 -312 280 -78 c 1,45,-1
 296 -10 l 1,46,-1
 270 8 l 1,47,48
 66 164 66 164 40 297 c 1,49,-1
 36 508 l 1,50,-1
 120 634 l 2,51,52
 202 758 202 758 305 829 c 128,-1,53
 408 900 408 900 488 909 c 128,-1,54
 568 918 568 918 583 934 c 128,-1,55
 598 950 598 950 628 1072 c 128,-1,56
 658 1194 658 1194 687 1216 c 128,-1,57
 716 1238 716 1238 751 1238 c 128,-1,58
 786 1238 786 1238 801 1222 c 128,-1,59
 816 1206 816 1206 816 1164 c 128,-1,60
 816 1122 816 1122 804 1064 c 128,-1,61
 792 1006 792 1006 788 986 c 1,62,-1
 784 951 l 1,63,-1
 780 928 l 1,64,-1
 792 914 l 1,65,-1
 811 900 l 1,66,-1
 896 870 l 1,67,-1
 926 890 l 1,68,69
 956 914 956 914 984 914 c 0,0,1
523 750 m 0,70,71
 504 750 504 750 453 730 c 128,-1,72
 402 710 402 710 321 624 c 128,-1,73
 240 538 240 538 222 489 c 128,-1,74
 204 440 204 440 204 369 c 128,-1,75
 204 298 204 298 221 267 c 128,-1,76
 238 236 238 236 281 203 c 128,-1,77
 324 170 324 170 336 170 c 128,-1,78
 348 170 348 170 357 189 c 128,-1,79
 366 208 366 208 418 375 c 128,-1,80
 470 542 470 542 501 628 c 128,-1,81
 532 714 532 714 532 732 c 128,-1,82
 532 750 532 750 523 750 c 0,70,71
EndSplineSet
Validated: 1
EndChar

StartChar: sterling
Encoding: 163 163 91
Width: 980
VWidth: 1894
Flags: W
HStem: -64 188<639.562 772.5> 545 160<531.479 583.625> 1246 180<489.194 698.37>
VStem: 704.5 159.5<1117.86 1244.97> 738 204<127.193 233.213>
LayerCount: 2
Fore
SplineSet
850 262 m 0,0,1
 942 262 942 262 942 160 c 0,2,3
 942 136 942 136 928 126 c 128,-1,4
 914 116 914 116 872 42 c 128,-1,5
 830 -32 830 -32 814 -48 c 128,-1,6
 798 -64 798 -64 747 -64 c 128,-1,7
 696 -64 696 -64 571 27 c 128,-1,8
 446 118 446 118 383.5 118 c 128,-1,9
 321 118 321 118 308.5 110 c 128,-1,10
 296 102 296 102 243 41 c 128,-1,11
 190 -20 190 -20 166 -38 c 128,-1,12
 142 -56 142 -56 108 -56 c 2,13,-1
 46 -56 l 1,14,-1
 30 47 l 1,15,-1
 30 48 l 2,16,17
 30 74 30 74 40 94 c 128,-1,18
 50 114 50 114 110 189 c 128,-1,19
 170 264 170 264 187 318 c 128,-1,20
 204 372 204 372 208 421.5 c 128,-1,21
 212 471 212 471 222 641.5 c 128,-1,22
 232 812 232 812 278 1118 c 1,23,24
 286 1274 286 1274 430 1384 c 1,25,26
 488 1426 488 1426 528 1426 c 0,27,28
 666 1426 666 1426 749 1372 c 128,-1,29
 832 1318 832 1318 844 1289 c 0,30,31
 864 1242 864 1242 864 1188 c 0,32,33
 864 1104 864 1104 798 1104 c 0,34,35
 760 1104 760 1104 738 1127 c 128,-1,36
 716 1150 716 1150 704.5 1184.5 c 128,-1,37
 693 1219 693 1219 687 1230 c 0,38,39
 678 1246 678 1246 674 1246 c 0,40,41
 656 1246 656 1246 577.5 1232 c 128,-1,42
 499 1218 499 1218 485 1197 c 1,43,-1
 456 1118 l 1,44,45
 444 1066 444 1066 420 911.5 c 128,-1,46
 396 757 396 757 391 711 c 1,47,48
 413 709 413 709 470 705 c 0,49,50
 584 698 584 698 596 632 c 1,51,-1
 602 587 l 1,52,-1
 585 545 l 1,53,-1
 529 530 l 1,54,-1
 431 530 l 1,55,56
 394 502 394 502 382 474 c 128,-1,57
 370 446 370 446 370 380.5 c 128,-1,58
 370 315 370 315 371 304 c 1,59,60
 374 300 374 300 394 294 c 128,-1,61
 414 288 414 288 543 206 c 128,-1,62
 672 124 672 124 694 124 c 128,-1,63
 716 124 716 124 722 127 c 1,64,65
 727 133 727 133 738 160 c 0,66,67
 776 262 776 262 850 262 c 0,0,1
EndSplineSet
Validated: 1
EndChar

StartChar: section
Encoding: 167 167 92
Width: 830
VWidth: 1894
Flags: W
HStem: -76 136<206.658 415.451> 461 187<328.193 520.162> 832 159<452.75 640.285> 1244 148<334.704 591.431>
VStem: 49 155<84.3123 174.485 590 706.311> 610 180<1135.64 1258.54> 642 148<732 828.822>
LayerCount: 2
Fore
SplineSet
210 84 m 1,0,1
 231 60 231 60 256 60 c 0,2,3
 370 60 370 60 428 114 c 128,-1,4
 486 168 486 168 522.5 231.5 c 128,-1,5
 559 295 559 295 561 310 c 1,6,-1
 564 354 l 1,7,8
 559 370 559 370 533 401 c 0,9,10
 485 461 485 461 470.5 461 c 128,-1,11
 456 461 456 461 367 429.5 c 128,-1,12
 278 398 278 398 242 398 c 0,13,14
 96 398 96 398 52 534 c 1,15,16
 41 572 41 572 39 590 c 2,17,-1
 37 615 l 1,18,19
 37 618 37 618 37 622 c 0,20,21
 36 646 36 646 42 678 c 0,22,23
 48 714 48 714 80 752 c 128,-1,24
 112 790 112 790 116 808 c 1,25,-1
 116 816 l 2,26,27
 116 835 116 835 99 873.5 c 128,-1,28
 82 912 82 912 76 932 c 1,29,-1
 69 932 l 1,30,-1
 82 1048 l 1,31,32
 94 1130 94 1130 152 1206 c 128,-1,33
 210 1282 210 1282 265 1315 c 128,-1,34
 320 1348 320 1348 407 1370 c 128,-1,35
 494 1392 494 1392 547 1392 c 128,-1,36
 600 1392 600 1392 673.5 1372.5 c 128,-1,37
 747 1353 747 1353 768.5 1320 c 128,-1,38
 790 1287 790 1287 790 1257 c 0,39,40
 790 1173 790 1173 774 1138.5 c 128,-1,41
 758 1104 758 1104 722 1076 c 128,-1,42
 686 1048 686 1048 652 1048 c 0,43,44
 602 1048 602 1048 581 1056 c 1,45,-1
 561 1084 l 1,46,-1
 609 1174 l 1,47,48
 610 1184 610 1184 610 1200.5 c 128,-1,49
 610 1217 610 1217 592 1230.5 c 128,-1,50
 574 1244 574 1244 528 1244 c 2,51,-1
 442 1244 l 1,52,53
 344 1242 344 1242 264 1128 c 0,54,55
 222 1069 222 1069 218.5 1049 c 128,-1,56
 215 1029 215 1029 215 1020 c 0,57,58
 215 1012 215 1012 216.5 1001 c 128,-1,59
 218 990 218 990 248 945 c 128,-1,60
 278 900 278 900 314 900 c 2,61,-1
 320 900 l 2,62,63
 336 900 336 900 436 945.5 c 128,-1,64
 536 991 536 991 599 991 c 2,65,-1
 602 991 l 1,66,67
 667 990 667 990 728.5 939 c 128,-1,68
 790 888 790 888 790 818 c 2,69,-1
 790 817 l 1,70,-1
 778 732 l 1,71,72
 762 638 762 638 668 562 c 0,73,74
 648 546 648 546 640 533 c 1,75,-1
 662 504 l 1,76,77
 698 464 698 464 705 440 c 128,-1,78
 712 416 712 416 714 405 c 128,-1,79
 716 394 716 394 716 364 c 128,-1,80
 716 334 716 334 706 272 c 128,-1,81
 696 210 696 210 684 181 c 128,-1,82
 672 152 672 152 633 97 c 0,83,84
 559 -8 559 -8 394 -52 c 0,85,86
 304 -76 304 -76 270 -76 c 128,-1,87
 236 -76 236 -76 188 -52 c 0,88,89
 95 -8 95 -8 64 94 c 1,90,91
 51 131 51 131 50 143 c 0,92,93
 49 154 49 154 49 164 c 0,94,95
 49 188 49 188 54 207 c 0,96,97
 61 237 61 237 94 270 c 1,98,99
 134 304 134 304 176 304 c 128,-1,100
 218 304 218 304 250 271 c 1,101,-1
 282 213 l 1,102,-1
 273 207 l 1,103,104
 264 185 264 185 236.5 165 c 128,-1,105
 209 145 209 145 204 125 c 1,106,-1
 204 119 l 1,107,-1
 202 107 l 1,108,-1
 202 103 l 2,109,110
 202 94 202 94 209 84 c 1,111,-1
 210 84 l 1,0,1
390 648 m 2,112,-1
 477 646 l 1,113,114
 514 650 514 650 571 684 c 128,-1,115
 628 718 628 718 642 782 c 1,116,-1
 642 786 l 2,117,118
 642 796 642 796 626.5 814 c 128,-1,119
 611 832 611 832 576.5 832 c 128,-1,120
 542 832 542 832 474 798 c 128,-1,121
 406 764 406 764 338 745 c 128,-1,122
 270 726 270 726 247 705 c 128,-1,123
 224 684 224 684 220 656 c 0,124,125
 212 610 212 610 212 591.5 c 128,-1,126
 212 573 212 573 223 563 c 1,127,-1
 249 548 l 2,128,129
 249 548 249 548 250 548 c 0,130,131
 254 548 254 548 268 556 c 0,132,133
 284 566 284 566 286 579 c 0,134,135
 290 604 290 604 332 626 c 128,-1,136
 374 648 374 648 390 648 c 2,112,-1
EndSplineSet
Validated: 1
EndChar

StartChar: guillemotleft
Encoding: 171 171 93
Width: 1238
VWidth: 1894
Flags: W
HStem: 1052 88<657.75 677.625>
LayerCount: 2
Fore
SplineSet
618 1140 m 2,0,-1
 620 1140 l 2,1,2
 647 1140 647 1140 664.5 1118 c 128,-1,3
 682 1096 682 1096 682 1076 c 2,4,-1
 682 1052 l 1,5,-1
 679 1052 l 1,6,7
 674 1018 674 1018 604 950 c 0,8,9
 498 847 498 847 376 686 c 0,10,11
 353 656 353 656 343 640 c 1,12,-1
 333 617 l 1,13,14
 371 563 371 563 487.5 493.5 c 128,-1,15
 604 424 604 424 642 387 c 128,-1,16
 680 350 680 350 680 308 c 2,17,-1
 680 304 l 1,18,19
 679 270 679 270 657 251 c 128,-1,20
 635 232 635 232 600 232 c 2,21,-1
 591 232 l 1,22,23
 523 236 523 236 412 340 c 1,24,-1
 284 442 l 1,25,26
 162 535 162 535 140 562.5 c 128,-1,27
 118 590 118 590 118 608 c 2,28,-1
 118 632 l 1,29,-1
 125 632 l 1,30,31
 142 675 142 675 222 759.5 c 128,-1,32
 302 844 302 844 381 947 c 128,-1,33
 460 1050 460 1050 527 1095 c 128,-1,34
 594 1140 594 1140 618 1140 c 2,0,-1
1080 1135 m 1,35,36
 1120 1115 1120 1115 1120 1066 c 2,37,-1
 1120 1064 l 2,38,39
 1120 1043 1120 1043 1100.5 1017.5 c 128,-1,40
 1081 992 1081 992 1026 939 c 0,41,42
 932 847 932 847 860.5 753.5 c 128,-1,43
 789 660 789 660 778 643 c 1,44,-1
 769 625 l 1,45,46
 797 570 797 570 919.5 499 c 128,-1,47
 1042 428 1042 428 1080 391 c 128,-1,48
 1118 354 1118 354 1118 310 c 2,49,-1
 1118 306 l 1,50,51
 1117 272 1117 272 1095 253 c 128,-1,52
 1073 234 1073 234 1038 234 c 2,53,-1
 1028 234 l 1,54,-1
 1026 236 l 1,55,56
 958 244 958 244 850 344 c 1,57,-1
 721 447 l 1,58,59
 600 539 600 539 586 557 c 128,-1,60
 572 575 572 575 572 596.5 c 128,-1,61
 572 618 572 618 616.5 690.5 c 128,-1,62
 661 763 661 763 700 804.5 c 128,-1,63
 739 846 739 846 818.5 949 c 128,-1,64
 898 1052 898 1052 965 1097 c 128,-1,65
 1032 1142 1032 1142 1056 1142 c 2,66,-1
 1080 1142 l 1,67,-1
 1080 1135 l 1,35,36
EndSplineSet
Validated: 1
EndChar

StartChar: guillemotright
Encoding: 187 187 94
Width: 1238
VWidth: 1894
Flags: W
LayerCount: 2
Fore
SplineSet
641 990 m 1,0,-1
 646 988 l 1,1,2
 714 983 714 983 824 882 c 1,3,-1
 952 780 l 1,4,5
 1074 687 1074 687 1096 659.5 c 128,-1,6
 1118 632 1118 632 1118 614 c 2,7,-1
 1118 604 l 1,8,-1
 1115 601 l 1,9,10
 1106 560 1106 560 1020 469 c 128,-1,11
 934 378 934 378 855 275 c 128,-1,12
 776 172 776 172 709 127 c 128,-1,13
 642 82 642 82 618 82 c 2,14,-1
 608 82 l 1,15,-1
 605 85 l 1,16,17
 584 89 584 89 569 107.5 c 128,-1,18
 554 126 554 126 554 158 c 2,19,-1
 554 168 l 1,20,-1
 557 171 l 1,21,22
 566 204 566 204 634 272 c 0,23,24
 753 391 753 391 860 534 c 0,25,26
 883 565 883 565 893 581 c 1,27,-1
 904 604 l 1,28,29
 893 620 893 620 849.5 658 c 128,-1,30
 806 696 806 696 719 746 c 128,-1,31
 632 796 632 796 594 834 c 128,-1,32
 556 872 556 872 556 914 c 2,33,-1
 556 918 l 1,34,35
 557 952 557 952 579 971 c 128,-1,36
 601 990 601 990 636 990 c 2,37,-1
 641 990 l 1,0,-1
205 988 m 1,38,39
 273 984 273 984 386 878 c 1,40,-1
 515 777 l 1,41,42
 636 686 636 686 658 657 c 128,-1,43
 680 628 680 628 680 606.5 c 128,-1,44
 680 585 680 585 656 551.5 c 128,-1,45
 632 518 632 518 564 447 c 128,-1,46
 496 376 496 376 416 273 c 128,-1,47
 336 170 336 170 269 125 c 128,-1,48
 202 80 202 80 177 80 c 128,-1,49
 152 80 152 80 134 102 c 128,-1,50
 116 124 116 124 116 156 c 2,51,-1
 116 160 l 2,52,53
 116 181 116 181 135.5 206.5 c 128,-1,54
 155 232 155 232 210 284 c 0,55,56
 303 373 303 373 424 531 c 0,57,58
 460 578 460 578 467 595 c 1,59,60
 457 613 457 613 411.5 652.5 c 128,-1,61
 366 692 366 692 280 744 c 128,-1,62
 194 796 194 796 156 833 c 128,-1,63
 118 870 118 870 118 912 c 2,64,-1
 118 916 l 1,65,66
 119 950 119 950 141 969 c 128,-1,67
 163 988 163 988 198 988 c 2,68,-1
 205 988 l 1,38,39
EndSplineSet
Validated: 1
EndChar

StartChar: questiondown
Encoding: 191 191 95
Width: 768
VWidth: 1894
Flags: W
HStem: 64 218<455.096 545.373> 842 20G<407.5 434.5> 964 318<308.617 503.874>
VStem: 30 180<-133.324 124.922> 260 292<1012.2 1243.26> 336 184<472.742 816.328> 580 154<-79 91.5913>
LayerCount: 2
Fore
SplineSet
260 1140 m 1,0,1
 272 1268 272 1268 365 1280 c 0,2,3
 383 1282 383 1282 435.5 1282 c 128,-1,4
 488 1282 488 1282 520 1224 c 128,-1,5
 552 1166 552 1166 552 1124 c 128,-1,6
 552 1082 552 1082 543 1060 c 128,-1,7
 534 1038 534 1038 497 1001 c 128,-1,8
 460 964 460 964 428 964 c 2,9,-1
 398 964 l 2,10,11
 350 964 350 964 305 1012 c 128,-1,12
 260 1060 260 1060 260 1138 c 2,13,-1
 260 1140 l 1,0,1
520 570 m 2,14,15
 520 538 520 538 480 452 c 128,-1,16
 440 366 440 366 359 271 c 0,17,18
 210 96 210 96 210 -18 c 0,19,20
 210 -76 210 -76 254 -133 c 128,-1,21
 298 -190 298 -190 351 -190 c 128,-1,22
 404 -190 404 -190 500 -152 c 1,23,-1
 570 -79 l 1,24,-1
 580 -7 l 1,25,26
 578 48 578 48 563 93 c 1,27,-1
 546 100 l 1,28,29
 526 97 526 97 497 80.5 c 128,-1,30
 468 64 468 64 446 64 c 2,31,-1
 437 64 l 1,32,-1
 408 73 l 1,33,34
 390 86 390 86 390 108 c 2,35,-1
 390 134 l 2,36,37
 390 160 390 160 418 197 c 128,-1,38
 446 234 446 234 482 258 c 128,-1,39
 518 282 518 282 567 282 c 128,-1,40
 616 282 616 282 659 252 c 128,-1,41
 702 222 702 222 718 148 c 128,-1,42
 734 74 734 74 734 46 c 0,43,44
 734 -152 734 -152 658 -222 c 1,45,46
 636 -278 636 -278 544 -307 c 1,47,-1
 441 -348 l 1,48,-1
 422 -356 l 1,49,-1
 245 -326 l 1,50,51
 198 -316 198 -316 133 -251 c 128,-1,52
 68 -186 68 -186 49 -151 c 128,-1,53
 30 -116 30 -116 30 -64 c 0,54,55
 30 146 30 146 134 252 c 0,56,57
 142 262 142 262 222 371 c 128,-1,58
 302 480 302 480 319 523 c 128,-1,59
 336 566 336 566 336 600 c 1,60,-1
 328 712 l 1,61,62
 328 796 328 796 349 817 c 0,63,64
 394 862 394 862 421 862 c 128,-1,65
 448 862 448 862 476 832 c 128,-1,66
 504 802 504 802 506 774 c 2,67,-1
 520 572 l 1,68,-1
 520 570 l 2,14,15
EndSplineSet
Validated: 1
EndChar

StartChar: germandbls
Encoding: 223 223 115
Width: 1024
VWidth: 1894
Flags: W
HStem: -42 142<446.866 621.903> 1336 20G<547.25 653.75>
VStem: 50 208<-400 -284.493> 683 223<834.032 1156.3> 750 224<238.556 500.439>
LayerCount: 2
Fore
SplineSet
152 402 m 128,-1,1
 152 468 152 468 190 664 c 1,2,3
 216 842 216 842 254 958 c 128,-1,4
 292 1074 292 1074 393 1215 c 128,-1,5
 494 1356 494 1356 600.5 1356 c 128,-1,6
 707 1356 707 1356 744.5 1336 c 128,-1,7
 782 1316 782 1316 844 1214 c 128,-1,8
 906 1112 906 1112 906 1003 c 128,-1,9
 906 894 906 894 866 816 c 0,10,11
 827 739 827 739 827 721 c 0,12,-1
 828 721 l 0,13,14
 828 704 828 704 901 594.5 c 128,-1,15
 974 485 974 485 974 365.5 c 128,-1,16
 974 246 974 246 922 157 c 128,-1,17
 870 68 870 68 803 13 c 128,-1,18
 736 -42 736 -42 574 -42 c 128,-1,19
 412 -42 412 -42 375 -17 c 128,-1,20
 338 8 338 8 338 42 c 2,21,-1
 338 76 l 1,22,-1
 340 115 l 1,23,-1
 353 137 l 1,24,25
 375 160 375 160 401.5 160 c 128,-1,26
 428 160 428 160 469.5 130 c 128,-1,27
 511 100 511 100 541 100 c 128,-1,28
 571 100 571 100 588 114 c 0,29,30
 750 248 750 248 750 364 c 128,-1,31
 750 480 750 480 633 583 c 1,32,33
 622 578 622 578 593.5 564.5 c 128,-1,34
 565 551 565 551 520.5 551 c 128,-1,35
 476 551 476 551 461 577.5 c 128,-1,36
 446 604 446 604 446 623 c 0,37,38
 446 685 446 685 551 745 c 0,39,40
 572 757 572 757 591 768 c 1,41,42
 683 875 683 875 683 979.5 c 128,-1,43
 683 1084 683 1084 623 1185 c 1,44,45
 586 1170 586 1170 579 1165 c 1,46,47
 452 836 452 836 301 295 c 1,48,49
 276 81 276 81 264 -232 c 2,50,-1
 258 -400 l 1,51,-1
 50 -400 l 1,52,-1
 120 164 l 2,53,54
 133 268 133 268 142.5 302 c 128,-1,0
 152 336 152 336 152 402 c 128,-1,1
EndSplineSet
Validated: 1
EndChar

StartChar: quoteright
Encoding: 8217 8217 135
Width: 416
VWidth: 1894
Flags: W
HStem: 1082 444<91 195.988>
VStem: 36 282<1257.11 1455.18> 90 228<1210.27 1309.06>
LayerCount: 2
Fore
SplineSet
112 1082 m 0,0,1
 64 1082 64 1082 64 1122 c 0,2,3
 64 1140 64 1140 77 1161.5 c 128,-1,4
 90 1183 90 1183 90 1218.5 c 128,-1,5
 90 1254 90 1254 63 1280 c 128,-1,6
 36 1306 36 1306 36 1372 c 2,7,-1
 36 1378 l 2,8,9
 36 1430 36 1430 51 1456 c 128,-1,10
 66 1482 66 1482 106 1504 c 128,-1,11
 146 1526 146 1526 178 1526 c 2,12,-1
 179 1526 l 1,13,-1
 215 1521 l 1,14,-1
 216 1520 l 1,15,16
 258 1506 258 1506 287 1473 c 128,-1,17
 316 1440 316 1440 318 1360 c 1,18,-1
 318 1356 l 2,19,20
 318 1222 318 1222 196 1126 c 1,21,22
 136 1082 136 1082 112 1082 c 0,0,1
EndSplineSet
EndChar

StartChar: quotedblleft
Encoding: 8220 8220 136
Width: 812
VWidth: 1894
Flags: W
HStem: 1078 464
VStem: 104 294<1166.31 1371.62> 482 230<1207 1393.74>
LayerCount: 2
Fore
SplineSet
327 1394 m 1,0,1
 362 1374 362 1374 380 1328 c 128,-1,2
 398 1282 398 1282 398 1228.5 c 128,-1,3
 398 1175 398 1175 364 1133.5 c 128,-1,4
 330 1092 330 1092 279 1092 c 128,-1,5
 228 1092 228 1092 210 1106 c 128,-1,6
 192 1120 192 1120 153 1161 c 128,-1,7
 114 1202 114 1202 109 1224 c 128,-1,8
 104 1246 104 1246 104 1285 c 128,-1,9
 104 1324 104 1324 165 1413 c 128,-1,10
 226 1502 226 1502 253 1522 c 128,-1,11
 280 1542 280 1542 313 1542 c 128,-1,12
 346 1542 346 1542 360 1532 c 128,-1,13
 374 1522 374 1522 374 1490 c 128,-1,14
 374 1458 374 1458 354 1431.5 c 128,-1,15
 334 1405 334 1405 327 1394 c 1,0,1
608 1478 m 1,16,17
 668 1520 668 1520 690.5 1520 c 128,-1,18
 713 1520 713 1520 736.5 1504 c 128,-1,19
 760 1488 760 1488 736 1454 c 128,-1,20
 712 1420 712 1420 712 1384 c 128,-1,21
 712 1348 712 1348 737 1322 c 128,-1,22
 762 1296 762 1296 762 1232 c 128,-1,23
 762 1168 762 1168 744 1144 c 128,-1,24
 726 1120 726 1120 689 1099 c 128,-1,25
 652 1078 652 1078 620 1078 c 2,26,-1
 618 1078 l 1,27,-1
 583 1083 l 1,28,-1
 582 1084 l 1,29,30
 539 1098 539 1098 510.5 1133 c 128,-1,31
 482 1168 482 1168 482 1246 c 0,32,33
 482 1382 482 1382 608 1478 c 1,16,17
EndSplineSet
Validated: 1
EndChar

StartChar: quotedblright
Encoding: 8221 8221 137
Width: 812
VWidth: 1894
Flags: W
HStem: 1068 458
VStem: 36 282<1257.11 1455.18> 90 228<1210.27 1309.06> 402 294<1240.56 1389>
LayerCount: 2
Fore
SplineSet
112 1082 m 0,0,1
 64 1082 64 1082 64 1122 c 0,2,3
 64 1140 64 1140 77 1161.5 c 128,-1,4
 90 1183 90 1183 90 1218.5 c 128,-1,5
 90 1254 90 1254 63 1280 c 128,-1,6
 36 1306 36 1306 36 1372 c 2,7,-1
 36 1378 l 2,8,9
 36 1430 36 1430 51 1456 c 128,-1,10
 66 1482 66 1482 106 1504 c 128,-1,11
 146 1526 146 1526 178 1526 c 2,12,-1
 179 1526 l 1,13,-1
 215 1521 l 1,14,-1
 216 1520 l 1,15,16
 258 1506 258 1506 287 1473 c 128,-1,17
 316 1440 316 1440 318 1360 c 1,18,-1
 318 1356 l 2,19,20
 318 1222 318 1222 196 1126 c 1,21,22
 136 1082 136 1082 112 1082 c 0,0,1
689 1389 m 1,23,-1
 696 1331 l 1,24,-1
 696 1330 l 2,25,26
 696 1288 696 1288 637 1199 c 128,-1,27
 578 1110 578 1110 551 1089 c 128,-1,28
 524 1068 524 1068 492 1068 c 2,29,-1
 491 1068 l 1,30,-1
 446 1076 l 1,31,32
 429 1088 429 1088 429 1117 c 0,33,34
 429 1118 429 1118 429 1120 c 0,35,36
 430 1152 430 1152 450 1178.5 c 128,-1,37
 470 1205 470 1205 476 1216 c 1,38,39
 441 1236 441 1236 421.5 1282 c 128,-1,40
 402 1328 402 1328 402 1358 c 2,41,-1
 402 1362 l 2,42,43
 402 1435 402 1435 435 1476 c 0,44,45
 468 1518 468 1518 518 1518 c 0,46,-1
 522 1518 l 0,47,48
 569 1518 569 1518 587 1505 c 0,49,50
 606 1492 606 1492 644.5 1451.5 c 128,-1,51
 683 1411 683 1411 689 1389 c 1,23,-1
EndSplineSet
Validated: 1
EndChar

StartChar: bullet
Encoding: 8226 8226 138
Width: 778
VWidth: 1894
Flags: W
HStem: 360 548<294.688 503.671>
VStem: 118 538<457.51 752.903>
LayerCount: 2
Fore
SplineSet
135 522 m 128,-1,1
 118 574 118 574 118 655 c 128,-1,2
 118 736 118 736 195 816 c 128,-1,3
 272 896 272 896 294 902 c 128,-1,4
 316 908 316 908 340 908 c 128,-1,5
 364 908 364 908 422 893 c 128,-1,6
 480 878 480 878 505 863 c 1,7,-1
 567 811 l 1,8,9
 656 711 656 711 656 625.5 c 128,-1,10
 656 540 656 540 625 475 c 128,-1,11
 594 410 594 410 544 385 c 128,-1,12
 494 360 494 360 410 360 c 128,-1,13
 326 360 326 360 299 366 c 128,-1,14
 272 372 272 372 228 401 c 128,-1,15
 184 430 184 430 168 450 c 128,-1,0
 152 470 152 470 135 522 c 128,-1,1
EndSplineSet
Validated: 1
EndChar

StartChar: Euro
Encoding: 8364 8364 139
Width: 1208
VWidth: 1894
Flags: W
HStem: -58 175<551.423 927.385> 506 188<41.5449 214> 512 140<40.1167 84.9178> 534 180<668.47 962.794> 562 152<480.107 918.698> 701.5 190.5<107.375 264.493> 720 198<627 896.079> 745 173<627 896.079>
VStem: 216 239<227.521 506>
LayerCount: 2
Fore
SplineSet
478 704 m 1,0,1
 526 714 526 714 708 714 c 128,-1,2
 890 714 890 714 928 708 c 128,-1,3
 966 702 966 702 977 687 c 128,-1,4
 988 672 988 672 988 633 c 128,-1,5
 988 594 988 594 945 564 c 128,-1,6
 902 534 902 534 862 534 c 128,-1,7
 822 534 822 534 768 548 c 128,-1,8
 714 562 714 562 667 562 c 0,9,10
 571 562 571 562 460 548 c 1,11,12
 455 470 455 470 455 419 c 0,13,14
 455 279 455 279 472 224 c 1,15,16
 560 148 560 148 611 127 c 128,-1,17
 662 106 662 106 753 106 c 128,-1,18
 844 106 844 106 870 112 c 1,19,-1
 870 117 l 1,20,-1
 880 117 l 1,21,22
 904 130 904 130 934 169 c 128,-1,23
 964 208 964 208 972 254 c 128,-1,24
 980 300 980 300 1001 321 c 128,-1,25
 1022 342 1022 342 1076 342 c 128,-1,26
 1130 342 1130 342 1150 309 c 128,-1,27
 1170 276 1170 276 1170 175 c 128,-1,28
 1170 74 1170 74 1155 48 c 128,-1,29
 1140 22 1140 22 1114 22 c 2,30,-1
 1113 22 l 1,31,-1
 1071 29 l 1,32,33
 1044 42 1044 42 1035 44 c 1,34,35
 1029 41 1029 41 1011.5 23.5 c 128,-1,36
 994 6 994 6 923 -26 c 128,-1,37
 852 -58 852 -58 766 -58 c 0,38,39
 520 -58 520 -58 318 158 c 1,40,41
 256 222 256 222 238 270 c 128,-1,42
 220 318 220 318 216 420 c 1,43,-1
 214 506 l 1,44,-1
 68 512 l 1,45,46
 38 527 38 527 38 584 c 2,47,-1
 38 652 l 1,48,-1
 110 674 l 1,49,50
 168 694 168 694 228 694 c 2,51,-1
 232 694 l 1,52,-1
 238 692 l 1,53,54
 259 692 259 692 265 698 c 1,55,56
 249 701 249 701 205.5 701.5 c 128,-1,57
 162 702 162 702 124 731 c 128,-1,58
 86 760 86 760 86 786 c 0,59,60
 86 892 86 892 238 892 c 2,61,-1
 239 892 l 1,62,-1
 328 884 l 1,63,-1
 406 1060 l 1,64,65
 446 1162 446 1162 510 1261 c 128,-1,66
 574 1360 574 1360 617 1389 c 128,-1,67
 660 1418 660 1418 700 1420 c 2,68,-1
 701 1420 l 1,69,-1
 714 1420 l 1,70,-1
 715 1418 l 1,71,72
 720 1418 720 1418 733.5 1417.5 c 128,-1,73
 747 1417 747 1417 831.5 1404.5 c 128,-1,74
 916 1392 916 1392 933 1392 c 128,-1,75
 950 1392 950 1392 972 1408 c 128,-1,76
 994 1424 994 1424 1033 1424 c 0,77,78
 1099 1424 1099 1424 1099 1384 c 2,79,-1
 1099 1383 l 2,80,81
 1100 1378 1100 1378 1100 1374 c 2,82,-1
 1100 1355 l 2,83,84
 1100 1314 1100 1314 1068 1263 c 128,-1,85
 1036 1212 1036 1212 995 1179 c 128,-1,86
 954 1146 954 1146 934 1142 c 2,87,-1
 906 1138 l 1,88,-1
 906 1147 l 1,89,90
 881 1155 881 1155 870 1191 c 0,91,92
 867 1201 867 1201 857.5 1233.5 c 128,-1,93
 848 1266 848 1266 823.5 1274.5 c 128,-1,94
 799 1283 799 1283 780 1286 c 1,95,96
 716 1222 716 1222 644 1116 c 128,-1,97
 572 1010 572 1010 533 908 c 1,98,-1
 627 920 l 1,99,-1
 635 918 l 1,100,-1
 780 918 l 2,101,102
 868 918 868 918 897 891 c 128,-1,103
 926 864 926 864 926 825 c 128,-1,104
 926 786 926 786 912 773 c 0,105,106
 884 748 884 748 783 745 c 128,-1,107
 682 742 682 742 660 731 c 128,-1,108
 638 720 638 720 578 720 c 1,109,-1
 482 724 l 1,110,111
 479 712 479 712 478 704 c 1,0,1
EndSplineSet
Validated: 1
EndChar

StartChar: AE
Encoding: 198 198 140
Width: 1576
VWidth: 1894
Flags: W
HStem: 94 140<904.908 1207.54> 524 301<1018.75 1141.15> 534 166<374.099 645> 1080 200<1272.72 1360.87> 1136 170<883.204 987.45> 1176 130<1059 1263.64> 1200 169<447.453 611>
VStem: 626 257<754.266 1136> 645 238<752 1136> 652 246<223.281 533> 1216 128<-9.04297 73.7445>
LayerCount: 2
Fore
SplineSet
540 1200 m 1,0,1
 461 1198 461 1198 447 1184 c 1,2,-1
 444 1184 l 1,3,4
 429 1175 429 1175 414 1151 c 1,5,6
 396 920 396 920 374 690 c 1,7,-1
 508 700 l 1,8,9
 582 700 582 700 645 693 c 1,10,11
 634 938 634 938 626 1184 c 1,12,-1
 611 1200 l 1,13,-1
 540 1200 l 1,0,1
900 222 m 1,14,15
 992 234 992 234 1093.5 234 c 128,-1,16
 1195 234 1195 234 1297 221 c 1,17,18
 1305 230 1305 230 1322.5 261 c 128,-1,19
 1340 292 1340 292 1382 296 c 1,20,-1
 1386 296 l 2,21,22
 1438 296 1438 296 1438 223 c 128,-1,23
 1438 150 1438 150 1396 98 c 128,-1,24
 1354 46 1354 46 1344 28 c 1,25,-1
 1344 26 l 2,26,27
 1344 0 1344 0 1317 -12 c 128,-1,28
 1290 -24 1290 -24 1270.5 -24 c 128,-1,29
 1251 -24 1251 -24 1236.5 -9.5 c 128,-1,30
 1222 5 1222 5 1216 35.5 c 128,-1,31
 1210 66 1210 66 1205 74 c 1,32,33
 1175 94 1175 94 1117 94 c 128,-1,34
 1059 94 1059 94 690 4 c 1,35,-1
 684 4 l 2,36,37
 618 4 618 4 616 60 c 1,38,39
 629 134 629 134 673 159 c 1,40,41
 661 346 661 346 652 533 c 1,42,43
 608 534 608 534 508 534 c 128,-1,44
 408 534 408 534 387 528.5 c 128,-1,45
 366 523 366 523 358 521 c 1,46,47
 339 331 339 331 318 142 c 1,48,-1
 355 127 l 1,49,-1
 361 101 l 1,50,-1
 361 100 l 2,51,52
 361 30 361 30 297 16 c 0,53,54
 256 6 256 6 192 6 c 128,-1,55
 128 6 128 6 93 17 c 128,-1,56
 58 28 58 28 54 68 c 1,57,-1
 54 74 l 2,58,59
 54 108 54 108 84 135 c 128,-1,60
 114 162 114 162 114 174 c 2,61,-1
 114 175 l 1,62,-1
 144 486 l 1,63,-1
 152 667 l 1,64,-1
 150 677 l 1,65,-1
 150 680 l 2,66,67
 150 746 150 746 188.5 958 c 128,-1,68
 227 1170 227 1170 355 1313 c 0,69,70
 404 1368 404 1368 531 1369 c 1,71,-1
 534 1369 l 2,72,73
 654 1369 654 1369 741 1284 c 1,74,-1
 744 1285 l 1,75,-1
 745 1285 l 1,76,77
 813 1304 813 1304 1030 1304 c 1,78,-1
 1059 1306 l 1,79,-1
 1060 1306 l 1,80,81
 1254 1304 1254 1304 1285 1292 c 128,-1,82
 1316 1280 1316 1280 1326 1280 c 128,-1,83
 1336 1280 1336 1280 1346 1283 c 1,84,85
 1354 1287 1354 1287 1377 1323.5 c 128,-1,86
 1400 1360 1400 1360 1442 1360 c 0,87,88
 1504 1360 1504 1360 1504 1282 c 0,89,90
 1504 1254 1504 1254 1474 1194 c 0,91,92
 1416 1080 1416 1080 1346 1080 c 0,93,94
 1308 1080 1308 1080 1288 1108 c 128,-1,95
 1268 1136 1268 1136 1216 1156 c 0,96,97
 1162 1176 1162 1176 1144 1176 c 1,98,-1
 900 1136 l 1,99,-1
 883 1136 l 1,100,-1
 883 752 l 1,101,102
 888 753 888 753 900 757.5 c 128,-1,103
 912 762 912 762 967.5 768.5 c 128,-1,104
 1023 775 1023 775 1056 800 c 128,-1,105
 1089 825 1089 825 1109 825 c 2,106,-1
 1111 825 l 1,107,-1
 1159 810 l 2,108,109
 1202 796 1202 796 1202 733 c 2,110,-1
 1202 732 l 1,111,112
 1201 667 1201 667 1159.5 595.5 c 128,-1,113
 1118 524 1118 524 1072.5 524 c 128,-1,114
 1027 524 1027 524 973 605 c 1,115,116
 903 588 903 588 896 582 c 1,117,118
 892 575 892 575 892 546 c 1,119,-1
 902 372 l 1,120,-1
 898 328 l 1,121,-1
 900 222 l 1,14,15
EndSplineSet
Validated: 1
EndChar

StartChar: ae
Encoding: 230 230 141
Width: 1308
VWidth: 1894
Flags: W
HStem: -18 154<748.092 1007.05> 6 142<289.081 455.711> 403 113<765.073 956.191> 712 154<301.508 532.253> 758 126<831.567 938.273>
VStem: 68 184<164.232 381.051> 530 213<276.778 371.65> 973 269<459.5 663.898> 1040 198<156.635 282.983>
LayerCount: 2
Fore
SplineSet
781 685 m 1,0,1
 773 601 773 601 764 518 c 1,2,3
 781 516 781 516 793 516 c 0,4,5
 806 516 806 516 961 552 c 1,6,7
 973 590 973 590 973 621 c 0,8,9
 973 708 973 708 884 758 c 1,10,11
 849 757 849 757 831 743 c 1,12,13
 805 718 805 718 781 685 c 1,0,1
665 755 m 1,14,15
 747 884 747 884 861 884 c 2,16,-1
 863 884 l 2,17,18
 919 884 919 884 988.5 865 c 128,-1,19
 1058 846 1058 846 1083 826 c 128,-1,20
 1108 806 1108 806 1160 728 c 0,21,22
 1242 606 1242 606 1242 484 c 0,23,24
 1242 435 1242 435 1214 413 c 128,-1,25
 1186 391 1186 391 1118 391 c 2,26,-1
 1117 391 l 1,27,-1
 996 403 l 1,28,29
 902 403 902 403 831.5 384 c 128,-1,30
 761 365 761 365 743 360 c 1,31,32
 732 282 732 282 720 207 c 1,33,34
 734 193 734 193 765 165.5 c 128,-1,35
 796 138 796 138 887 136 c 1,36,-1
 900 136 l 2,37,38
 978 136 978 136 1008 156 c 128,-1,39
 1038 176 1038 176 1040 236 c 128,-1,40
 1042 296 1042 296 1070 320 c 2,41,-1
 1110 356 l 1,42,-1
 1170 306 l 1,43,44
 1238 246 1238 246 1238 183 c 128,-1,45
 1238 120 1238 120 1229 96 c 128,-1,46
 1220 72 1220 72 1165 58 c 128,-1,47
 1110 44 1110 44 1076 26 c 128,-1,48
 1042 8 1042 8 981 -5 c 128,-1,49
 920 -18 920 -18 890 -18 c 128,-1,50
 860 -18 860 -18 803 -4 c 128,-1,51
 746 10 746 10 718 23 c 0,52,53
 660 50 660 50 598 107 c 1,54,55
 589 100 589 100 567 82 c 0,56,57
 471 6 471 6 408 6 c 128,-1,58
 345 6 345 6 270 22 c 0,59,60
 68 66 68 66 68 257 c 0,61,62
 68 288 68 288 89 378 c 128,-1,63
 110 468 110 468 150 492 c 0,64,65
 205 525 205 525 302 543 c 2,66,-1
 449 569 l 1,67,-1
 554 557 l 2,68,69
 561 557 561 557 566 558 c 1,70,-1
 571 568 l 1,71,72
 573 581 573 581 573 608 c 2,73,-1
 573 623 l 2,74,75
 573 660 573 660 533.5 686 c 128,-1,76
 494 712 494 712 404 712 c 2,77,-1
 340 712 l 1,78,79
 322 702 322 702 290 650 c 128,-1,80
 258 598 258 598 236 577 c 128,-1,81
 214 556 214 556 183 556 c 128,-1,82
 152 556 152 556 140 575.5 c 128,-1,83
 128 595 128 595 128 613.5 c 128,-1,84
 128 632 128 632 148 687 c 128,-1,85
 168 742 168 742 172 750 c 128,-1,86
 176 758 176 758 232 812 c 128,-1,87
 288 866 288 866 387 866 c 128,-1,88
 486 866 486 866 555 831 c 1,89,-1
 645 780 l 1,90,91
 655 771 655 771 665 755 c 1,14,15
252 272 m 0,92,93
 252 216 252 216 300 159 c 1,94,95
 337 148 337 148 380 148 c 128,-1,96
 423 148 423 148 451 185.5 c 128,-1,97
 479 223 479 223 502.5 245.5 c 128,-1,98
 526 268 526 268 528 276.5 c 128,-1,99
 530 285 530 285 530 343.5 c 128,-1,100
 530 402 530 402 523 419 c 0,101,102
 512 446 512 446 396 446 c 0,103,104
 380 446 380 446 374 444 c 2,105,-1
 350 436 l 1,106,107
 252 352 252 352 252 272 c 0,92,93
EndSplineSet
Validated: 1
EndChar

StartChar: dotlessi
Encoding: 305 305 142
Width: 558
VWidth: 1894
Flags: W
HStem: 0 155<378 487.717> 836 20G<286.5 315>
VStem: 140 238<169 418.809> 155 196<686.854 847.51>
LayerCount: 2
Fore
SplineSet
303 856 m 0,0,1
 327 835 327 835 351 815 c 1,2,3
 374 484 374 484 376 321 c 2,4,-1
 378 169 l 1,5,-1
 498 155 l 1,6,-1
 498 86 l 2,7,8
 498 0 498 0 368 0 c 0,9,10
 322 0 322 0 260 28.5 c 128,-1,11
 198 57 198 57 169 119.5 c 128,-1,12
 140 182 140 182 140 256 c 128,-1,13
 140 330 140 330 147 350.5 c 128,-1,14
 154 371 154 371 154 392 c 128,-1,15
 154 413 154 413 152 419 c 1,16,17
 145 420 145 420 141 422 c 0,18,19
 123 426 123 426 110 430 c 0,20,21
 62 446 62 446 62 516 c 0,22,23
 62 555 62 555 105 672.5 c 128,-1,24
 148 790 148 790 155 822 c 0,25,26
 161 848 161 848 236 852 c 0,27,28
 270 854 270 854 303 856 c 0,0,1
EndSplineSet
Validated: 1
EndChar

StartChar: uni0237
Encoding: 567 567 143
Width: 514
VWidth: 1894
Flags: W
HStem: -400 154<109.348 181.714> 840 20G<266.5 369>
VStem: 118 318<454.047 789.418> 194 217<-241.098 242.12> 204 232<218.922 369>
LayerCount: 2
Fore
SplineSet
302 860 m 0,0,1
 436 860 436 860 436 781 c 0,2,3
 436 780 436 780 436 779 c 0,4,5
 417 -279 417 -279 411 -301 c 0,6,7
 400 -344 400 -344 330 -382 c 24,8,9
 298 -400 298 -400 242 -400 c 2,10,-1
 184 -400 l 2,11,12
 146 -400 146 -400 78 -379 c 0,13,14
 -48 -340 -48 -340 -48 -260 c 2,15,-1
 -48 -256 l 2,16,17
 -48 -221 -48 -221 -24 -185 c 1,18,-1
 -22 -180 l 1,19,-1
 9 -166 l 1,20,-1
 12 -166 l 2,21,22
 23 -166 23 -166 38 -172 c 128,-1,23
 53 -178 53 -178 75.5 -206.5 c 128,-1,24
 98 -235 98 -235 109 -240.5 c 128,-1,25
 120 -246 120 -246 146.5 -246 c 128,-1,26
 173 -246 173 -246 182 -242 c 1,27,28
 189 -214 189 -214 194 -77 c 2,29,-1
 204 176 l 1,30,-1
 192 369 l 1,31,-1
 165 365 l 1,32,-1
 164 365 l 2,33,34
 163 365 163 365 162 365 c 0,35,36
 127 365 127 365 99 392 c 1,37,-1
 79 429 l 1,38,39
 76 439 76 439 76 450 c 1,40,-1
 74 453 l 1,41,-1
 80 520 l 1,42,43
 88 567 88 567 118 667 c 0,44,45
 167 828 167 828 203 846 c 0,46,47
 231 860 231 860 302 860 c 0,0,1
EndSplineSet
Validated: 1
EndChar

StartChar: degree
Encoding: 176 176 144
Width: 670
VWidth: 1894
Flags: W
HStem: 1129 126<270.016 385.973> 1380 145<278.506 388.896>
VStem: 118 152<1259.52 1353.14> 396 158<1290.32 1372.77>
LayerCount: 2
Fore
SplineSet
334 1525 m 0,0,1
 420 1525 420 1525 460 1505 c 1,2,3
 554 1461 554 1461 554 1365 c 2,4,-1
 554 1354 l 2,5,6
 554 1268 554 1268 511 1211.5 c 128,-1,7
 468 1155 468 1155 431 1142 c 128,-1,8
 394 1129 394 1129 364 1129 c 2,9,-1
 304 1129 l 2,10,11
 264 1129 264 1129 215 1151.5 c 128,-1,12
 166 1174 166 1174 142 1224.5 c 128,-1,13
 118 1275 118 1275 118 1320.5 c 128,-1,14
 118 1366 118 1366 132 1403 c 0,15,16
 176 1525 176 1525 334 1525 c 0,0,1
355 1380 m 128,-1,18
 338 1380 338 1380 312 1366.5 c 128,-1,19
 286 1353 286 1353 278 1339 c 128,-1,20
 270 1325 270 1325 270 1300 c 0,21,22
 270 1264 270 1264 335 1255 c 0,23,24
 336 1255 336 1255 337 1255 c 0,25,26
 354 1255 354 1255 387 1290 c 0,27,28
 396 1300 396 1300 396 1333 c 128,-1,29
 396 1366 396 1366 384 1373 c 128,-1,17
 372 1380 372 1380 355 1380 c 128,-1,18
EndSplineSet
Validated: 1
EndChar

StartChar: registered
Encoding: 174 174 145
Width: 1302
VWidth: 1894
Flags: W
HStem: 406 136<432.625 805.643> 1100 154<614.948 700.096> 1302 132<467.698 839.948>
VStem: 114 106<763.39 1102.22> 462 157<705.003 785.833 938 1047.21> 716 152<974.657 1082.31> 1052 134<829.782 1112>
LayerCount: 2
Fore
SplineSet
131 1027 m 128,-1,1
 148 1096 148 1096 163 1127 c 128,-1,2
 178 1158 178 1158 249.5 1226 c 128,-1,3
 321 1294 321 1294 409.5 1353 c 128,-1,4
 498 1412 498 1412 543 1423 c 128,-1,5
 588 1434 588 1434 622 1434 c 0,6,7
 736 1434 736 1434 772 1423 c 128,-1,8
 808 1412 808 1412 872 1368 c 128,-1,9
 936 1324 936 1324 969 1314 c 128,-1,10
 1002 1304 1002 1304 1064 1261 c 128,-1,11
 1126 1218 1126 1218 1156 1173 c 128,-1,12
 1186 1128 1186 1128 1186 1049 c 128,-1,13
 1186 970 1186 970 1171 914 c 128,-1,14
 1156 858 1156 858 1111 759 c 128,-1,15
 1066 660 1066 660 1037 623 c 128,-1,16
 1008 586 1008 586 967 529 c 128,-1,17
 926 472 926 472 855 439 c 128,-1,18
 784 406 784 406 626 406 c 128,-1,19
 468 406 468 406 384 447 c 128,-1,20
 300 488 300 488 238 551 c 128,-1,21
 176 614 176 614 154 664 c 128,-1,22
 132 714 132 714 123 795 c 128,-1,23
 114 876 114 876 114 917 c 128,-1,0
 114 958 114 958 131 1027 c 128,-1,1
1012 1158 m 1,24,25
 966 1200 966 1200 921 1225 c 128,-1,26
 876 1250 876 1250 795 1276 c 128,-1,27
 714 1302 714 1302 636 1302 c 128,-1,28
 558 1302 558 1302 482 1274 c 0,29,30
 330 1218 330 1218 248 1076 c 1,31,32
 220 1030 220 1030 220 1002 c 0,33,34
 220 826 220 826 270 754 c 0,35,36
 288 728 288 728 348 665 c 128,-1,37
 408 602 408 602 433 586 c 128,-1,38
 458 570 458 570 520 556 c 128,-1,39
 582 542 582 542 644 542 c 128,-1,40
 706 542 706 542 762 563 c 128,-1,41
 818 584 818 584 889 659 c 128,-1,42
 960 734 960 734 1001 814.5 c 128,-1,43
 1042 895 1042 895 1052 922 c 1,44,-1
 1058 1112 l 1,45,-1
 1012 1158 l 1,24,25
356 968 m 2,46,47
 312 968 312 968 312 1024 c 0,48,49
 312 1050 312 1050 346 1122 c 128,-1,50
 380 1194 380 1194 470 1224 c 128,-1,51
 560 1254 560 1254 644 1254 c 128,-1,52
 728 1254 728 1254 798 1179 c 128,-1,53
 868 1104 868 1104 868 1054 c 128,-1,54
 868 1004 868 1004 854 963 c 128,-1,55
 840 922 840 922 830 913 c 128,-1,56
 820 904 820 904 820 892 c 128,-1,57
 820 880 820 880 848 847 c 128,-1,58
 876 814 876 814 876 774 c 128,-1,59
 876 734 876 734 836 693 c 128,-1,60
 796 652 796 652 746 652 c 2,61,-1
 677 652 l 1,62,-1
 690 772 l 1,63,-1
 689 785 l 1,64,-1
 651 786 l 1,65,66
 624 781 624 781 622 730 c 1,67,-1
 624 694 l 1,68,-1
 619 654 l 1,69,70
 608 629 608 629 569 627 c 0,71,72
 558 626 558 626 526 626 c 128,-1,73
 494 626 494 626 470 649 c 128,-1,74
 446 672 446 672 446 704 c 128,-1,75
 446 736 446 736 454 779 c 1,76,-1
 462 978 l 1,77,78
 462 1023 462 1023 459 1048 c 1,79,-1
 438 1022 l 2,80,81
 396 970 396 970 361 968 c 1,82,-1
 356 968 l 2,46,47
628 1100 m 2,83,-1
 614 1100 l 1,84,-1
 619 938 l 1,85,86
 640 948 640 948 678 980.5 c 128,-1,87
 716 1013 716 1013 716 1027.5 c 128,-1,88
 716 1042 716 1042 685 1071 c 128,-1,89
 654 1100 654 1100 628 1100 c 2,83,-1
EndSplineSet
Validated: 1
EndChar

StartChar: copyright
Encoding: 169 169 146
Width: 1426
VWidth: 1894
Flags: W
HStem: 332 155<461.282 613 615 917.176> 568 132<601.95 774.1> 646 228<837 953.86> 988 196<823.344 929.375> 1066 130<624.656 802.71> 1307.5 114.5<586.741 965.139>
VStem: 114 144<651.411 937.957> 390 144<761.429 961.491> 1188 120<761.074 1081.05>
LayerCount: 2
Fore
SplineSet
926 646 m 1,0,1
 896 644 896 644 834 606 c 128,-1,2
 772 568 772 568 718 568 c 128,-1,3
 664 568 664 568 612 580 c 1,4,5
 390 638 390 638 390 854 c 2,6,-1
 390 894 l 2,7,8
 390 946 390 946 420 962 c 1,9,-1
 436 1006 l 1,10,11
 440 1014 440 1014 478 1060 c 128,-1,12
 516 1106 516 1106 589 1151 c 128,-1,13
 662 1196 662 1196 746 1196 c 2,14,-1
 747 1196 l 1,15,-1
 854 1184 l 1,16,17
 874 1184 874 1184 892 1193 c 128,-1,18
 910 1202 910 1202 930 1202 c 0,19,20
 980 1202 980 1202 980 1139 c 128,-1,21
 980 1076 980 1076 940 1032 c 128,-1,22
 900 988 900 988 874 988 c 2,23,-1
 872 988 l 1,24,25
 842 992 842 992 827 1025 c 128,-1,26
 812 1058 812 1058 803 1062 c 128,-1,27
 794 1066 794 1066 750 1066 c 0,28,29
 644 1066 644 1066 570 966 c 1,30,31
 540 927 540 927 537 906.5 c 128,-1,32
 534 886 534 886 534 868 c 128,-1,33
 534 850 534 850 545 817 c 128,-1,34
 556 784 556 784 567 771 c 128,-1,35
 578 758 578 758 622 729 c 128,-1,36
 666 700 666 700 678 700 c 128,-1,37
 690 700 690 700 702 704 c 0,38,39
 792 736 792 736 799 789 c 0,40,41
 808 856 808 856 837 871 c 1,42,-1
 857 874 l 1,43,-1
 858 874 l 2,44,45
 884 874 884 874 928 847 c 128,-1,46
 972 820 972 820 988 793 c 128,-1,47
 1004 766 1004 766 1004 716 c 2,48,-1
 1004 640 l 1,49,-1
 932 646 l 1,50,-1
 926 646 l 1,0,1
790 1294 m 1,51,52
 738 1294 738 1294 721 1301 c 128,-1,53
 704 1308 704 1308 692 1307.5 c 128,-1,54
 680 1307 680 1307 601 1269.5 c 128,-1,55
 522 1232 522 1232 506 1204 c 128,-1,56
 490 1176 490 1176 466 1168.5 c 128,-1,57
 442 1161 442 1161 413 1121 c 128,-1,58
 384 1081 384 1081 321 971.5 c 128,-1,59
 258 862 258 862 258 792 c 128,-1,60
 258 722 258 722 302 652 c 128,-1,61
 346 582 346 582 451.5 535 c 128,-1,62
 557 488 557 488 613 487 c 1,63,-1
 615 488 l 1,64,-1
 825 492 l 1,65,66
 964 520 964 520 1128 736 c 0,67,68
 1172 792 1172 792 1180 860 c 128,-1,69
 1188 928 1188 928 1188 990 c 128,-1,70
 1188 1052 1188 1052 1171 1082 c 128,-1,71
 1154 1112 1154 1112 1053 1205 c 128,-1,72
 952 1298 952 1298 874 1298 c 1,73,-1
 790 1294 l 1,51,52
514 1358 m 1,74,75
 562 1378 562 1378 604 1400 c 128,-1,76
 646 1422 646 1422 762 1422 c 128,-1,77
 878 1422 878 1422 913 1401 c 128,-1,78
 948 1380 948 1380 1013 1363 c 128,-1,79
 1078 1346 1078 1346 1148 1285 c 128,-1,80
 1218 1224 1218 1224 1256 1165 c 128,-1,81
 1294 1106 1294 1106 1301 1080 c 128,-1,82
 1308 1054 1308 1054 1308 996 c 2,83,-1
 1308 900 l 2,84,85
 1308 852 1308 852 1284 806 c 128,-1,86
 1260 760 1260 760 1250 721 c 128,-1,87
 1240 682 1240 682 1179 595 c 128,-1,88
 1118 508 1118 508 1066 460 c 0,89,90
 924 332 924 332 734 332 c 128,-1,91
 544 332 544 332 389 402 c 128,-1,92
 234 472 234 472 152 610 c 0,93,94
 126 656 126 656 120 686 c 128,-1,95
 114 716 114 716 114 793 c 128,-1,96
 114 870 114 870 119 899 c 128,-1,97
 124 928 124 928 152 969 c 128,-1,98
 180 1010 180 1010 186 1036 c 128,-1,99
 192 1062 192 1062 303 1193 c 128,-1,100
 414 1324 414 1324 514 1358 c 1,74,75
EndSplineSet
Validated: 1
EndChar

StartChar: oslash
Encoding: 248 248 147
Width: 988
VWidth: 1894
Flags: W
HStem: -30 168<367.41 629.717> 754 128<523.448 617.252>
VStem: 700 210<219.731 593.835>
LayerCount: 2
Fore
SplineSet
442 732 m 1,0,1
 406 731 406 731 355 682 c 1,2,3
 302 547 302 547 302 470 c 128,-1,4
 302 393 302 393 306 349 c 1,5,-1
 606 727 l 2,6,7
 613 735 613 735 618 743 c 1,8,9
 594 754 594 754 579 754 c 1,10,-1
 486 730 l 1,11,-1
 442 732 l 1,0,1
168.5 725 m 128,-1,13
 212 778 212 778 242 798 c 128,-1,14
 272 818 272 818 353 850 c 128,-1,15
 434 882 434 882 514.5 882 c 128,-1,16
 595 882 595 882 705 832 c 1,17,18
 715 843 715 843 737 867 c 128,-1,19
 759 891 759 891 785 891 c 2,20,-1
 793 891 l 1,21,-1
 795 889 l 1,22,23
 816 884 816 884 835 861 c 2,24,-1
 865 822 l 1,25,-1
 818 758 l 1,26,27
 893 687 893 687 908 643 c 1,28,-1
 934 481 l 1,29,-1
 934 480 l 2,30,31
 934 448 934 448 922 422 c 128,-1,32
 910 396 910 396 910 352 c 128,-1,33
 910 308 910 308 877 221 c 128,-1,34
 844 134 844 134 808 78 c 0,35,36
 742 -30 742 -30 589 -30 c 128,-1,37
 436 -30 436 -30 367 -1.5 c 128,-1,38
 298 27 298 27 267 43 c 1,39,40
 230 -7 230 -7 211.5 -23 c 128,-1,41
 193 -39 193 -39 155 -39 c 2,42,-1
 149 -39 l 1,43,44
 120 -37 120 -37 102.5 -20.5 c 128,-1,45
 85 -4 85 -4 85 16 c 0,46,47
 85 57 85 57 110 90 c 128,-1,48
 135 123 135 123 143 136 c 1,49,50
 116 173 116 173 89 240 c 1,51,-1
 54 340 l 1,52,-1
 64 458 l 1,53,54
 78 552 78 552 101.5 612 c 128,-1,12
 125 672 125 672 168.5 725 c 128,-1,13
365 174 m 1,55,56
 442 138 442 138 536 138 c 2,57,-1
 542 138 l 2,58,59
 590 138 590 138 631 157 c 1,60,61
 700 317 700 317 700 422 c 128,-1,62
 700 527 700 527 687 596 c 1,63,-1
 492 350 l 1,64,65
 458 297 458 297 365 174 c 1,55,56
EndSplineSet
Validated: 1
EndChar

StartChar: Oslash
Encoding: 216 216 148
Width: 1274
VWidth: 1894
Flags: W
HStem: 1252 148<459.846 736>
VStem: 56 226<436 968.233> 977 233<415.136 1018.98>
LayerCount: 2
Fore
SplineSet
781 1228 m 1,0,-1
 784 1233 l 1,1,2
 759 1245 759 1245 741.5 1248.5 c 128,-1,3
 724 1252 724 1252 648 1252 c 0,4,5
 548 1252 548 1252 457 1207 c 1,6,7
 403 1146 403 1146 362 1066 c 0,8,9
 282 908 282 908 282 554 c 0,10,11
 282 446 282 446 289 319 c 1,12,13
 378 500 378 500 576 857 c 1,14,-1
 781 1228 l 1,0,-1
194 144 m 1,15,16
 180 160 180 160 155 192.5 c 128,-1,17
 130 225 130 225 101 306.5 c 128,-1,18
 72 388 72 388 66 436 c 1,19,-1
 56 572 l 1,20,21
 56 633 56 633 68 766.5 c 128,-1,22
 80 900 80 900 96 957 c 128,-1,23
 112 1014 112 1014 150 1114 c 128,-1,24
 188 1214 188 1214 206 1243 c 128,-1,25
 224 1272 224 1272 286 1314 c 0,26,27
 402 1392 402 1392 590 1400 c 1,28,-1
 713 1392 l 1,29,-1
 736 1388 l 1,30,31
 809 1374 809 1374 861 1357 c 1,32,33
 873 1374 873 1374 893 1401.5 c 128,-1,34
 913 1429 913 1429 939 1429 c 2,35,-1
 943 1429 l 2,36,37
 966 1429 966 1429 988 1407 c 2,38,-1
 1022 1372 l 1,39,-1
 987 1285 l 1,40,41
 1048 1236 1048 1236 1089 1184 c 128,-1,42
 1130 1132 1130 1132 1166 1019 c 128,-1,43
 1202 906 1202 906 1206 873 c 128,-1,44
 1210 840 1210 840 1210 793 c 128,-1,45
 1210 746 1210 746 1202 602 c 128,-1,46
 1194 458 1194 458 1112 269 c 128,-1,47
 1030 80 1030 80 887 16 c 1,48,-1
 860 3 l 1,49,50
 831 -11 831 -11 786 -27 c 1,51,-1
 705 -42 l 1,52,-1
 544 -20 l 1,53,-1
 400 20 l 1,54,55
 367 32 367 32 323 54 c 1,56,57
 283 -21 283 -21 266 -44 c 128,-1,58
 249 -67 249 -67 206 -69 c 2,59,-1
 205 -69 l 1,60,-1
 198 -69 l 2,61,62
 168 -69 168 -69 151 -49.5 c 128,-1,63
 134 -30 134 -30 134 1 c 2,64,-1
 134 10 l 1,65,66
 136 35 136 35 155 70 c 128,-1,67
 174 105 174 105 194 144 c 1,15,16
575 517 m 1,68,69
 472 325 472 325 397 183 c 1,70,71
 409 177 409 177 437.5 162.5 c 128,-1,72
 466 148 466 148 558 131 c 128,-1,73
 650 114 650 114 681 114 c 1,74,-1
 727 121 l 1,75,76
 785 139 785 139 831 167 c 1,77,78
 868 215 868 215 897 274 c 0,79,80
 977 434 977 434 977 789 c 0,81,82
 977 917 977 917 967 1071 c 1,83,84
 955 1106 955 1106 925 1143 c 1,85,-1
 904 1090 l 1,86,-1
 575 517 l 1,68,69
EndSplineSet
Validated: 1
EndChar

StartChar: oe
Encoding: 339 339 149
Width: 1428
VWidth: 1894
Flags: W
HStem: -22 154<363.596 564.81 959 1131.05> 393 117<880.855 1127.05> 721 149<416.312 592.664>
VStem: 1164 198<146.119 270.074>
LayerCount: 2
Fore
SplineSet
1039 750 m 1,0,1
 916 634 916 634 876 513 c 1,2,3
 902 510 902 510 917 510 c 0,4,5
 953 510 953 510 1054 536 c 128,-1,6
 1155 562 1155 562 1166 566 c 1,7,8
 1131 679 1131 679 1113.5 708 c 128,-1,9
 1096 737 1096 737 1081.5 742.5 c 128,-1,10
 1067 748 1067 748 1039 750 c 1,0,1
725 101 m 1,11,12
 656 -22 656 -22 521.5 -22 c 128,-1,13
 387 -22 387 -22 299.5 20 c 128,-1,14
 212 62 212 62 169 99 c 128,-1,15
 126 136 126 136 91 225 c 128,-1,16
 56 314 56 314 54 341 c 1,17,-1
 64 456 l 1,18,19
 76 548 76 548 96 605.5 c 128,-1,20
 116 663 116 663 155 715 c 128,-1,21
 194 767 194 767 223 787.5 c 128,-1,22
 252 808 252 808 320 839 c 128,-1,23
 388 870 388 870 446.5 870 c 128,-1,24
 505 870 505 870 575.5 840 c 128,-1,25
 646 810 646 810 687 779 c 128,-1,26
 728 748 728 748 765 700 c 1,27,28
 856 876 856 876 986 876 c 2,29,-1
 988 876 l 2,30,31
 1042 876 1042 876 1112 857 c 128,-1,32
 1182 838 1182 838 1207 818 c 128,-1,33
 1232 798 1232 798 1284 720 c 0,34,35
 1366 597 1366 597 1366 475 c 0,36,37
 1366 427 1366 427 1339 403.5 c 128,-1,38
 1312 380 1312 380 1242 380 c 2,39,-1
 1241 380 l 1,40,-1
 1120 393 l 1,41,42
 1026 393 1026 393 866 349 c 1,43,-1
 862 348 l 1,44,45
 878 242 878 242 959 132 c 1,46,-1
 1025 126 l 1,47,48
 1102 126 1102 126 1132 145.5 c 128,-1,49
 1162 165 1162 165 1164 222.5 c 128,-1,50
 1166 280 1166 280 1194 303 c 1,51,-1
 1232 338 l 1,52,-1
 1294 292 l 1,53,54
 1362 234 1362 234 1362 171 c 128,-1,55
 1362 108 1362 108 1353 86 c 128,-1,56
 1344 64 1344 64 1289 50 c 128,-1,57
 1234 36 1234 36 1200 18.5 c 128,-1,58
 1166 1 1166 1 1105 -11.5 c 128,-1,59
 1044 -24 1044 -24 1015 -24 c 128,-1,60
 986 -24 986 -24 929 -10 c 128,-1,61
 872 4 872 4 844 17 c 0,62,63
 794 41 794 41 725 101 c 1,11,12
638 291 m 1,64,-1
 638 326 l 1,65,-1
 642 376 l 1,66,67
 642 412 642 412 658 458 c 1,68,-1
 670 508 l 1,69,70
 660 581 660 581 629 630 c 128,-1,71
 598 679 598 679 562.5 700 c 128,-1,72
 527 721 527 721 510 721 c 2,73,-1
 508 721 l 1,74,75
 490 720 490 720 473 709 c 128,-1,76
 456 698 456 698 436 698 c 2,77,-1
 416 699 l 1,78,79
 275 541 275 541 275 389 c 0,80,81
 275 270 275 270 362 152 c 1,82,83
 413 132 413 132 472 132 c 2,84,-1
 478 132 l 2,85,86
 528 132 528 132 566 158 c 128,-1,87
 604 184 604 184 638 291 c 1,64,-1
EndSplineSet
Validated: 1
EndChar

StartChar: OE
Encoding: 338 338 150
Width: 1666
VWidth: 1894
Flags: W
HStem: 102 130<1000 1305.97> 533 300<1121.7 1243.22> 1090 200<1374.73 1462> 1186 128<993.438 1365.83> 1370 10G<451.5 595 1521 1573>
VStem: 58 201<435 931.858>
LayerCount: 2
Fore
SplineSet
794 721.5 m 128,-1,1
 794 1004 794 1004 621 1259 c 1,2,3
 603 1264 603 1264 549.5 1264 c 128,-1,4
 496 1264 496 1264 450 1247 c 1,5,6
 259 930 259 930 259 658 c 128,-1,7
 259 386 259 386 398 154 c 1,8,9
 433 140 433 140 488 127.5 c 128,-1,10
 543 115 543 115 566 114 c 1,11,-1
 613 126 l 1,12,0
 794 439 794 439 794 721.5 c 128,-1,1
974 306 m 1,13,-1
 1000 232 l 1,14,-1
 1200 242 l 1,15,16
 1312 242 1312 242 1350 235 c 1,17,-1
 1397 229 l 1,18,19
 1405 239 1405 239 1423 270 c 128,-1,20
 1441 301 1441 301 1484 304 c 1,21,-1
 1488 304 l 2,22,23
 1540 304 1540 304 1540 228 c 2,24,-1
 1540 224 l 2,25,26
 1540 158 1540 158 1498 106 c 128,-1,27
 1456 54 1456 54 1446 37 c 1,28,29
 1446 10 1446 10 1418 -3 c 128,-1,30
 1390 -16 1390 -16 1376 -16 c 0,31,32
 1329 -16 1329 -16 1320.5 28.5 c 128,-1,33
 1312 73 1312 73 1307 82 c 1,34,35
 1274 102 1274 102 1233 102 c 128,-1,36
 1192 102 1192 102 1051 72 c 128,-1,37
 910 42 910 42 865 28.5 c 128,-1,38
 820 15 820 15 686 -10 c 1,39,40
 626 -42 626 -42 586 -42 c 1,41,-1
 456 -20 l 1,42,-1
 340 19 l 1,43,44
 299 37 299 37 242.5 76.5 c 128,-1,45
 186 116 186 116 153 171 c 128,-1,46
 120 226 120 226 96 306.5 c 128,-1,47
 72 387 72 387 66 435 c 1,48,-1
 58 562 l 1,49,50
 67 841 67 841 85.5 926.5 c 128,-1,51
 104 1012 104 1012 136 1112 c 128,-1,52
 168 1212 168 1212 182 1241 c 128,-1,53
 196 1270 196 1270 246.5 1313 c 128,-1,54
 297 1356 297 1356 353.5 1375 c 128,-1,55
 410 1394 410 1394 493 1400 c 1,56,-1
 595 1392 l 1,57,58
 726 1364 726 1364 760 1334 c 128,-1,59
 794 1304 794 1304 812 1286 c 1,60,61
 832 1290 832 1290 874 1302 c 128,-1,62
 916 1314 916 1314 1135 1314 c 128,-1,63
 1354 1314 1354 1314 1386 1302 c 128,-1,64
 1418 1290 1418 1290 1428 1290 c 128,-1,65
 1438 1290 1438 1290 1447 1292 c 1,66,67
 1455 1297 1455 1297 1477.5 1333.5 c 128,-1,68
 1500 1370 1500 1370 1542 1370 c 0,69,70
 1604 1370 1604 1370 1604 1290 c 0,71,72
 1604 1262 1604 1262 1574 1202 c 0,73,74
 1517 1090 1517 1090 1447 1090 c 0,75,76
 1410 1090 1410 1090 1390 1118 c 128,-1,77
 1370 1146 1370 1146 1318 1166 c 128,-1,78
 1266 1186 1266 1186 1247.5 1186 c 128,-1,79
 1229 1186 1229 1186 1137.5 1166 c 128,-1,80
 1046 1146 1046 1146 1006 1146 c 2,81,-1
 991 1146 l 1,82,-1
 991 1040 l 1,83,84
 1012 892 1012 892 1012 842 c 2,85,-1
 1012 767 l 1,86,-1
 1078 778 l 2,87,88
 1132 786 1132 786 1162 809.5 c 128,-1,89
 1192 833 1192 833 1214 833 c 2,90,-1
 1216 833 l 1,91,-1
 1263 818 l 1,92,93
 1302 799 1302 799 1303 741 c 1,94,-1
 1304 740 l 1,95,96
 1303 679 1303 679 1261.5 606 c 128,-1,97
 1220 533 1220 533 1176 533 c 128,-1,98
 1132 533 1132 533 1096 588 c 1,99,-1
 1078 614 l 1,100,-1
 1002 588 l 1,101,102
 998 545 998 545 986.5 444.5 c 128,-1,103
 975 344 975 344 974 306 c 1,13,-1
EndSplineSet
Validated: 1
EndChar

